<mxfile host="Electron" modified="2024-03-13T08:39:46.955Z" agent="Mozilla/5.0 (Windows NT 10.0; Win64; x64) AppleWebKit/537.36 (KHTML, like Gecko) draw.io/22.0.3 Chrome/114.0.5735.289 Electron/25.8.4 Safari/537.36" etag="93d_zVELy4xzRhOuX8Ad" version="22.0.3" type="device">
  <diagram name="第 1 页" id="xIIZpmTvmSZuWC35Brzt">
    <mxGraphModel dx="697" dy="642" grid="1" gridSize="10" guides="1" tooltips="1" connect="1" arrows="1" fold="1" page="1" pageScale="1" pageWidth="827" pageHeight="1169" math="0" shadow="0">
      <root>
        <mxCell id="0" />
        <mxCell id="1" parent="0" />
        <mxCell id="XhPieVHF6vT0XnLb9ve3-1" value="A" style="rounded=0;whiteSpace=wrap;html=1;" parent="1" vertex="1">
          <mxGeometry x="280" y="300" width="120" height="60" as="geometry" />
        </mxCell>
        <mxCell id="XhPieVHF6vT0XnLb9ve3-2" value="" style="endArrow=classic;html=1;rounded=0;" parent="1" edge="1">
          <mxGeometry width="50" height="50" relative="1" as="geometry">
            <mxPoint x="240" y="540" as="sourcePoint" />
            <mxPoint x="800" y="540" as="targetPoint" />
          </mxGeometry>
        </mxCell>
        <mxCell id="XhPieVHF6vT0XnLb9ve3-3" value="B" style="rounded=0;whiteSpace=wrap;html=1;" parent="1" vertex="1">
          <mxGeometry x="680" y="600" width="120" height="60" as="geometry" />
        </mxCell>
        <mxCell id="XhPieVHF6vT0XnLb9ve3-4" value="" style="line;strokeWidth=2;direction=south;html=1;" parent="1" vertex="1">
          <mxGeometry x="460" y="450" width="10" height="160" as="geometry" />
        </mxCell>
        <mxCell id="XhPieVHF6vT0XnLb9ve3-7" value="Cast-Point" style="text;html=1;strokeColor=none;fillColor=none;align=center;verticalAlign=middle;whiteSpace=wrap;rounded=0;" parent="1" vertex="1">
          <mxGeometry x="280" y="420" width="60" height="30" as="geometry" />
        </mxCell>
        <mxCell id="XhPieVHF6vT0XnLb9ve3-8" value="Backswing" style="text;html=1;strokeColor=none;fillColor=none;align=center;verticalAlign=middle;whiteSpace=wrap;rounded=0;" parent="1" vertex="1">
          <mxGeometry x="670" y="420" width="60" height="30" as="geometry" />
        </mxCell>
        <mxCell id="XhPieVHF6vT0XnLb9ve3-9" value="A Timeline" style="text;html=1;strokeColor=none;fillColor=none;align=center;verticalAlign=middle;whiteSpace=wrap;rounded=0;" parent="1" vertex="1">
          <mxGeometry x="150" y="530" width="60" height="30" as="geometry" />
        </mxCell>
        <mxCell id="XhPieVHF6vT0XnLb9ve3-10" value="" style="endArrow=classic;html=1;rounded=0;" parent="1" edge="1">
          <mxGeometry width="50" height="50" relative="1" as="geometry">
            <mxPoint x="570" y="745" as="sourcePoint" />
            <mxPoint x="1130" y="744.52" as="targetPoint" />
          </mxGeometry>
        </mxCell>
        <mxCell id="XhPieVHF6vT0XnLb9ve3-13" value="B Timeline" style="text;html=1;strokeColor=none;fillColor=none;align=center;verticalAlign=middle;whiteSpace=wrap;rounded=0;" parent="1" vertex="1">
          <mxGeometry x="490" y="730" width="60" height="30" as="geometry" />
        </mxCell>
        <mxCell id="XhPieVHF6vT0XnLb9ve3-15" value="" style="shape=image;verticalLabelPosition=bottom;labelBackgroundColor=default;verticalAlign=top;aspect=fixed;imageAspect=0;image=data:image/png,iVBORw0KGgoAAAANSUhEUgAAA5gAAAQgCAYAAACD9vMrAAAgAElEQVR4nOzdfWxU55n38V8IoNkygcHLSrbrQly26ipGhmYoQrY2QI3CrGowskjCRiC8XdupQsdetHIrZNkEW27URa1lT8gjbG9iajdKdx26k7gqVHWApLa8lEPBC1WllszGmgZWAjMRjjrdNub5w52zHnv8yvGcefl+JEQ9c86Za8g//fm67vt+ZOXKlQ8EAAAAAMBDWmJ3AQAAAACA1EDABAAAAABYgoAJAAAAALAEARMAAAAAYAkCJgAAAADAEgRMAAAAAIAlCJgAAAAAAEsQMAEAAAAAliBgAgAAAAAsQcAEAAAAAFiCgAkAAAAAsAQBEwAAAABgCQImAAAAAMASBEwAAAAAgCUImAAAAAAASxAwAQAAAACWIGACAAAAACxBwAQAAAAAWIKACQAAAACwBAETAAAAAGAJAiYAAAAAwBIETAAAAACAJQiYAAAAAABLEDABAAAAAJYgYAIAAAAALEHABAAAAABYgoAJAAAAALAEARMAAAAAYAkCJgAAAADAEgRMAAAAAIAlCJgAAAAAAEsQMAEAAAAAliBgAgAAAAAsQcAEAAAAAFiCgAkAAAAAsAQBEwAAAABgCQImAAAAAMASBEwAAAAAgCUImAAAAAAASxAwAQAAAACWIGACAAAAACxBwAQAAAAAWIKACQAAAACwBAETAAAAAGAJAiYAAAAAwBIETAAAAACAJQiYAAAAAABLEDABAAAAAJYgYAIAAAAALEHABAAAAABYgoAJAAAAALAEARMAAAAAYAkCJgAAAADAEgRMAAAAAIAlCJgAAAAAAEsQMAEAAAAAliBgAgAAAAAsQcAEAAAAAFiCgAkAAAAAsAQBEwAAAABgCQImAAAAAMASBEwAAAAAgCUImAAAAAAASxAwAQAAAACWIGACAAAAACxBwAQAAAAAWIKACQAAAACwBAETAAAAAGAJAiYAAAAAwBIETAAAAACAJQiYAAAAAABLEDABAAAAAJYgYAIAAAAALEHABAAAAABYgoAJAAAAALAEARMAAAAAYAkCJgAAAADAEgRMAAAAAIAlCJgAAAAAAEsQMAEAAAAAliBgAgAAAAAsQcAEAAAAAFiCgAkAAAAAsAQBEwAAAABgCQImAAAAAMASBEwAAAAAgCUImAAAAAAASxAwAQAAAACWIGACAAAAACxBwAQAAAAAWIKACQAAAACwBAETAAAAAGAJAiYAAAAAwBIETAAAAACAJQiYAAAAAABLEDABAAAAAJYgYAIAAAAALEHABAAAAABYgoAJAAAAALAEARMAAAAAYAkCJgAAAADAEgRMAAAAAIAlCJgAAAAAAEsQMAEAAAAAliBgAgAAAAAsQcAEAAAAAFiCgAkAAAAAsAQBEwAAAABgCQImAAAAAMASS+0uAA/nzp07dpcAAACAJLFmzRq7S0CKo4MJAAAAALAEARMAAAAAYAkCJgAAAADAEgRMAAAAAIAlCJgAAAAAAEsQMAEAAAAAliBgAgAAAAAsQcAEAAAAAFiCgAkAAAAAsAQBEwAAAABgCQImAAAAAMASBEwAAAAAgCUImAAAAAAASxAwAQAAAACWIGACAAAAACxBwAQAAAAAWIKACQAAAACwBAETAAAAAGAJAiYAAAAAwBIETAAAAACAJQiYAAAAAABLEDABAAAAAJYgYAIAAAAALLHU7gIAAItj69atdpeAGAYHB+0uAQCARUMHEwAAAABgCTqYAJDiDMOwuwRIcrvddpcAAMCio4MJAAAAALAEARMAAAAAYAkCJgAAAADAEgRMAAAAAIAlCJgAAAAAAEsQMAEAAAAAliBgAgAAAAAsQcAEAAAAAFiCgAkAAAAAsAQBEwAAAABgCQImAAAAAMASBEwAAAAAgCUImAAAAAAASxAwAQAAAACWIGACAAAAACxBwAQAAAAAWIKACQAAAACwBAETAAAAAGAJAiYAAAAAwBIETAAAAACAJQiYAAAAAABLEDABAAAAAJYgYAIAAAAALEHABAAAAABYgoAJAAAAALAEARMAAAAAYAkCJgAAAADAEkvtLgAAkPj8fr8kqaSkZMrrw8PD8nq9ln1WKBRSV1eXKioq5HA4Znw9HA6rsbFRZ8+endOzy8rKzFp9Pp8KCgrkdrujrpnudQAAMDs6mACAWe3atUuXLl2SYRhTXh8dHVUgEIhLHZcvX1ZhYaHcbrfcbrdu3LihpqYmGYahvr4+eTwe9fX1yTCMmK9FwmU4HNbo6KgyMjKinh8IBDQ6Oqq8vLy4fB8AAFINHUwAwKwcDofKy8v15ptv6qc//al6enqi3p/484YNG9TS0iKXyzWvz5jcjezs7IzqOErS5s2bderUqajO5kI5nU6tXr066rXz589r//79cjgc8vl8kmRpdxYAgFRHwAQAzElubq6OHj0qSebfVnM6nWpra9PAwICefPJJXblyRX6/Xw0NDeY1nZ2dkqT6+vopI7tzMfF5kWe1tbUpIyNDa9euVW5uriSpoqJCzc3NCgQC5msAAGBmBEwAwIwCgYC8Xq9u3bqltra2adcmLsZ6zIjJYdIwDAWDwQU9q6SkRPn5+Tp//ry+9rWvmZ3K//qv/9LPfvYzfetb34q6fnR0VHV1dZZ0TQEASHUETADAjHJzc9Xb22sGscgoqyQzeAUCAfX19UV1Gq0WCoV04sQJ1dTUmK8ZhqHKysqo62Jt+DPxtba2NgWDQf3lX/6lJGnFihX6zW9+oxMnTsjj8ai/v3/KJkI3btywbNOfrVu3WvIcYCbl5eUqLy+3uwwAaYiACQCYF4fDYW6sU1hYqMOHD+vq1as6cuSIue4yVvCbzSuvvDLvWtxut7nx0MQAGqkj1muSdO3aNe3YsUOhUEg3b95UTU2N9u/fP+13BQAAc0PABAAsiNvtVl9fn6qrqyUpasOcicFvrsLhsC5cuPBQNWVmZs46yhoKhXTx4kVt3LhRIyMj5j21tbUxu58LXes5ncHBQcueBUzW0dGhjo4Ou8sAkMYImACAeYuMjgaDQbW0tOjmzZsqKiqasuvrQo2OjuqHP/yhvvCFL5iv3bt3T06nc9oAefPmTUmaNWC6XC6dOnXK3LG2ra1N0vgGQz09PVEb+kTO/wQAAHNDwAQAzCocDuv27duSJJ/Pp3Pnzsnn85lhzO12q7+/X42NjfL7/Qvq+DkcDh09elShUEhOp1P/8i//EhUWfT6fenp65HQ65fV6o9ZEhsNhnTlzRqWlpXP+rC1btujs2bM6c+aM1q9fP+96AQDAVEvsLgAAkNgi3Uqn06mWlhYVFxert7d3ytEdkfWKVo6TSuMjrYcOHZI0vrZz7dq1Ki4uViAQiKovMzNzzhvx+P1+Xbp0Sf39/dqyZYv+3//7fxodHdW+ffvkdrvNP4u5aREAAKmIDiYAYEa3bt3S+vXr9bWvfS3qyJLpZGVlRXU3H4bP59Ply5fV0tJibtJTUlKibdu2qb6+XuXl5frud7+rqqqqOYdLwzA0PDxsbt5TUlKiXbt2qbm5mRFZAAAe0iMrV658YHcRWLg7d+7YXQKABBU5DmO+m+1gcUQCMJv8YDFFNvnhmBJMZ82aNXaXgBTHiCwAAAAAwBIETAAAAACAJQiYAAAAAABLEDABAAAAAJYgYAIAAAAALEHABAAAAABYgoAJAAAAALAEARMAAAAAYAkCJgAAAADAEgRMAAAAAIAlCJgAAAAAAEsQMAEAAAAAliBgAgAAAAAsQcAEAAAAAFhiqd0FAAAAYP4+/fRTHT58WPfv39eSJeM9g5GREUnSj370I128eFGSNDY2pi9+8Yuqr6+3rVYA6YOACQAAkIQeffRRuVwuXb16dcp7d+/e1d27d82fn3nmmXiWBiCNMSILAACQpHbv3i2n0znjNU6nU263O04VAUh3BEwAAIAkVVhYOKfrPve5zy1yJQAwjoAJAACQxJ5++umHeh8ArETABAAASGIej2faMVmn0ymPxxPnigCkMwImAABAEsvPz9eKFStivrdixQrl5+fHuSIA6YyACQAAkOT27Nmj5cuXR722fPly7dmzx6aKAKQrAiYAAECS27lzp3kWZsSSJUtUVFRkU0UA0hUBEwAAIMmtW7dO2dnZUa9lZ2fr8ccft6kiAOmKgAkAAJAC9u7da47JOhwO7d271+aKAKQjAiYAAEAK2Llzpz799FNJ0h//+Eft3LnT5ooApCMCJgAAQArIyMgwd4zNz89XRkaGzRUBSEdL7S4AALC43G633SUAKae0tFQfffSR3WVM65e//KW2bt1qdxm2OXXqlDZu3Gh3GUBaooMJAAAwD0NDQwkbLh88eBD1dzrKzs4mXAI2ooMJAClqcHDQ7hKAlHThwgVJ0oEDB3TkyBGbq0FEc3Ozuru7tX37drtLAdIaHUwAAIB5iATMHTt22FwJJnr33XcliYAJ2IyACQAAMEeR8djPfvaz2rRpk93l4M+uXr2qjz76SNnZ2eZGRwDsQcAEAACYI7qXien8+fOS6F4CiYCACQAAMEcEzMTEeCyQOAiYAAAAc8B4bGJiPBZILARMAACAOaB7mZgYjwUSCwETAABgDgiYiYnxWCCxEDABAABmwXhsYmI8Fkg8BEwAAIBZ0L1MTIzHAomHgAkAADALAmZiYjwWSDwETAAAgBkwHpuYGI8FEhMBEwAAYAZ0LxMT47FAYiJgAgAAzICAmZgYjwUSEwETAABgGlaNx4ZCIdXW1ioUCsV8PxAI6LXXXot6ze/3y+fzzfuZoVBIVVVVCgQCC643Fr/fL8Mw5vz6YmI8FkhcS+0uAAAAIFEtpHtpGIYqKytjvnf27Nkpr9XX16ukpERDQ0Py+Xzyer3y+/1qaGiQJHV2dk65p62tTW63W6WlpTpx4oTq6urkcDgkSS6XS4cOHVJvb6+8Xu+c634YE7+vx+OJqmcxMB4LJC4CJgAAwDQWEjDdbndURy8UCunEiRO6f/++vvCFL+jgwYNyuVxT7ispKZHP55Pb7ZbH41F/f3/MkDaxq+l2uzUwMKD/+I//UHd3t27duhV17cRwGgmy8zU5MGdlZcnn8yk3N9d8LRJ444XxWCBxETABAABisGI81jAMtba26vjx42pvb9fu3btVXV2tqqqqmIHM6/XOu+sYuX7//v0LqnEuysrKtHbtWq1Zs0bvvfeeRkZG9NJLL+n69etR123YsEEtLS0xA7RVGI8FEhtrMAEAAGJ4mM19AoGAiouLNTAwoNOnT5uBy+Vy6fTp0xoYGNChQ4cUCoUUDodVW1srt9ttdicj97vdbvOP3++P+oxIt7O2tlbhcDhmHYu1HlOScnJy1NfXJ8MwZBiG+vv7tXnzZss/ZzLGY4HERgcTAAAghoUGTJ/Pp9/85jf6/Oc/r87Ozqgx1clrMIuKilRWVqampiaVlpZqYGDAfK+wsFBHjhyRw+GQYRgKBoOSpBUrVigjI0Ner1fFxcV68803Jf3fKOvEcdWuri4VFRVFjbNaLRJ8d+3atWifMREBE0hsBEwAAIBJHmY81uv1KhwOq729XQ0NDTHHRUOhkLq6ulRRUTHtZjj9/f3q6ekxf66vr5/xc91ut/r7+9XY2KjW1lZt27ZNksx1l+FwWI2NjTE3GpqOx+NRcXHxnK9fbFevXtXvfvc7xmOBBEbABAAAmMSKsy9v376toqKiad/3eDwz3h+rgxkOh/U///M/097jcDjU1NRk7kI7MZRG3mtqaprX94j3ESQzoXsJJD7WYAIAAExiRcDMzMyMWqM48U9fX58yMzOtKtdkGIY5Htvf369Lly6puLjYsjWYV65cUX9/f9Rrw8PDysnJseT5syFgAomPDiYAAMAEVuweKy28g/mzn/1M0txGZEdGRjQ6OqoPPvhA3/zmN7Vr166ojmNTU5MMw9BLL7204N1dJ24yVFBQYO5a63a7FQgEdO7cOZ07d848w3OxMB4LJAcCJgAAwARWdC8XOo7a2dmpsrIyFRcXR43IRgQCAd26dUurV682j0CJ7Oba29sb85lut1unT59e8HeZjt/vV3t7u3w+n1avXq3q6mpt3rx50UIm3UsgORAwAQAAJnjYgOnz+aJ2jp1NWVmZvF6vgsGg6uvrzU15jh49Kml8Q6Dq6mrzzMn6+nq5XC5du3ZNL730knJzc80jS+byOQ8rEAjI6/WqoqIiKtSePn1afr9/0TqZBEwgOTyycuXKB3YXgYW7c+eO3SUAAJAyhoaGVFlZqc9+9rN6++237S4Hf3b16lX94z/+o7Kzs3XmzBm7y0lqa9assbsEpDg2+QEAAPgzK8ZjYT26l0DyIGACAAD8GQEzMREwgeRBwAQAAJB1u8fCWuweCyQXAiYAAIDoXkrj52jW1tYqHA6br4XDYb388suWnaU5X3QvgeRCwAQAACnj5s2bqq2t1dDQkO7fvz+ve+MRMMPhsGpra82zJd1ut4qLi20Lb5MNDAyotLQ06miUGzduyOl0Kjc315aa5howb926pa6uLv3d3/2dfv3rX8ejNAAxcEwJAABIGUuXLlVfX5/6+/s1Njamv/7rv1ZJSYmKiorkdDqnvS/e47FtbW2zHisSTxOPQokcseLxeFRXV6eBgQF1dnZGHb0y8TiVxTTbeOzo6Kj6+vrk9/v129/+VkuWLFE4HNZf/MVfLHptAGIjYAIAgJQTGfH81a9+pQ8//FAvv/yytm7dqpKSkpgdSsZjpZycHLW0tMjlcikUCqmrq0sffPCBRkdH1d/fb3Y1/X5/3Gqarnt5/vx5+f1+DQ4OasWKFfrkk0/iVhOAmTEiCwAAUlokfAwODqqpqUnbt2/X8ePHdfnyZfOaRAiYoVBIVVVV+tnPfqbi4mJzLaTf7zfHaQ8dOqRQKBTzerfbrdraWoVCoagxXMMwzM+YPKLr8/mmrWd0dFQ/+MEPtH///qiR2XiaGDAvX76s48ePa/v27WpqatLg4KAkES6BBEMHEwCQ0Do6OuwuAUnk448/nvH90dFRSdJPfvITvf/++1q2bJm+/OUvx3332MrKSvN/b9iwQS0tLZLG6z9//rx6enrkcDgUCAS0YsUKGYahcDisxsZGdXV1yev1Trk+HA6rurpaBw4ckM/nU1NTk/x+v1pbW9XS0iKHw6HGxkZlZmZGPc/v92vbtm1TanQ6nTpy5Ija29tVUFAQ95HeyHjsihUr9K1vfUt//OMfzf9+s+np6dGqVasWuULrfPWrX1VWVpbdZQCWIGACABIaAROLJRJWfvrTn0qK7y6lsdZgRjqTEzfZyc3NNTfXcTgc2rJli4aHh6Pui1zvcDi0efNm8z5Jys/PV19fn6TxzXqCwaBqampiPi8YDKqoqMh8rsfjkSRVVFSosbFRwWAwLusuI959911J4x3K+XYp//3f/30xSlo0Tz75JAETKYOACQBICuXl5XaXgCTw8ccfzzlcOJ1OLVu2TP/7v/+rTz75RF/5ylcWubrZrVq1ShkZGebPgUBAXq9Xt27dMl/zeDzmGtPJ18cSCoV07949SdL169ejQmTkeX/4wx9irsGUxoNoXV2dmpubzY12cnJyHv7LziIytvz000/rF7/4xbw6mM8880xSdDB//OMfR/23BVIBARMAkBQImJiLDz/8cMaA6XQ69ac//Uk7duzQV7/6VS1fvlyVlZVxHY+dq3A4rI6ODlVUVJidQ7/fr0uXLi34mZFxXJfLFfV6pHs6HYfDoaNHj0oa33F3sU3cPbahoUGSdPnyZf34xz/W+fPntXTp0hnD5r59+7Ru3bpFr/NhXblyhYCJlMMmPwAAIKWtWLFCkrR161bV1tbqwoULOnbsmDZv3pwQm/vMVSgU0pkzZxZ8//r16yVJFy9eNF/z+/1RmwDNxeQR3cUQa/fYzZs369ixY7pw4YJqa2u1detWSf/33xdAYqCDCQAAUo7D4ZjTOZiJHDAdDofKy8vl9XrV0NCgDRs2aNu2bbp58+aCnudyudTS0qLq6mqzK1hfXy+3261QKDTtGsyJwuGwbt++vbAvNA/THU8SsWPHDu3YsWPaczAB2IeACQAAUsaDBw+0evVqPf/889q5c+eMG6cMDQ3FffdYh8OhpqammO+5XC61trZGvZabm6ve3t5pnzX5+sjushPv//73vx/1GadPn475vOnWYE5eB+rxeJSXlzfDt3w4E8djI2s+p+N0OlVSUqKSkhLdv39fgUBAP/zhD7Vs2bJFqw/AzAiYAAAgZTz++OP6yU9+MqdrE7l7GW8ulysq+LpcLjOszhRyF8Ns3cvpPPbYY8rPz581lAJYXKzBBAAAaYmAmZgWGjABJAYCJgAASDt2jMdidvMZjwWQmAiYAAAg7dC9TEx0L4HkR8AEAABph4CZmAiYQPJjkx8AAJBW4j0eaxiGKisrzZ/Lysqm7PYaL+FwWI2NjSotLVVGRkbU7rATeTwe1dXVyeFwxK02xmOB1EDABAAAaSWe3Uufz6fLly+rr69PLpdLkuT3+2UYhtxu96J//kwm7g5rGIbOnDkT91A5Ed1LIDUQMAEAQFqJV8D0+/26fPmyebZkRElJyaJ+brIiYAKpgTWYAAAgbcRrPDYcDuvSpUsqLS2NCpeThUIhHTp0SG63W263W36/37y/trZW/f39qq2tldvtVnFxsQKBQNT9Pp9vyr2SzA7pdPfNhd/vN59x6NAhhUKhmO/V1tbqzTfflM/nm/dnRDAeC6QOAiYAAEgb8epehsNh3b9/f9awdPbsWbW0tMgwDLW1tam9vT0qDL788ssqLy+XYRjatWuXOjo6FA6HzQB6+/Zt9ff3yzAMrVmzRqFQSIZh6NixY+rp6ZFhGDp+/LheeumlqIA4m0AgoBUrVsgwDPX39ysnJ0ddXV2SxsNre3u7+fzy8nJ1d3cv7B/qz+heAqmDgAkAANJGou0eu3//frPDuX79en3+85+Per+iokK5ubmSpOLiYt2/f1/hcFi3bt3S/fv3VVNTY66ZLCwslMPh0JkzZ6LuW79+vVatWqV79+7Nua7c3Fzt3LlTkuRwOLRlyxbzvYGBgajn5+bmateuXQv8FxhHwARSB2swAQBAWojn7rEOh0OPPfaYRkZGzCAWi8/nU2dnZ9Rrhw4dUlZWliQpJycn5n0jIyN67LHHpt2Qp6GhQQ0NDdM+dzaBQGDKDrMej0ehUEi3b99WQUFB1PVr167V8PDwnJ49GeOxQGohYAIAgLQQz+5lpOt35swZ5eXlxQyChmFE7TAbCoVUXV09588IBoMKh8Mxn11fXx9zM6FwODzrc8PhsDo6OlRRUWE+w+/369KlS1GfPXEX3IWGS4nuJZBqGJEFAABpId7jsdu2bVMwGFRjY2NUsIscUzLZxYsXdf369Tk9Oy8vL2pdpCT19/crHA6bwTay5jIUCsnn880pXMYSCoV05swZSdHBOfJ8wzCmdGHng4AJpBYCJgAASHmR8djs7OxFH4+NcLlcOn36tDIzM1VYWGjuuirJ/N+bN29WUVGR3G637t69qw0bNszp2Q6HQ3V1dbp9+7b5rDt37sjlcqmkpESlpaXmc6urq3Xw4ME5n2/pcDhUXl6u9vZ28/5t27aZ75eUlETVPTAwoPr6+vn/A4nxWCAVPbJy5coHdheBhbtz547dJQDAotq6daskaXBw0OZKkMxaW1v1xhtv6MCBAzpy5Ijd5aQcn8+ntWvXzvuMz+bmZnV3d+v5559XVVXVIlWXuF588UVduXJFr776qp588sm4fOaaNWvi8jlIX3QwAQBAyku03WOTmWEYU87cPHfu3II6kIzHAqmHTX4AAEBKs2M8NpVFxmIj475ZWVny+Xwz7pYbC+OxQGoiYAIAgJQW6V5+5StfsbmS1OH1euX1eh/qGXQvgdTEiCwAAEhpjMcmJgImkJoImAAAIGUxHpuYGI8FUhcjsgCAuFqyZH6/2zxw4MCC7hsbG5vX9UhNjMcmJrqXQOoiYAIA4urRRx+d1/ULPVKCgAmJ8dhERcAEUhcjsgAAICUxHpuYGI8FUhsdTABAXAUCAZ0/f15f+9rXprzn9/t16dIl1dXVyeFwRL1nGIYqKyvn9BllZWX6+te/bkm9SF6MxyYmupdAaiNgAgDiKjc3V729vTIMQ3l5eWpsbNTZs2ejron8PPl8vfr6epWUlMzpc/74xz9aWziSDuOxiYmACaQ2AiYAIO4OHjyoEydO6LOf/awyMzPV19cnl8sVdU04HFZzc/O0z4i8v3///nkf8I7Ux3hsYmI8Fkh9BEwAQNy5XC41NTUpHA7r9u3bKioqinldVlaW9u/fH+fqkAoYj01MdC+B1EfABADElc/nU2dnp8rKylRRUTFtB3O2+yN6enqi3i8rK5PX67W0ZiQfxmMTEwETSH0ETABAXHm9XhUUFGhgYMDsYJ44cWLKOsyItrY2ud3uqPu9Xq/C4bDa29t18OBBM5wahqGBgYG4fA8kLsZjExPjsUB6IGACAGxz7949OZ1OSeNB8tq1a9qxY4fOnz+vHTt2aGhoaNp7I+EUmIzx2MRE9xJIDwRMAIBtRkZGzIAZOYLk5MmTUX+3tbVJkoLBYNS9kXA6+TiTtWvXLmrNSHyRgNnd3a3u7m6bq8FkBEwgtREwAQC2GRgYMMdlZ+tgDg8Pq6CgwPy5t7dXTzzxRFTAnBxCkX6uXbumjz76yO4yMA3GY4HUR8AEANji9u3byszMVF5eXsx1k2+++aZ6enrU1tamcDgsSVq/fr2k8bWWly9f1sGDB+NaMxLfxo0bNTg4aHcZtuno6FBHR4fKy8tVXl5udzkA0hABEwAQV6FQSK2trbp+/brq6+vlcDjMXV8jm/lEzrU8evSopPFAKY0fb+L3+9Xe3i6fzzdl59nJXU4AABBfBEwAQFx1dXWpqqpKeXl5amxsVENDw4zXezwerVu3TsXFxfL7/bp06ZJ6enrkcDgUDofV2Nho7kDr8XiUl5cXj68BAABiIGP59xcAACAASURBVGACAOJq4hmVTU1NampqmvO9ubm5KikpMX92OBzzfgYAAFg8BEwAQFyNjY3N6/o33nhDkvT8888vRjkAAMBCBEwAQFx9+umn87q+ublZkvTcc88tRjkAAMBCS+wuAAAAAACQGgiYAAAAAABLEDABAAAAAJYgYAIAAAAALEHABAAAAABYgoAJAAAAALAEARMAAAAAYAkCJgAAAADAEgRMAAAAAIAlCJgAAAAAAEsQMAEAAAAAliBgAgAAAAAsQcAEAAAAAFiCgAkAAAAAsAQBEwAAAABgCQImAAAAAMASBEwAAAAAgCUImAAAAAAASxAwAQAAAACWIGACAAAAACxBwAQAAAAAWIKACQAAAACwBAETAAAAAGAJAiYAAAAAwBIETAAAAACAJQiYAAAAAABLEDABAAAAAJYgYAIAAAAALEHABAAAAABYgoAJAAAAALAEARMAAAAAYAkCJgAAAADAEgRMAAAAAIAlCJgAAAAAAEsstbsAAAAAzN+nn36qw4cP6/79+1qyZLxnMDIyIkn60Y9+pIsXL0qSxsbG9MUvflH19fW21QogfRAwAQAAktCjjz4ql8ulq1evTnnv7t27unv3rvnzM888E8/SAKQxRmQBAACS1O7du+V0Ome8xul0yu12x6kiAOmOgAkAAJCkCgsL53Td5z73uUWuBADGETABAACS2NNPP/1Q7wOAlQiYAAAASczj8Uw7Jut0OuXxeOJcEYB0RsAEAABIYvn5+VqxYkXM91asWKH8/Pw4VwQgnREwAQAAktyePXu0fPnyqNeWL1+uPXv22FQRgHRFwAQAAEhyO3fuNM/CjFiyZImKiopsqghAuiJgAgAAJLl169YpOzs76rXs7Gw9/vjjNlUEIF0RMAEAAFLA3r17tWzZMknSsmXLtHfvXpsrApCOCJgAAAApYOfOnRobG5MkjY2NaefOnTZXBCAdETABAABSQEZGhrljbH5+vjIyMmyuCEA6Wmp3AQAAAImqtbVVb7zxht1lzNsvf/lLbd261e4yEsapU6e0ceNGu8sA0gIdTAAAgGlcuHDB7hLm5cGDB1F/Y3yzI8IlED90MAEAAGK4du2aPvroI2VnZ+udd96xuxzMU3Nzs7q7u7V9+3a7SwHSCh1MAACAGN577z1J0le+8hWbK8FCvPvuu5JEwATijIAJAAAQw/nz5yVJO3bssLkSzNfVq1fN7nNk4yMA8UHABAAAmGTieOymTZvsLgfzFPnlAN1LIP4ImAAAAJMwHpvcIuOx27Zts7kSIP0QMAEAACZhPDZ5TRyPZfdYIP4ImAAAABMwHpvcGI8F7EXABAAAmIDx2OTGeCxgLwImAADABIzHJi/GYwH7ETABAAD+jPHY5MZ4LGA/AiYAAMCfMR6b3BiPBexHwAQAAPgzxmOTF+OxQGIgYAIAAGh+47E+n0+GYcR8LxwOy+fzKRQKma8FAgFVVVVFvTadUCik2traOV078Z6qqioFAoE5XW8YhmpraxUOh6Pqfvnll6d9xnw/Ixafz6dDhw7N67vNFeOxQGJYancBAAAAiSDWeGwoFFJ1dbWuX78+5frOzs4pr3k8HtXV1am4uFj19fVqaGjQvXv35PV6devWLRUVFU25p6ysTF6v1/y5q6tLZ8+e1dmzZ2M+2+FwTHlGV1eX+vv71d/fP+OzIwYGBlRaWhr1rBs3bsjpdCo3N3fK9TN9xnT/BpPr9Pv9unz5snJyctTV1RWzrofBeCyQGAiYAAAAij0e63K5dPr06ajrXnvtNV24cEFf/vKXVVBQILfbPeVZubm5OnTokIqKipSVlSWfzxczuBmGoYGBAfNnv9+vtWvXRnVHA4GAmpubVVNTEzNcxronEowLCgqirp0YmCMBORIIBwYG1NnZGRWc6+vrVVJSYobDvr4+uVyu2P+AM/D7/Tpz5oxaWlrkcDjU2Ngov9+vkpKSeT8rlkQZj3300Ufndf3f//3fq6ioSOvWrZvXvWNjY3rw4MF8ywPigoAJAADS3lzGYyPhrKqqSp988okKCgo0MDCggYGBmN04t9s97RhtLH6/Xw0NDZJk/j1RpPu5YcMGtbS0yOVyye/3S1JUUAuHwzpx4oRKS0tjht+cnBzz/lAopK6uLn3wwQcaHR1Vf3+/GWIjzzYMQ5cuXdJ3vvOdabu5EW1tbVM+0+fz6fLly+ZnSlJdXZ0aGxun1L5QiTIe+8gjj+iRRx6Z8/UL3UxqbGxsQfcB8cAaTAAAkPYuXrwoKfb/4Q+Hw6qtrVV1dbVaWlqiApTX6zW7mJEw6ff75Xa7zbWGkfvdbrf5Z/L6R8Mw9Pvf/1779u1TT0+PDMOQYRiqr69XfX29+XNfX59ycnLMe9566y21t7dHPbuwsFBnz55VQ0OD+ZrP55v2u4+OjuoHP/iB9u/fH7ND6na71dTUpN/97nfKyclRf3+/enp6VFhYqL6+PrO2srKyqPsCgYCKi4slSadPn47qfDocDjU1NWl4eNiSNZmMxwKJgw4mAABIexcuXJA0dfdYwzB07NgxFRYW6vr161FrKCevwaysrDS7i319fTpx4oT5ntPpVE9Pj3Jzc82uYcTatWvldruVl5en5ubmOdfsdrvV2tqqEydOqLu72wxwPp8vanR38hjuZE6nU0eOHFF7e/u0I7+SFAwGlZmZKYfDYY4AnzhxIuZ6S8Mw1NraGlVXpLa1a9eaXUuv16tAIKADBw7o+PHj0372TBJlPFYa/2VER0eHDh48OGWUOBAI6NixYzp+/PiUcemZ1vpOtmHDBn33u9/VqlWrLK0dsAoBEwAApLWZxmPdbrd6e3vl9/tjjn9GvPbaa9qxY4cZHCZ35EZHR7Vv3z7zZ4/HE/M5k6+LmDgyu2HDhrl9sWkEg8GooByppaKiQo2NjQoGg1FjqxNHd6WpwXriZkSdnZ3mmtPJa1enk5ubq97e3gV9FylxxmOl8c5sQUGBuYnR5H87SVH/fSNrXCVp8+bNOnXqVMwu8mR/+tOfWIOJhEXABAAAaW2m8diJKisrp30vKytrxrMzp+tgBoPBaa+TNGWNZSgUiuqMRp4xeXfaySFw4vhqrDWY0ng4qqurU3Nzs/Lz881r3W63du3apebmZu3fv1+5ubnmxkMNDQ1yuVwKh8NR78dToo3Hut1uDQwMmCPT0/1iIvLfdjqx1tcCyYCACQAA0tp047GTzdbBfFjhcFi//vWv593BnBgYY5ltRHYih8Oho0ePSpKGhoaiahsdHdXq1aslacqIrF0SaTx2osimT8FgcMZfTNTX18erJCBuCJgAACBtzWX32IiFdDBv3ryp3/3ud3Makb13757+5m/+JmpMci4dzNlENvqZr+HhYXNDoXv37unatWsxz/GcOCLb09Mz7dmbiyGRxmOl8TD/wgsvmGtxpZl/MRHr/qqqqqjXJv9yoaWlRU6n07qiAYsRMAEAQNqa63hsSUnJvEcVg8GgWltb9Z3vfEc3btyIGn2VxruCly5dUmlpqSSpt7dXTzzxxJzW4M1XZKT1n//5n6ddgzlROBzW7du3zZ9nWydp14hsIo7HTtzgaXh4WMPDw9P+cmJyGJ+8G3FkRFla2C8XADsQMAEAQNqabTzWMIwZO5eTRTpMkW7kkSNHosZOpfGdVCNrJD0ej/Ly8hQKhXT79m0dPHhw1jrKysrMcViXy6XMzMyYncXJ6uvrtWrVqmnXYAYCAXm9Xt26dSuqtumEw2E1NjaaHcyysrK4hstEHY+NiIwV5+bmqqysTAUFBQoGg8rJyVEwGFR+fr7ZgY1lYgcZSCaPrFy5ki2oktidO3fsLgEAFtXWrVslSYODgzZXglRz7do1vfDCC8rOztY777xjdzmYp+bmZnV3d+v555+fMlZql6VLl+rjjz/WiRMnVFFRofb2du3YsUPf+ta3Yl4f6WAGAgG9+eab5i8kYnWEI78MqKio0NKlSxe8i+yaNWsW/P2AuaCDCQAA0tJcx2ORmBJtPHay3/72t8rMzNTq1atn7WCOjIzI6XSa49E3btzQ6OiosrKyzOfdu3dPo6OjtnwXYD6W2F0AAACAHea6eywST6KPx0rSL37xCxUXF8d871e/+pW8Xq8++eQTSePrdQsKCiSNdypbW1tVWlq6KOtxgcVGBxMAAKSd+ewei8STaLvHTtTV1aWzZ8/K4/EoKytLubm55kY9k/+WxgPlpUuXtG3bNnMdbEVFxZSdZyd2Of/0pz/F7wsB80TABAAAaSfZxmMnH1cymc/nU0FBgdxu96zXSuObBp05c0Z1dXVml8yunWAXIlHHYyM7wBqGIb/fr8LCwhmvz8rK0te//nVt2bJF9+7d07Fjx+Tz+cx/f7/fbx5TkpWVJZ/Pt7hfALAAARMAAKSdRByPnRgmIurr62c9HiUUCkmS8vLyFA6HNTw8PO1utBEDAwNTRjBv3Lghp9OZ8OEykcdj3W63Nm/eLGlhR9t8//vfj/p5Ic8A7EbABAAAaSVRx2MXGiZu3ryptWvXyuFwyDAMdXZ2msegTJSVlaVvf/vb+u53v6vr169HHZVSV1engYGBKffOJeDGWyKPx46Njc3r+n/7t39TMBjUs88+y5EkSBkETAAAkFaSaTx28jmckQ5nJBQ6HA4NDAyooKBA4XBYP/3pT9XT06OhoSFJU8dkQ6FQzHMwP/jgA42Ojqq/v9/sakZGbRNNoo7HSvMPmO+++66uXLmip556StnZ2YtUFRBfBEwAAJBWEnE8djput9tczyeNB8bImYmSFAgEdO7cORUUFOjcuXPmiGskYM7F6OiofvCDH6i8vDzhdy1N5PFYAOM4pgQAAKSNRB2PDYVCOnTokNxud9Sf4uJiBQKBae/r7e3VrVu3Yq69bGhoiHrWdBvEOJ1O1dXVqbe319ykJlEl8ngsgHF0MAEAQNpI1PFYl8ul06dPmyOrFRUVUd3E3t5e85zEkZERjY6O6r//+781Ojqqffv2yeFwyOv1Rj0z1vrJUCikYDCooqIi8zWPxyNJqqioUGNjo4LBYMKtu4xI5PFYAOPoYAIAgLSR6OOxFy9eNMddIx3HcDis0dFRZWRkmNdlZmbqk08+0dNPPy2n0zmvz8jJyVFfX58Mw1BfX58yMzMlSQ6HQ3V1dfrVr35ldk0TaeMZxmOB5EDABAAAaSFRx2MjwuGwfv/73ysvL0+7du2SNN5xvHXrlqTxXWAnioy+WsnhcOjo0aMJeVQJ47FAciBgAgCAtJCo47ER586d0xe+8AXdunVL+/btU2dnp27evKne3l498cQT896AZ/IazNraWv3hD3+Y8/3Dw8Pz/QqLivFYIDmwBhMAAKSFRB6PDYfDunTpkhoaGuTxeNTT06Nbt27J6/Vq48aNqqioMK8NBoNau3btrM+c7xrMyfXcvn37Ib6RtRiPBZIHARMAAKS8RB+PdTgcampqUlNTk/na6tWrtXHjRtXU1EiSamtrdfbsWWVlZU27I+xcxDoHUxo/8sTr9ZojuR6PR3l5eQ/xrazDeCyQPB5ZuXLlA7uLwMLduXPH7hIAYFFt3bpVkjQ4OGhzJUhmra2teuONN3TgwAEdOXLE7nIwT7t379ZHH32kU6dOpVQH88UXX9SVK1f06quv6sknn4zLZ65ZsyYun4P0xRpMAACQ8hJ5PBYzYzwWSC4ETAAAkNISfTwWM2M8FkguBEwAAJDSEn33WMyM3WOB5ELABAAAKY3x2OTFeCyQfAiYAAAgZdkxHhsIBFRcXBx1/mQ4HI7LZ8fi9/vNXWdDoZAOHToUdT6m2+2WYRi21TcTxmOB5MMxJQAAIGXFezzW7/ervb1dPp9Pubm5kiTDMHTu3LkpZ1Laqa2tTW63W9J46KyurlZOTo7q6urkcDhmvd/v9+vSpUtzvn6hGI8Fkg8dTAAAkLLiOR5rGMaUcClJbrc7ocLlZC6XS6dOnZIknTt3zuZq/g/jsUByImACAICUFO/x2IGBAe3atSsqXMbi8/lijs8ahqHa2lr19/eb70dGWyMmjt8eOnRIoVBIkhQOh1VbWzvtfbNxOBwqLS3VmTNnzGdOHvWNjNH6fD41NDTo7NmzKiwslN/vn/H6hWI8FkhOBEwAAJCS4jkeGw6Hdfv2bRUUFMx4nWEYKigokGEY6uvrUzAYjOoanj17VleuXJFhGOrp6dG5c+fMoGYYhvbt26fjx4/LMAy1tLToxo0bCofDamxsVGZmpgzDUH9/v27fvm0Gv7nKyMjQqlWrzO/zn//5n+rp6ZFhGKqvr1dra6tCoZC8Xq/q6+vl8XjU39+vkpKSGa9fKMZjgeREwAQAACkpEXePjXT3pPHR1M2bN0e9v2HDBh08eFCSlJubq127dikYDEoa75DW19dH3V9YWKgbN24oGAya9zkcDm3ZskXDw8MLrtPhcGj//v3m+sr8/HwzfFpx/WwYjwWSF5v8AACAlBPv8ViHw6HMzEwFg0EzAMZiGIYqKyujXisrKzP/d05OTsxNc2brkF6/fl1FRUVRr3k8nnntXjsyMqLHHntMDofD7IqePXvWfD8rK0v37t2Ty+WKWd98rp8N47FA8iJgAgCAlBPv3WMlqaCgQK2trdq2bVvMUBUKhdTa2hq1g+t810pOF2A3bNiglpaWBYU5aTwgnjlzRlu2bJHD4TDHa/v7++VwOBQIBHTs2LFp74+M+c71+tkwHgskL0ZkAQBAyrFjPDYvL085OTmqrq6OWntoGEbM9ZCBQGDOu7ZGNuFpb29XIBCQNB5Y+/v7tX79ekn/F6ql8WNE5rrJTigU0gsvvKDMzMxpd7vt7e3VyMjInJ63kOsnYjwWSG4ETAAAkFLiPR4b4XA41NTUpNLSUhUVFZnrLQcGBlRSUiKXy6WqqipVVlbK7Xaro6NDhYWFc36+2+3W8ePHtW/fPrndblVXVysvL08ul0stLS06c+ZM1BrPmUZ1IzW43W4VFRWpqqpKXq/XfH/Xrl2SpMLCQrndbv3VX/2VMjIyzPe3bdumYDBo7iI72/XzERmPTaS1swDm7pGVK1c+sLsILNydO3fsLgEAFtXWrVslSYODgzZXgmTR2tqqN954QwcOHNCRI0fsLgfztHv3bn300Uc6depUyncwX3zxRV25ckWvvvqqnnzyybh85po1a+LyOUhfdDABAEBKScTdYzE3jMcCyY+ACQAAUoZd47GwBuOxQPIjYAIAgJRhx+6xsE5k99innnrK5koALBQBEwAApAzGY5MX47FAaiBgAgCAlMB4bHJjPBZIDQRMAACQEhiPTW6MxwKpgYAJAABSAuOxyYvxWCB1EDABAEDSYzw2uTEeC6QOAiYAAEh6jMcmN8ZjgdRBwAQAAEmP8djkxXgskFoImAAAIKkNDQ0xHpvEGI8FUgsBEwAAJLVI95Lx2OTEeCyQWpbaXQAAAMDDiATM7u5udXd321wNFoLxWCB10MEEAABJK7J7LJLb9u3b7S4BgEXoYAIAgKS1ceNGDQ4O2l1Gwujo6FBHR4fKy8tVXl5udzkA0hAdTAAAAACAJQiYAAAAAABLEDABAAAAAJYgYAIAAAAALEHABAAAAABYgoAJAAAAALAEARMAAAAAYAkCJgAAAADAEgRMAAAAAIAlCJgAAAAAAEsQMAEAAAAAliBgAgAAAAAsQcAEAAAAAFiCgAkAAAAAsAQBEwAAAABgCQImAAAAAMASBEwAAAAAgCUImAAAAAAASxAwAQAAAACWIGACAAAAACxBwAQAAAAAWIKACQAAAACwBAETAAAAAGAJAiYAAAAAwBIETAAAAACAJQiYAAAAAABLEDABAAAAAJYgYAIAAAAALLHU7gIAAAAwf59++qkOHz6s+/fva8mS8Z7ByMiIJOlHP/qRLl68KEkaGxvTF7/4RdXX19tWK4D0QcAEAABIQo8++qhcLpeuXr065b27d+/q7t275s/PPPNMPEsDkMYYkQUAAEhSu3fvltPpnPEap9Mpt9sdp4oApDsCJgAAQJIqLCyc03Wf+9znFrkSABhHwAQAAEhiTz/99EO9DwBWImACAAAkMY/HM+2YrNPplMfjiXNFANIZARMAACCJ5efna8WKFTHfW7FihfLz8+NcEYB0RsAEAABIcnv27NHy5cujXlu+fLn27NljU0UA0hUBEwAAIMnt3LnTPAszYsmSJSoqKrKpIgDpioAJAACQ5NatW6fs7Oyo17Kzs/X444/bVBGAdEXABAAASAF79+7VsmXLJEnLli3T3r17ba4IQDoiYAIAAKSAnTt3amxsTJI0NjamnTt32lwRgHREwAQAAEgBGRkZ5o6x+fn5ysjIsLkiAOmIgAkAAJACHjx4oM985jOSpM985jN68OCBzRUBSEcETAAAgCT3/vvv67nnntPPf/5zSdLPf/5zPffcc3r//fdtrgxAuiFgAgAAJKlQKKSmpibV1NRoeHhYmzZt0r/+679q06ZNGh4eVk1NjZqamhQKhewuFUCaIGACAAAkobffflvPPfec3nnnHUmS1+vVa6+9pk2bNum1116T1+uVJL3zzjt67rnn9Pbbb9tZLoA0QcAEAABIIh9++KFqamr07W9/Wx9//LG2bdumt956S2VlZVHXlZWV6a233tK2bdv08ccf69vf/rZqamr04Ycf2lQ5gHRAwAQAAEgSXV1d5trKVatWqa6uTt/73vf0+OOPx7z+8ccf1/e+9z3V1dVp1apV5lrNrq6uOFcOIF0QMAEAABLc0NCQKisrdfLkSUnSnj179NZbb2nv3r1zun/v3r166623tGfPHknSyZMnVVlZqaGhoUWrGUB6Wmp3AQAAAJjeyZMnzY7junXrVFVVpe3bt8/7OatXr9axY8e0bds2tba2mqH14MGDOnz4sNVlA0hTdDABAAAS0Hvvvadnn33WDJcHDx5UT0/PgsLlRNu3b1dPT48OHjwoaXzs9tlnn9V777330DUDAB1MAACABBIKhXTy5Elzd9j8/HxVV1dr06ZNln3GkiVL9E//9E/avn27WlpaNDQ0pG9+85vavXu3Dh8+LJfLZdlnAUgvdDABAAASxDvvvKP9+/dHHT3y+uuvWxouJ9q0aZNef/31qCNNJn4+AMwXARMAAMBmw8PDqqmpUVNTk0KhkJ566in19PRMOXpksZSVlamnp0dPPfWUQqGQmpqaVFNTo+Hh4bh8PoDUQcAEAACwUXd3t3n0yMqVK1VXV6fm5mbl5ubGtY7c3Fw1Nzerrq5OK1euNI806e7ujmsdAJIbARMAAMAGQ0NDeuGFF/TKK6/owYMH2r1797yOHlkskSNNdu/erQcPHuiVV17RCy+8wJEmAOaETX4AIEV1dHTYXYIlnnzySUmp833Ky8vtLgEJYOLRI2vXrlV1dfVD7w5rpYyMDL300kvmkSbXrl3jSBMAc/LIypUrH9hdBBbuzp07dpcAIEFt3brV7hIQw+DgoN0lwEbvv/++XnnlFX344YeSxo8eqaqq0pIliTtUNjY2ptbW1qizOL/xjW/ob//2b22uLPm9+OKLunLlil599VXzl2mLbc2aNXH5HKQvOpgAkOJeeOEFu0uApFOnTtldAmz08ccf6+TJk3r77bcljR89UlVVpS996Us2Vza7yJEmkW7m0NCQampqtGfPHh0+fFirVq2yu0QACYSACQAprrKy0u4SIAJmOuvt7dXJkyd17949SdI3vvEN/cM//IPNVc3fl770Jb3++uvq7OyUz+fT22+/rff/P3v3HxVlnf6P/6n17kwn0hHbDQqokXXPSYx+jOt2QCWjlE0SHanIIEZgaBMYYgt3W3MUyGhjzxIzjK4DIgiZuogO4SYWKQqczRrLH7jn1JtmIzZ470kYFU9z+hT7/YPvfTc/YVBgBng+zvEkM/fc9wsCmeu+rtd1nTyJjIwMxMbGent5ROQjGGASERERjYHOzk6UlpbixIkTAIDFixdDrVZjzpw5Xl7Z9VEqlViyZAm0Wi1OnjyJ1157DSdOnEBmZiZCQkK8vTwi8jLfLfgnIiIimqCE0SMnTpwQR4+89dZbEz64FMyZMwdvvfUWXn31VcyYMQMnTpzgSBMiAsAAk4iIHBiNRphMJvFji8WCjRs3wmKxOB3r7jmLxQK1Wg2z2ezRNS0WC5KTk6HT6Ua8XqvVisLCQrfXsl3jcMfa0ul0kMvl17Qmmrp8dfTIWFm9ejUOHDiA2NhYjjQhIgAMMImIaAgWiwXZ2dk4cuQIoqOjIZfLIZfLERsbC7PZDKlUCoVCgaKiIlitVvF1UqkUycnJaGhoGPYaVqsVRUVFCAoKwieffGIX3Noes3HjRvH6tmsYTkdHBxYuXAipVIru7m7cfvvtbgfYG41G8fwAYDKZkJWVBZPJZHftkVyfpo5t27YhPT0dZ86cQUhICP785z9jy5Yt8Pf39/bSxpS/vz/y8vLw5z//GSEhIeJIk23btnl7aUTkBdyDSUREsFqtKCgogEKhEB8zm80oLi5GSUkJpFKp+LjRaMSpU6cQGBgIAJDL5Whra8OhQ4dQU1OD7u5uu3NXVlaKf9doNIiLi3O6bkBAALKysmA2m7F582bk5eXZBYESiQRbt27F1q1bXa59KGfOnMHSpUsBDDZbqayshF6vdzouJiYGmzZtQlxcHEwmE9ra2uyet1271WpFcXHxkNelqaOlpQWlpaX417/+BQBITExEdna2T48eGQtLly5FVFQUSkpKUFNTg927d4t7MxctWuTt5RHROGGASUREkEgkyM3NhUajQWBgIL777juYzWb88Y9/hEajQU5ODmbNmoXs7GwsWLDAKdDLysoCACQkJHh8TSE7umDBAvH1MpkMeXl5LoNMV3Q6nRjA1tbWio8LwaDFYkFHRwcUCgXMZjP6+/vR1NSE7du3IyEhYdjzEw3l8uXLKC0tFUeP3HvvvVCr1eM2z9AXTZ8+HTk5OeJIk3PnzuHll1/GypUrjjMokQAAIABJREFUkZmZiRkzZnh7iUQ0xqbWrTUiInJLKpVCq9Vi3rx5mDt3Ll555RUEBAQgOTkZ8fHxyM7ORklJiRgMAj/tU9y4caPbTKKr/ZhGoxHR0dFQq9V25wMGg0ytVostW7YMu/8xKysLra2tiI+PR21tLUwmEzQajfh8c3Mzurq6YLVaUV5ejmXLlkEikbg8l20Zbnp6OiorKyGXy5GcnCyOlyASHD58GE8//bQYXGZmZqKysnJKB5e2HnzwQVRWViIzMxMAUF9fj6effhqHDx/28sqIaKwxwCQiIie2wVZbWxtMJhOqqqrsSmWBwQCvtrYWfn5+ACDuVbTdR1ldXY3o6GgxW6jT6dDZ2SkeCzgHoVKpFFVVVQgJCUFycjKam5ud9kB6EtjW1dUBAP79738jNDRUvF5/fz/i4+PtztXe3o6tW7fCZDJBqVRCqVSKn/esWbNG8atLE1lnZyc2bNiAgoIC9PX1YfHixfjb3/42Iedajod169bhb3/7GxYtWoS+vj4UFBRgw4YN6Ozs9PbSiGiMsESWiIhEQlCmVqtd7nm0WCyorq6GSqVymQmUy+VobW1FQUEBtFotoqKiAMBu36VjxnIocXFx4mtNJhNMJhO6urrszmexWNDf3y8GgZ2dnQgJCUFzczOioqLQ0dFhF1wCgJ+fH2pra12WyJrNZjQ2NqK7uxshISF216Kp7e2334Zer8fAwABmzJgBtVqN1atXe3tZPm/OnDkoKSnBwYMHodVqceLECbS0tCAjIwPPPvust5dHRKOMGUwiIhIdOXIEUVFR6OvrQ3JyslPGMDo6GpWVlYiMjHSbPRQa8igUCuj1+lEbvG61WtHW1oZf//rX2Lhxo5gl7evrg5+fn13AGxQUhO+++w6PPPLIiK9z7NgxJCYmIj4+HqdOnYLRaByV9dPEde7cOfz2t7+FTqfDwMAAYmNjUVtbOyWCS7PZjMLCwmGbaXli9erVqK2tRWxsLAYGBqDT6fDb3/4W586dG4WVEpGvYIBJREQABjOEN998M2bPno1Zs2ahqqoKGo1GLBU1mUxoamqCUqlEa2srtm7d6jKLaVv62trailOnTo3KSI/u7m7cc889CAgIQFpaGs6cOQNgcO7gvHnznNaSkJDgVNI7HKPRiKtXr2Lu3Lnw8/NDbm4uOjs7R+XNNU1M27dvh0qlwmeffYbg4GAUFRUhLy8Ps2fPBvDTDFdXJdzCH9u9xLajcIb7k5yc7HL+rMlkGrI83FNDzbgVyGQy+Pn5obGx0e0xQkm944ghk8nktI969uzZyMvLQ1FREYKDg/HZZ59BpVJh+/bt1/W5EJHvYIksERGJ2cGkpCQ0NzeLjwsjO3Q6ndvS1t7eXvT39+PLL7/Ehg0bsHz5crs3msK+xi1btjiNPBnJ+hoaGpCUlASj0Yj8/HzMnz8fjzzyCJqampCTkzOi8wl7MG1pNBp89913SEpKQkdHB4DBvaDCHEyaWlpaWqDX68UbI4mJiVCr1bjhhhucjg0KCnL7ve048sa27Nv2GK1W6/HPR1tbGxYuXOi2YRVg32EZAAIDA6HT6UbUmdlRfn6+3ccGgwFyuRzd3d3w8/NDWFiY+JzVasXRo0fddpZ+5JFHxE6zNTU1qKqqwokTJ5CRkcGRJkQTHANMIiKCRCJxG0AK2RRgsBy1v79ffE54YxwUFISmpiY0NDS4PUdVVdU1r6+7uxuNjY2orKyERqOByWSC0WjEmjVroNFoxDfNVqsV/f39ww62H2oPpjv5+fl2b7ADAwNHNJaFJoZLly5Br9ePaPRIV1cXoqOj3T6vVCpdPi6M6jl//jxiYmJw5MgRvPfee06BprugzzHgE2g0GmRlZYk/08Lc1o6ODmRlZTnNqj1y5AiUSqV4vBA4ekK44QP8NCrIYDDA398fra2tduOD5s+fb/e53XDDDcjJycGSJUug1Wpx/vx5caRJRkYGZs6c6dEaiMi3MMAkIqJhmUwmpKenAxh8syxkTs6cOYMtW7ZAJpOJI0uGYvsmdiRkMplT8BoUFASlUom4uDiYzWbxjXNMTAwCAwNHfI3hCLM1gZ/esNPkcvjwYej1evT29gIYHD3iSXfYkWQwgZ8Cy4sXL4olpHv37sWqVasQExNj95xMJrMLFnU6nUfNp4xGI4KCgiCXy8UbLwsWLLD7ObJYLCgqKkJubq7bzKnwvS7MjbVarSgoKIBCoRB/3m1/NoQ9yw0NDcjLy7PrFF1UVOTyGsINqF27dolzRYUmQCtWrBjy8yQi38MAk4iI7Lh64+o4ekSQkpIi/t32TfBICTM4R8I2s+oqABXO69gJVyKR4JVXXvH43K4+9uQcNHF8/fXXKC0tFcvDFy1aBLVajdDQUI9e72kGUwjOurq67AJS2/3JwogeIQhVKBR2nZSFTKar7KVthjAqKgpFRUUIDQ0VG2EJeyWHCiiFdRYWFopBpZ+fH86ePSsGmFeuXBmySkAIqD3NggrWrVsnZjNbWlpQUFCAEydOIDMzE8HBwSM6FxF5DwNMIiIimrL27NmD0tJSDAwM4NZbb4VarYZCofD49UJA6Amhw7IjmUzmdMPC8bxmsxmbN2+2yxbacswQSqVSKBQKFBUV4fHHH8e8efMQEBAAhUKB6urqIW8GSSQSu6AyJCREnFvZ0dGBW2+9dcgqgYiICPj7+6OwsBA5OTlD7hV1FBoaipKSEtTV1UGr1aK5uRknT55EZmYm1q5d6/F5iMh7GGASERHRlHP+/Hno9Xp8+umnAIAVK1YgOztb7A7riaEa4rgiBIe2Jd3uxMTEYNOmTZBIJDCbzSguLoZCoXDaC2xr/vz5dh/L5XK0tbVBrVbDYDAAAMLCwnD06FGYzWZxdqwrERERYiYyKCgIp06dgtVqRVdXl1ODIcc1GQwGyGQyLFu2DM8//zxKSkqG/+I4UCgUYhOghoYGaLVanDx5EhkZGU6fJxH5FgaYREQ0Ibja+wUMlg3W1dWJb8aJhrNt2zbs3r0bABAcHAy1Wn1NM1NdlYV7sq8RGAygbEvMbZnNZuzduxfATx2U8/Pz0dzc7HEGUxAbG4uPP/5YLGmVSCRYtmwZzp49i6ioKKfjb7nlFvj7+2PWrFmoq6uDxWKBv78/rly5AovFggsXLjg1t3K1BxMYDHDVajWqq6uRlJSEgICAEf2MCiNNhLLZTz/9FGlpaXjuueewfv16j89DROOLczCJiMiOq9l4Ixm27slsPYFOp3Pa22k2m1FRUWH3mBBcHjlyBOnp6eKeyOeeew6bN2/GkSNHEBkZKT7ubkag0Wh0msvnbl22b5SFdY3WwHnyjpaWFjzzzDNicJmYmIgDBw5cU3Bpy2g02n2/CHsy3c3CHAmhw7MQrObn57ucmRkdHY2uri6711qtVpSXl+NXv/qV3R5luVzuMki1Wq24evUqZs2aJZbJ9vX1iZnO8+fPA8CImmjJ5fJr3pstiI6ORl1dHRITEwEAu3fvxjPPPIOWlpbrOi8RjQ0GmEREZKejowMBAQHo6Ojw6E2xMDJkKI5vwAWxsbEoKSkRm5xYLBYUFxdj6dKldseVlZUhICAAJpMJSqVSHFWyZs0aqFQq8XGlUgmTyYStW7e6zJRERUXhk08+GXKupcViQU9Pj1N2p6GhAcuWLWOWdAK6fPkyCgsL8fLLL8NsNmP+/PkwGAzIyclxOddyJMxmM8rKyhAUFCQ+JoztMZlM4p/rDbIEwve+45+mpia7NQBAY2MjACApKQk9PT3DznPt7u5Gf38/JBKJ3T5MoQnX1atXMW/evGv6GXAccTRSwkgTg8GA+fPnw2w24+WXX0ZhYSEuX758zeclotHHElkiIhLZDkcXRjUMRy6Xo6urCzqdzuWbaCFItR2z4LhvLT4+3u7j1tZW8e/CaBOLxYLk5GQxi2K750v4e2BgIGJjYyGTyexGqzhy9biwR0147siRIwAG39ALgem1DK4n7/r73/8OvV6PixcvAgAyMjLclqaOlMViwZYtW/Diiy9Cq9WK+wY9UVdXB71e7/b5mJiY61qbUDoudJVNS0vDsWPHhuzs2tDQYBdA2v48W61Wl+WxgOs9mI56e3uvK8AUCCNNKioqoNfrYTQaxZEmjz/++HWfn4iuHwNMIiIStbe3o7+/H4GBgWKA6WqQuuPA9Li4OBiNRphMJrvRDkaj0Wlm3/WMMxlq3qCr2ZSezt20zdTavsZkMqGrqwvNzc1QKBRiV0/OwfR9XV1dKC0txfHjxwEAkZGRyM7O9nj0yHCEMSJqtRpyuRyPPvoodDqdOK5EuEFhy3avoqd7MIdje8NGqVRCKpWKN4q2bNki/qzIZDK7OZa2N1CkUqmYuU9KShqyeZHwb4DwWsfPy7ZSwfE8BoNh1CoAUlJSEBUVhZKSErS2tiI/P18caeKYySWi8TVtxowZ//X2Iujaffvtt95eAhH5qIceeggAhi2LEwhvPAHg3nvvFRuGKJVKxMbGYu/evcjJyYHVahWbmEgkErs3q0MRumICcPkapVIJlUolDnUHIF5TIpGIb+iFDKYrtllFYcC9pwFmREQEANi9xmQy4ejRowBgN27Bcfi8J4TM0T/+8Q+Pjqdr5zh6JCsrC2vWrPH2smiMHDhwAFqtFv39/Zg+ffqEGmmyfv16nD59Gtu2bcODDz44Lte87bbbxuU6NHUxg0lERAAG92t9/fXXuOeee7Bq1SrMnTtXDLZsB8HbEub6uZrtZ8tisaC6ulr8OCAgAE1NTWJ2RQgGhzOSDKZcLkdoaKhdWa0rjkGpo3nz5iEqKgoFBQXDdgYl73IcPRIbGwu1Wj2i0SM08axZswZRUVHQ6XQcaULkAxhgEhERAOC7775Ddna2mLEbSz09PWIpoUCpVA77OqE7pzuBgYF2e8Qch9V7orKy0q6sTyghTEtLg1qtRl5e3oi6aHrD9Onj18NvYGBg3K41lO3bt4v/r4OCgqBWq4f8XqHJ5bbbbnM50iQ5ORkvvPCCt5dHNKUwwCQiIgBAQkKC20wlAPT392PDhg1obW0V93oB9ns0h2LbtGQ8MphDNflxRaPRICgoyOUeTGBwD1teXh727t2LF154AX5+fkMOqve26+2O6glfCC5bW1uh1+vx5ZdfAgCeffZZqNVq3Hgj3+JMRdHR0YiKioJWq8Xbb7+NqqoqMZsZGRnp7eURTQn815eIiDzi5+eHTZs2OTXpiIuLczlTz5Zjiex4ZDDlcrlY8ioMoRdKXIU9l44dNYfbryqTyfDKK6+M6yzMH3/8cVyCxYnmypUr0Ov1OHToEAAgLCwM2dnZQ3ZJJc9ZLBZoNBrk5OSMqFOy0WhEZ2fnkHufPdlPLfC0UZetG2+8Eb/73e/EJkDt7e146aWXsGrVKmRkZODWW28d0fmIaGQYYBIR0YgJXS5tG9+MxLVkMIVyV1fXHm49wmxPd/snhZEOsbGxHq3farWip6fHo2OvVWtrK959911YLBb89a9/va5zjWWw4A2Oo0fWr1+P1NTUUTm3Y5fVyT6ORqfTISQkBMuXL3fZfMt2ZJAjx+DParXi1KlTUCgUQ17TVem6402g0SCXy7F7927s3LkT27Ztw6FDh8RsJkeaEI0dBphERDQsIXMnOHv2LObNm4f29naPy1A9mesnkUjE69iW67oam2A7LsHxMaFjrUQigdFoFOcButPV1YWAgADcdNNNLvdgOurr68OVK1eG/XxG6uzZszhy5Ii4D7a/v/+axmpYrVa8/vrr4xIsjCfH0SOLFi1CVlYWfvGLX4zK+c1mM7KysqBSqcTGVUL2XaVSjdqIDV9k27BrJF2SXf1sDtVV+loyktcrNTVVbALU0tLCkSZEY4wBJhERuRQWFoa6ujqXJYe2czA9GYPiWCIrEN7Qd3d3i4Gc7Z5OjUYDiURiNzvTVVbNVQZTOI9Go3HKlkRERDgFxsJweHd7MB33mgrNf67XV199hQ8++AD19fW4evWq0zD6a2nYM17Bwng2UNmzZw/0ej1+/PFH+Pn5Qa1Wj+roEYvFgi1btkClUtmVfEulUp/L4I41YR7u3r17Xd7IAX66iWP7sylkQ4crmfeGX/ziFygpKRFHmhw/flzMZk6UkSZEEwXnYE5wnINJRO6MdA6mr7MNGB3fwF5vye54sJ2D2dvbiw8++ACHDh3CN998g4GBAXz//fcuXzd37lyXwflQpk+fLu7bFMp//fz8hg0WbL92ngQLAwMD+PHHH0e0tpFqb2+HXq/H6dOnAQArVqyAWq0e9Vl+JpMJWq3WbRMp2+Nsb07Y3pAQSpFXrlyJt956C93d3YiJiUFubi6KiorEYN1gMEAul4vluEuXLkV1dTXOnz8v3ryprq4Wg33H73nbGwGO2frOzk6EhITY3aSxfa3tjZKYmBj4+flh3rx54jHDlVMLN4Xy8vLsbj6ZzWYUFxcjPz/frgFYUFCQR/tix6JE1p1vv/0WWq0Whw8fBgA8+OCDyMjIQFhY2Jhe1xXOwaTJiBlMIiKaEIZqJuRYwuuL/vvf/2LatGl44YUXcPbsWUyfPh3/7//9v2Ff19vbi/Ly8hFda86cOVi+fDksFguqqqrEYMHxayQECwqFwi64NJvN+OKLL5CUlCQ+5ipY+Ne//oXGxsYRrW0kfvjhBzGQuvPOO6FWq/Hoo4+OybW6urqwYMGCYYPLzZs3o7a2FjKZTAwQdTqdGGReunQJx44dQ21tLaxWK7Kzs5GYmAidToetW7fCaDSKgazwNa+urhY/LigoQHR0NAwGA7KyssRrhoeHi7NaIyIikJWVJTbLaWxsFH82KisrodFoYDKZnF4rlIsL+5+FYNm2DLy6uhqXLl1y2SFZOF4IkAVWqxXl5eVITk4eNjgcrsGPq4z5aJfV3nbbbcjPzxdHmpw+fRqpqalQKpUIDg5Gd3f3qF1rOON5LaLxwgCTiIhoHEybNg0A8OmnnwKAx5m/ixcvjjjAjI6OxvLly8c8WDCbzSNem6ckEonYrXft2rVQq9X4n//5nzG5liesVivq6uqgUqnEzJ5EIkFaWhqKi4thsVjEY4WAXSKRYMGCBQAgviY8PBxNTU1251YoFOLXeuHChQAgZtNCQ0MxZ84c8Vjb/1dSqVQ8vyAmJgbLly8Xz3Hfffeht7cXgYGBOHXqFNRqtXgtuVxu173ZZDLh448/dvn/XbhZIQTXthobG9HV1YU777wTGzdudFtWLWRbXc2mHc8MpuDRRx8VR5rs2bMHlZWVdt93RHRtGGASERGNAyGD+cADD4wogzl79mysXr16RNeaM2fOuAQLiYmJSEtLG9HaRkLIYO7ZswfNzc1jmsEMCgrCqVOnYLVahyyzdtUUxmKxoK+vD7NmzcLMmTPh7+8/5LWE4wMDA92e09alS5fQ29srZjAd9w/bBokBAQEu12+1WnHlyhW3a7NarWhra0N+fj7KyspQV1cHvV7vdJxtoyilUomIiAjk5+dj/vz5dnt/gZGVyHrDBx98AK1Wi3//+98A4JUMpkD4XiCaDBhgEhGRHcemMEajEQAQFRWF7OxsqNVqpzeMtnsgrVbrNWUidDodALgthRtJsxpHrvaHuTtOaDrkyHav27WsRchgbt++fUR7MP39/UccxH3//feoqKgY82BhYGBg1Dq4urN48WJxD+bvf//7MduDGRoaiq6uLrS3tw8ZEHV1dTk9L5VKXWaJR5vFYoFWq7XLOgs/N56wDVSBn8bthISEiM20hEysQqFASkqK3bUdu+kKPwcGgwF1dXWj9WmOOV/ag0k0GY28NR0REU1q7e3t8PPzcxk4/elPf4JWq3VqHCSMLfG0wY7RaIRcLrf7I4wHcXx8JG+g3ZHJZEhOTkZRUdGQ5W8ymQwNDQ2ora1FZGQkmpqaxL1sW7duRWNjoxhwXw9/f3889dRTYllecnIybr/9dvj5+V33uQGIwYIQTCsUCvHzMJlMaGpqglKpRGtrq/iYSqXC0aNHYTAYfGp0Q1hYGLZt2wa1Wo0bbrgBhw8fxpo1a3DgwIFRvY5UKoVCoUB6errd97fFYhG/BxUKBcrKysQROkI5cXR09LiVddoym80e74EVymnr6urEn4HGxsYhuwQPRxgrdC2jdLzlwIEDWLNmDQ4fPowbbrgBarUa27ZtY3BJNIqYwSQiIjttbW2IiIhwelx4A+1qQHpdXR3Onz9vN8bD8Y2rY6MOobulyWRCW1ub+NxIs4OO40MCAwOh0+mcXiuXy9HV1WXXEMWdhoYGJCcnQyKRoLCw8Jqypp66++67kZqaitTUVJdzMAcGBsbkuo6EYMF2L6EvWbt2LZYsWSLOwXz99ddx4sSJUZ2DGRcXh/DwcLssttDVVSKRQC6XIy8vD/Hx8eJrXHU1HitSqRRqtVoskY2JiUFkZKTHr1epVCgoKBBfo1Qq7cprJ7P//d//FedgAsDDDz/MOZhEY4QBJhERicxmM/r7+2G1Wp3KAG2DOOCnN9bNzc1QKBRi4Olps44PPvjA7pyO8xeFkRpCh0vhWOFxIZAE7Mc+FBcXD/k51tXVISoqyu3ahAyl8PknJCSI5b9jLTw8HOHh4diwYQO+/vprmEwmnD17dsyvO1EEBQXhjTfewN///nfo9Xq0tLSgpaUF69evR2pq6qhcQ8hiuyOXy92O/pFKpdBqtXaPOZZ8y2Qy7N69W/xYKEEWOHZLlkqldjd1hrq+Y6ArlDk7fux4zaHY3sBRKpVDVim4K8W2ZXujSejCK9yMUiqVY5IJ3rlzJ7Zt2wZgcE9zRkYGHn/88VG/DhENYoBJREQAfir3A+zfxBqNRtxyyy04duyYU9BosVjQ2dkJlUo14us9+uij0Ol0Hmcwly9fLj4eGBiIsrKyEe17s1qtOHXqFGbMmIHm5maXWSfhmCNHjjgFvPPmzRvx53g9goODERwcjFWrVo3aOUc7WEhOTsYLL7wwauvz1OOPPy7uzTx06BC2bduG5uZmZGdn+2xDmYlCKpXaBaBDjQdy9RrbfZvDuZaAdyRMJhNKSkrQ3t4OAFi1ahUyMjJw6623jsn1iGgQA0wiIgIwuB/r66+/xj333GP3eGdnp9NjAqlUOirz6YT9l4LAwEAkJCRc93ltdXd348qVK3jppZdQVlbmMos51Bve7u5unDp1alTXNNbGOlgYGBjweNzKaLv11lvxhz/8QQw029vbkZ6ejmeffRZqtRo33si3OFPVDz/8AK1Wi7fffhvAYFfljIyMEZUTE9G147++REQEAPjuu++QnZ0t7v8DBjN6/f39bjOFjvsfbblqHuJqv9pQJX+jqaGhAdHR0bj77ruxcOFCt1lMgW1nXIlEMuHGCHgr8BtvkZGRiIyMxPbt21FVVYW3335bHGkSHR3t7eXROGtqaoJWq0VXVxcA72XZiaYyBphERARgcK+h0B1TIDQ6ufPOO12+xjYj5rj3UtjL6CqIE7KiycnJOH/+vMtzOzbrGS7YHYrZbMYXX3yBpKQkAIMjV4qKipyymK7GlAh7PpVKJUJCQkZ8bW8Yr8ZAvuSFF14Qs5mffvopNmzYgNjYWGRlZY36SBPyPRcvXoRWqxX3zz7wwAPIyMjA/PnzvbwyoqmHY0qIiMithoYGl+NHTCaT0/iQvr4++Pn5DTuqRAgUQ0NDUVVVBaVSCYPBII7LaG1tRUxMDFQqld0ezI6ODgAQ51D29PR49DkIe0uTk5PFYFIqlWLhwoWorq62O1Zo8GIymVBbW4v4+HhxlMdolALT2Jo/fz62b98OtVqN6dOno6GhYUxGmtDoqaiocLqxNVLC6JGGhgZMnz4darUa27dvZ3BJ5CUMMImIyCWTyYRPPvkEUVFRLp+3zeYJQdyyZcvcBphmsxkVFRVOmcisrCy0tbVBp9PBbDYjPj4eCoXCKfPZ1taGhQsXejxrU1BWVoaAgACn5i/Lly9HT0/PiOZaerKHkbxv7dq12L9/Px5++GH09/fj9ddfh1qtFm9SeMpkMo36TFZfZTaboVarxTE1RqMRGzdudJobazab8dxzz113UDgaOjo6oFar8frrr+PKlSt4+OGHsX//fqxdu9bbSyOa0hhgEhGRE4vFAq1WC7Va7XJsgLC/STj2+eefdxnE2ert7cXVq1fR3NyMgIAAp/NWVlYiPj4es2fPdhrc7hjsOmZL09PTIZfLERkZidbWVgCDQe/GjRvR09PjssutRCJBbm4u6urq3AaZra2tiIyMhFwud/lmm3yXMNJEo9Fg9uzZaG1txVNPPYWKigqPXq/T6aDVatHU1CRm10NCQsZlv/BkMNaBaEVFBZ566im0trZi9uzZ0Gg0eOONNzjXksgHcA8mERE52bVrFxQKhRgwSqVSBAQEiE1ThOHzOp0On3zyCUpKSpwCxqCgIKSnp9s1ASotLcXx48cRFxeHjRs3io2ADAaDWIJqsViQnZ0t7s1MTEzEt99+K2aghCHzGo1GDDBdzcEUMpdDlbZKpVLs2LEDBQUFdmsGnPeAAvZ7NGNiYiZc45+p6PHHH8eiRYug1+thNBqh1+vFJkDubogYjUaX39fMXjvP8RwJnU7nNP4HgNM4HFc/ewKTyQStViv++xAXF4eMjAzMmDHjmtZERKNv2owZM/7r7UXQtfv222+9vQQi8lEPPfQQADDj4iOEYOYf//iHl1cydbW0tECv14tZtcTERKjVatxwww3iMVarFQUFBVi4cOGQAaVwnHCTxDEoMhqN6OzsBAAxqDIYDAAg3sSIiYnBpk2bIJFIYDKZUFdXh3vvvRdFRUUABm+ihIeHizc1hBs7QtDr2JRKuNFisVig0WiQnJwsBmOOr3W8kZObm4u2tjbk5+eLTbpOnTolrk9gNpuxefNm5OXlQSaT2Z1HuIbtjSDbz7OsrAwRERF2gX1FRQWWLl1qF0y6euzHH3+EVqtFTU0NgMFANyMjA4sWLXL/P5xcYtMrGmvAnHzsAAAgAElEQVQskSUiIqIpYdGiRXjnnXfw3HPPAQBqamqgUCjQ1NQkHmO1WnHlyhWEh4e7PY8QXAYEBIjls3l5ecjKyrIrCa2srERERARMJhM0Gg3S09PR1tYGk8mEpqYmdHV1obGxUTz+yJEjuPnmm2EymWAwGJCfn4/y8nLU1taitbUVQUFBYmMqq9WKjz76CLW1teL5tVqtuIfy0qVL0Gq1KCkpcXqtEBQqFAqxsda5c+dw6dKlEX09rVYrioqKxPOUlJSgvb0dcrkctbW1CAsLQ21tLbZu3TrivdO2PvzwQ6xZs0YMLp977jm88847DC6JfBQDTCIiIppS1q9fj/LycjzwwAPo6urChg0bsHnzZly8eNGj17e3t6Orq0scewMMZqiXL1+Os2fPio/FxMQgLCwMABAeHo6wsDDExsYCGCzPXrBggd1558+fL+4zDg0Nxfz586FQKCCRSCCRSLBw4ULxWIlEgoSEBDFwCw8Px8yZM+3OJ+yhlkgkUCgU6OnpgdVqRUdHB4KCgrB8+XLxXGlpaU6v95SQqZVKpYiMjLymc7hy8eJFaDQa5Obm4uuvv8YDDzyA8vJyrF+/ftSuQUSjj3swiYiIaMoRRprs2bMHpaWlaGhoQHNzM1544QXceuut6O3tdbkHUBAUFOQyKycEWwAQEBAwbObO9nh357QlBIkA7Ep0gcEy3b6+PsyaNQszZ86Ev7+/y3N0dXV5tLbhCI2ysrOzIZfL7Up+3bEtnRW42oP5ww8/YM+ePbhy5QqmT5+OzMxMdoclmiCYwSQiouum0+nEvZ6Oox2EP8LzFosFGzduFEv5bF9vNptRWFjo1K3VaDS6PKfj6AhX5yYaytq1a7Fv3z5ERUXhypUrePPNN9HR0YHdu3cP2TW4q6vL5fO243vGklBaK8xpra2tdRtQumIbqAKDXZ5HWiILDGYtq6qqxO7NZWVlQx5vO/PWZDIhIyNDLPM1mUzYv38/brrpJuzYsQNXrlxBVFQU9u3bx+CSaAJhgElERB6xWCzQ6XR2/xUe7+npEUeLCMGk45tI4c2vVCqFQqFAUVERrFar0+tdiYuLE/eKKZVKu9ERKpUKhYWFHo1D8CQANRqNMBqNMJlMk3ruIf0kODgYf/rTn7Bp0yb4+/vjiy++QEtLC9atW2cXhAnfF2FhYXZ7GoHh58aOtYaGBvT29np0bHh4OM6cOYP29nYAP40lGimLxYK9e/cCgFMJrytZWVlDjjLatWsXnnrqKXz11Vfw9/fHpk2b8Kc//QnBwcEjXhsReQ9LZImIyCPCkPq+vj709/eLZXB9fX0IDQ1Fc3MzAOdRDhaLBVevXrUb6SGXy9HW1ibuZTty5IhdqV9tbS0A586cwhtiV7M5HZlMJpfleADsriUwGAwICwvDhQsXkJCQgIaGBkRERAx7HZo8VqxYIY40qa+vx+eff263p1Cj0YgB0qZNm1BQUCB+7NildawtX74cp06dEteXm5vrcQZTJpMhLy/PbiTPiy++iPr6ervjHH8uY2Ji7PadSqVS3HzzzU5fA+Eav/rVrxAfHz9s6eyFCxeQl5eHc+fOAQBWrlyJjIyMa94TSkTexTElExzHlBCRO6M9pkSn0yEiIgJdXV0AfgokdTqdWBZ48eJFNDc3i6MPHCmVSru5lMI4hZycHMhkMpjNZuzduxc5OTku34w6ztGLiYlBbm4utm/fjoSEBMyaNQtFRUXIzc11+UbfYrEM+3x1dTWSkpLE/45WwMAxJROLJyNN6Pr8+OOPSE9Px2effQaAo0fGC8eU0FhjBpOIiDwiBIa2JW5msxmNjY1QqVQAgNmzZ2PHjh0oLi5GQkKCyyYpQpAoZDU8Lc0zm8344osv0NTUBKlUKgaj7jjOKbTl+JiwFqlUKn6etoEwTT2LFi3CokWLsH37dlRVVaGmpgbNzc1Qq9V45JFHvL28Ce/DDz+EVqvF119/DQBITk7GCy+84OVVEdFoYAZzgmMGk4jcGe0MpivCHkXbxiZBQUEuS1Nty12F4FAmk4lD5d0Rsp5CBlUIcI1GI4DBUkEhoL3eDOZYYgZz4jp37hz0er2YaYuNjYVarcbs2bO9vLKJ5+LFi9BqtWhoaAAA3H///cjIyMC9997r5ZVNHcxg0lhjBpOIiK6J1WrFz372MwQHB4s3uy5evIimpibU1tYiMDBwyEwmAKxatQoJCQl2gV9HRwfa2trsMogmkwk9PT3iTEGLxYKmpibk5OS4XZ9jOa0tV1lNx/JdIsG9996Lv/71r3j77beh1+vR0NCAEydOQK1WY/Xq1d5e3oRx8OBBaLVaXL58GdOnT0dGRgaeffZZby+LiEYZA0wiIromwqB32wzp7NmzxZLXoUY8OOrr64Ofn5/TvkuTyYS2tjbccsstSEtLQ2NjI/Lz8wEMBoQymcztdbKysuwCRtus6dy5c8WMopCFZXBJw3n22WexePFilJaW4sSJE3jttddw/PhxZGdnY86cOd5ens/68ssvodVqcfLkSQDAkiVLkJmZOW4jXYhofDHAJCKiUXPhwgWUlZWhu7tbfEzoCAv8tNfRlsViwZYtW6BQKJwCzK6uLoSEhIgNhWQyGYKCgqDVau26WQ7HaDTi1KlT4rULCgrEMl6DwTDk6AQiWyEhIXjzzTdx+PBhlJaWoqWlBS0tLcjMzMS6deu8vTyfs2vXLpSWlgIAZs2ahczMTKxYscLLqyKiscQAk4iIRs28efPwyiuvABjMGGZlZUGlUjmNLunt7UV/fz++/PJLbNiwAXl5eWKQ5+/vj8bGRlRWVor7NgVmsxmbN29GXl6euIdSIpGI13ScbymsITIyEn5+fuLxW7duRUBAgF3ZLdFIrFixQsxm1tfXo7S0VGwC9OCDD3p7eV53+vRpaLVau9EjmZmZmDFjhpdXRkRjjQEmERGNCtsg0mg0oq6uTuy8qdPpxBJUk8kErVaLoKAgNDU1ic0+BDKZzOkx4Zz5+fkeZxx1Oh16enpQW1uL7u5u7N27Vwxo77vvPmzatAnd3d2Ij49Hd3c392DSiM2YMQN//OMfsWTJEpSWluLcuXNQqVRITExEdnY2pk+f7u0ljruBgQGUlJSgpqYGAHD33XcjMzOTo0eIphAGmERENCpsx4JoNBpUVVUBGAw8TSYT5HI5YmJicNddd2HLli2QyWQwGo3DBotKpRKxsbFoamoSR5Q4sm3oo1Qq7caNAIMZ09raWvT396O2tlYsxXUXzBKNhDDSZNu2bdi9ezdqamrEJkBLly719vLGzbFjx6DVatHZ2QkAeO6557B+/Xovr4qIxhvHlExwHFNCRO6Mx5gS8hzHlEwNZ8+ehV6vx5kzZwAMjjTJzs6Gv7+/l1c2dnp7e6HVavHuu+8CAO677z5kZGQgPDzcyysjVzimhMba1KvdICIiIhoj4eHh2LFjBzIzMzFt2jQ0NDRgzZo1OHjwoLeXNiYOHTqENWvW4N1338W0adOQmZmJHTt2MLgkmsIYYBIRERGNssTEROzbtw9LlizB5cuX8dprr+HFF1/El19+6e2ljYovv/wSL774IgoKCnD58mUsWbIE+/btQ2JioreXRkRexgCTiIiIaAwII01effVVzJo1CydPnsSTTz4p7heeqHbt2oUnn3wSJ0+exKxZs/Dqq6/izTff5FxLIgLAJj9ERJOewWDw9hKIprTY2FgsXrwYer0e9fX10Ol04kiTBx54wNvL89inn34KrVaLs2fPAhgcPZKRkYGZM2d6eWVE5EvY5GeCY5MfInJHaPJDvoVNfqa2kydPorS0FF999RUAICkpCWq12qdHmgwMDECr1aK6uhoAcNdddyEzMxOLFy/28sroWrDJD401BpgTHANMInKnvLzc20u4bj/88IOYLQkPD8eNN078wpu0tDRvL4F8gF6vFwO2kJAQnx1pcvz4cZSUlIijR5KSkpCRkeHlVdH1YIBJY40B5gTHAJOIJjshE8vMH002jiNNnnjiCajVap8YacLRI5MXA0waawwwJzgGmEQ02THApMmupqYGer0e//3vfzFjxgxkZ2dj1apVXlvPoUOHUFJSgsuXL2PatGnIyMhgd9hJhAEmjTUGmBMcA0wimuwYYNJU0NnZCZ1Oh5MnTwIAlixZArVaDZlMNm5rMJvN0Gq1OHHiBABg8eLFyMrKYnfYSYYBJo01BpgTHANMIprsGGDSVPLuu+9Cr9fDYrEAALKysqBUKsf8upWVldDpdAAAqVSKjIwMPPHEE2N+XRp/DDBprDHAnOAYYBLRZMcAk6Yai8UCvV4v7n8MDw9HdnY27r///lG/1meffYaSkhKxmdYTTzyBjIwMSKXSUb8W+QYGmDTWGGBOcAwwiWiyY4BJU9WJEydQWlpq18F1tEaaOI4eCQkJQWZmJpYsWXLd5ybfxgCTxprvDl0iIiIimsKWLFmC/fv3IykpCQBQXV2N+Ph4HD9+/LrOe/z4ccTHx4vBZVJSEvbv38/gkohGBTOYExwzmEQ02TGDSTQ40qS0tFQsZV25ciXUajVmzZrl8Tn6+vqg1WpRX18PYLD0NjMzk6NHphhmMGmsMcCc4BhgEtFkxwCT6CfV1dXQ6/UAgJkzZ0KtVns00uTQoUPQarW4dOkSACAjI0PMjNLUwgCTxhoDzAmOASYRTXYMMInsffXVVygtLRVHmkRFRUGtVuPuu+92OvZf//oXtFotmpubAQyOHsnMzMRdd901rmsm38EAk8YaA8wJjgEmEU12DDCJXKuvr4derxezko4jTWxHj8ycORMZGRlYuXKlV9ZKvoMBJo01BpgTHANMIprsGGASuec40uS+++6DWq2GVqvFmTNnAHD0CNljgEljjQHmBMcAk4gmOwaYRMM7efIkdDqdONIEGBw9kpWVhcWLF3txZeRrGGDSWOOYEiIiIqIJbvHixdi3bx8SExMBAImJidi3bx+DSyIadzd6ewFEREREdP2mTZuGzMxMLF68GPfdd5+3l0NEUxQzmERERESTCINLIvImBphEREREREQ0KhhgEhERERER0ahggElERERERESjggEmERERERERjQoGmERERERERDQqGGASERERERHRqGCASURERERERKOCASYRERERERGNCgaYRERERERENCoYYBIREREREdGouNHbCyAiIhKcOnUKhYWF8PPzc3ouKSlJ/Ht/fz/+9re/4cYb+WuMiIjIl/A3MxER+Yzbb78dfX196O7udnruiy++EP8ukUgYXBIREfkglsgSEZHPuOuuu3DHHXcMe5wnxxAREdH4Y4BJREQ+ZdWqVbj55pvdPn/zzTdj1apV47giIiIi8hQDTCIi8imPPvoovv/+e7fPf//993j00UfHcUVEE8vnn3/u7SUQ0RTGAJOIiHyKv78/wsPD3T4fHh4Of3//cVwR0cRgsVjwl7/8Bc899xz+8pe/wGKxeHtJRDQFMcAkIiKfExcX57KTrJ+fH+Li4rywIiLfVlNTgzVr1mD//v0AgP3792PNmjWoqanx8sqIaKphgElERD4nOjoaVqvV6XGr1Yro6GgvrIjIN73//vtISEhAaWkprl69iocffhh79uzBww8/jKtXr6K0tBQJCQl4//33vb1UIpoips2YMeO/3l4EXbtvv/3W20sgIhoTf/jDH3D8+HG7x5YuXYrCwkIvrYjId5w5cwYVFRX46KOPAADz5s1DWloaoqKixGOam5tRXl6OCxcuAAB+/etfIyUlBffdd59X1ky+4bbbbvP2EmiS4xAxIiLySU888QQ++eQT9Pf3Axgsj42NjfXyqoi8q6enBxUVFaivrwcAzJ49G2lpaXjqqaecjo2KikJUVBT279+P8vJyfPTRR/joo4+wcuVKpKSkICAgYLyXT0RTADOYExwzmEQ0mT366KN2AeYHH3zg5RURecfAwAAqKipQUVGBgYEBAMC6deuQlpYGiUQy7OutVivKyspQWVkJAJg+fTpSUlKQkpKC6dO5Y2oqYQaTxhoDzAlurAPM8vLyMT0/ka20tDRvL4F8zJtvvom6ujoAgEKhwIYNG7y8IqLxV19fj4qKCvT09AAAfvOb30ClUuGuu+4a8bm++uorlJWV4b333gMABAQEICUlBStXrhzVNZPvYoBJY40B5gQ31gHmQw89NKbnJ7L1j3/8w9tLIB9z9uxZ/O53vwMA/OUvfxlyfAnRZPPRRx9h586dOHv2LADgwQcfhEqlwsKFC0fl3OXl5Th9+jSAwfE/qamp+PWvf33d5ybfxgCTxhoDzAluvALM559/flTOt2PHjlE9H3nHaP9/FM7HANO7tFot9uzZ4+1l0P9vx44dbMYyRZnNZlRUVIidX++44w6kp6fjiSeeGPVrvfvuuzAYDPjmm28AAI899hhSUlIgk8lG/VrkGxhg0lhjgDnBjVeAaTKZRuV8crl8VM9H3jHa/x+F8zHA9C6FQiG+ySTvuuOOO8TSYJo6rl69il27domzK2+88UakpaVBpVKN+bXLyspQXl6OH374AQCQmJiIdevW4ZZbbhnza9P4YoBJY41dZImICGfOnME333yDO+64A++++663lzNlFRcXo6amBg8//LC3l0LjbN++fdi1axcsFgsAYPXq1UhPT8fPf/7zcbm+SqVCXFwcDAYDDh48iJqaGjQ0NGDdunV4+umnx2UNRDQ5MMAkIiKcOHECAPDII494eSVT24cffggADDCnkObmZuzcuROff/45ACAyMhJpaWle2W/885//HK+++ipWrlyJ8vJytLa2ori4GIcPH0ZqaqrdjE0iIncYYBIREY4dOwYAWLp0qZdXMnV99tlnYhaZzYwmv3/+85+oqKjAyZMnAQChoaFQqVR47LHHvLyywYY/Wq0W77//PsrKyvD555/j97//PRYvXoyUlBTcc8893l4iEfkwBphERFOcbXns/fff7+3lTFlCkM/s5eTW29uLnTt34sCBAwAG57uqVCokJiZ6eWXOHnvsMTz22GOoqalBWVkZTp48iZMnT2LNmjVITU2Fv7+/t5dIRD6Ik3WJiKY4lsf6BqE8lmWIk9fu3buhUCjE4HLt2rWor6/3yeDSVmJiIurr67F27VoAwIEDB6BQKLB7924vr4yIfBEDTCKiKY7lsd5nWx7L0SSTT2NjI5588kls27YNVqsV0dHR2Lt3L1566SXMnDnT28vzyMyZM/HSSy9h7969iI6OhtVqxbZt2/Dkk0+isbHR28sjIh/CElkioimM5bG+geWxk9Pp06exa9cufPzxxwCA+fPnQ6VSYdGiRV5e2bWbO3cu3nzzTbS0tKCsrAznz5/H5s2bxY6zDz74oLeXSERexgCTiGgKY3msb2B57OTyzTffYOfOnTh8+DAA4Gc/+xnS0tIQHx/v5ZWNnkWLFmHRokWora1FeXk5Pv74Y3z88cdYsWIFUlNTcccdd3h7iUTkJSyRJSKawlge630sj508fvjhBxgMBigUCjG4TE1NRX19/aQKLm3Fx8ejvr4eqampAIDDhw9DoVDAYDDghx9+8PLqiMgbGGASEU1RLI/1DSyPnRwOHToEhUKBiooKAEBsbCwOHTqE9evX46abbvLy6sbWTTfdhPXr1+PQoUOIjY0FAFRUVEChUODQoUNeXh0RjTcGmOSzrFYrdDodLBaLx8cXFhbCbDYPe6zRaITJZHL5nMlkgtFodHrcYrFg48aNdusxm80oLCyE1Wr1aI2O15HL5dDpdHafw8aNG53WptPpXK5JOIenf9x9zrZfa6PRaLcmmrxYHusbWB47sbW1tSEtLQ1vvPEG/vOf/2DBggUwGAzIy8tDcHCwt5c3roKDg5GXlweDwYAFCxbgP//5D9544w2kpaWhra3N28sjonHCPZg0aXR3dwMAAgMDx+T8HR0dCAgIQEdHB9ra2pCVleX2WKvVioKCAhw5csTtMUql0ing6+7uhp+fH8LCwuwej42NxebNmxEeHg6ZTCY+7hg0Go1GBAUFiY93dXUhLi5uRJ/nwoUL0dnZCZ1ON+TnSBMfy2O9j+WxE1dHRwd27twp3iAIDg6GSqXCihUrvLwy75PL5dixYwcOHz4sNgL63e9+h0ceeQSpqakIDQ319hKJaAwxwCSfMFRAVllZaffx/PnzUVJSAqlUCqPRiPz8fLvna2trnc5hMBggl8tdHu9Ofn4+NBoN4uLiYLVacfToUSQkJKC3t3fY10okEmzduhVbt24FAPG6wjrcaWhowLJly2C1WvH888/j/Pnzds/b7uHRaDRYvnz5sIGs8PnGxMRg06ZNaGxsdPs1cPxaV1ZWQqlUMtCchFge6xtYHjvxXLlyBbt27cKePXsADJaHqlQqpKSkeHllvmfFihVYsWIFKioqUFZWhg8//BAffvgh1q5di3Xr1uHWW2/19hKJaAwwwCSfIARkoaGhWLp0KWQyGaxWK8rKypCUlASpVAqz2Yy9e/ciJycHEolEfK0QBLpjW1oaFxeHuLg4u0yfI1eZv/b2dvT39yMwMFAMMG2DVSGotQ1+hXOlp6dDo9HYZRqFgBoANm3aBIlEArPZjP7+foSGhqKoqAhqtVoMik+dOiUeZ8tqtcLPzw+1tbWQyWRuM5jC1872a+B4HtuvNU1+LI/1DSyPnVjeeecd7Nq1C5cvXwYweNNPpVLhtttu8/LKfFtKSgpWrlyJsrIy1NbWYs+ePeJYk2eeecbbyyOiUcY9mORTli5diuLiYqd9l1arFXv37kVCQoJTkHWt0tPTXe5TTE9Pd7p2XV0dgMEmDunp6aisrERnZydqa2sRHx+P1tZWNDU1ISgoSHyd0WgUz5Wfn293jcjISCgUCmzdulX8fITsZV9fH5YuXQq5XA6z2Yympibk5uZCIpHAaDS63Is5UiaTCcnJyXZf556eHjQ3N9sdw72YkxfLY72P5bETx4cffojExESUlJTg8uXLWLx4MXbv3o1XXnmFwaWHbrvtNrzyyivYvXs3Fi9ejMuXL6OkpASJiYnijRYimhyYwSSfIpPJEB0djY6ODrt9iI2NjVi2bJnd/kNBfn7+sGWvBoPB5WNDZTBtr/3111/jnnvuwapVqzB37lxxD+ZQDYUcM4VCNtNgMCA0NNQuULZYLPjkk09QWVkplrJaLBYUFxcjJydHzCouX74cxcXFdnsx+/v7h2x/b1siK5DL5diyZQs0Gg3y8/PFtZSVlWHu3Ll4++230dXVhS1btsBqtY5aUE++geWxvoHlsb6vvb0dFRUVaG1tBQD88pe/RFpaGqKjo728sokrLCwMb731FpqamlBeXo7PP/8cf/zjHxEZGYmUlBSnHgRENPEwwCSfMNTeSMd9gQDs9gWOpETWlmOm0pZGoxH//t133yE7OxtHjx51e7w7tntLbZv6WCwWPP/882IZrFQqRVVVFSwWCyQSCSQSCcrKytDa2iq+sbHV398vlsza7vXU6XQICQnxqLGPTCaDVqsV1xkQEIClS5ciKSkJGo1GPCdNPkKmmuWx3sXyWN/17bffYufOnTh48CAAYMaMGUhPT2c55yiKjo5GdHQ03nnnHRgMBvH33erVq5GamsrMMNEExgCTfIJjts9qtaK4uBj//Oc/ERwc7HL/oWCsM5gJCQlDZir7+/uxYcMGtLa2QqlUitlGx6C5srLSKVgW9mfGxcWJGU7b9alUKhQXF4vNhYTMqdFoRENDAz799FOXDX7cfT2E7Kjt11JY5/z588Xgsq6uDlFRUdyPOUkdP34cAMtjvYnlsb5r165d2LVrF77//nsAQGJiIlQqFfz8/Ly8ssnpmWeewRNPPIGysjLU1NTg4MGDOHz4MNatW4d169Z5e3lEdA0YYJLPMZlM2Lx5M9588034+fkhIiIC6enpyMvLc1ki62kG05PRIbby8/PFgGwofn5+LgNgV810dDodIiIixMBWWFNQUBDa2tqcAkChic+sWbPsutcK542Pj8fWrVthNptRXFyM/Px8u6DQXYMg26+FRqNBa2srysrKxHMHBQUhOjp62K63NPGwPNY3sDzWu7Zt24aHHnoIDz74IE6fPo3169c7HbNgwQJs2LABs2fPRmFhIXJzc8V/X4V/y/39/V02nxuqKse2AsdisaCoqMju3NdrpOd09/vD8ZisrCxxHNhw3P1edrc2Pz8/5OTkiI2A3n//fezYsQMNDQ1ITU3F448/7tF1icg3MMAknyH8Alu+fDkaGhpgtVrR1NSE0NBQGAwGFBQUoKury65L60g4lpMCg3MnhbmZVqsVVqv1un7JO3a6NZvN2Lx5s1NwbDKZUFdXh02bNonrEQI52/JZf39/9Pf3OwWvZrMZx44dE9vinzt3DgDEfUG5ubniY47BpU6nQ2NjI3Q6nXhtq9Vqd365XI7W1lYUFBQMO/OTJhaWx/oGlsd6j8ViQU9PD+bMmQMAGBgYEANNALjvvvsQEhKC5ORk8d9thUKBoqIibNq0CVarFT09PQgNDUVfX5/Lawg3GF116LZarSgsLERCQgJmzZo17FpHOwB1dPbsWcydO3fI88tkMjQ0NIgfm0wmaLXaa/59LJzD8fdLaGgo3njjDaxcuRLl5eU4c+YM8vPz0dDQgJSUFCxYsOCarkVE44sBJvkEnU6Hnp4e1NbWuiyFFYJDi8WC7OxsLFiwQPyldC0lsjqdDpWVlXZjRSwWC15//XW0trY6jRtxRyaT4ZVXXhE/Pnv2LObNmyd2fC0rK4NOp3PKvArBZGRkpHinV/jcAKCkpAR9fX1icOr4Nent7cXVq1fFj1euXImVK1eK5ygqKhKfCwgIsPsFnpWV5RQwCm+YbAlfc5pcWB7rfSyP9S6LxYI5c+bAaDSipaVFvBl3++23Q6VSYenSpaiurhZvPgKD/2a3tbWhvb0dXV1dOHLkiF01jDCqKjAw0O7f/Pb2dgDwKAhz3CZhy1XljVBhIvw+G+41Qg5tNCwAACAASURBVObUXXbV1TlsX2e7TsfgsqKiQhwx5shisUCj0SAnJ8cuoBa+pkaj0SnbGRERgYiICBw8eBBlZWU4ffo0Tp8+jd/85jdISUlBcHCwy7USkW9ggEk+wdMMmdAMx9ZImvwIv4gNBoPTNQMCAsSmN64CWUFYWBjq6upclo4Kgakw3qOhoQEWiwXJyck4f/68uM8RsM8SSqVSHD16VPyFrdPp8Mknn0Cr1Yq/wENDQ6HVasXrGgwGpzckrgJjk8kEuVzucv+l7ett94/S5MTyWN/A8ljvevfdd2E2m9HW1mb3+P/93//htddew2uvvQZgMOCyDa6ysrJgsVhQVVUlzh52N59Z0NbWZrf/PiYmBrm5uS7XJcwvtuVpBtN2O4PFYkF1dTVUKpW4JiFbCNhv3zAajejs7PT4d7Cw7WLHjh12n+/atWtRUFAAhULh9Luxo6MDc+fOhUwmcxpBplKpxG0irn6nrl69WiybLSsrw3vvvYf33nsPycnJSE1NxU033eTRuolofDHAJJ8lkUiG/aXnSbdU22NcZe9ccQxkHTOVjqW2jmyv4SooFthmCW1L5Vyt0d15HN+QOHL1psWT52jyYXmsb2B5rPeUlZVh7969+PHHHwEA999/PzZu3Ih9+/YhISHBZQZOuDEp3KQTbkQOx2w244svvkBTUxOkUqkYjLozVJ8Ax8dc3TAU9PX1ob+/36P1lZWVobu722X20jEba5v5dNfLQNjXL/zetVqtOHr0KBISElweL5FIkJubC41GA39/f5df/xtuuAG//e1v8cQTT6C8vBz19fWoqqrC4cOHkZKSAoVCMeznSkTjiwEmEdEUwfJY72N5rHe0tLSgoqICFy5cAADMmTMHS5YsQUhICPr6+lBbWyuWuQqEACsrKwuxsbHYu3cvDh06ZLcFQWD7WiHr2dDQgOTkZDHzaLuFwhVXfQKuZQ/m2bNnUVtbi2XLlrlt0maxWLBlyxYsX77c5Q1NoZO7LXfd3h0D84qKCpjNZshkMrS3t8PPz89l4CiQSqXIycnBsWPHhjzuzjvvxObNm8WM5kcffYQ333xT3J+5aNEit68lovHFAJOIaApgeaxvYHns+Pr8889RUVEh3lyZPXs2YmNjcddddwEALl68iKamJtTW1iIwMNBlwGRr1apVSEhIsAv8Ojo6nJrVmEwm9PT0ICwsDMBgQNfU1IScnBy3a3W3lxJwnTF03BsJDGYlm5qacODAAWzevBkKhcKp0kfYE/mb3/wGRUVFbq8ZGBjoNvM4FKH5nMViQV1dnduSYOEY4eu4du1abNy40eNO7wBwyy234MKFC3j55Zfx8MMPIyUlBb/85S9HvGYiGl0MMImIpgCWx/oGlseOj0uXLqGiogL79u0DANx8881IS0uDUqm0m3U8e/ZsseTVsZv2UPr6+uDn5+eUjRT2Ot5yyy1IS0tDY2OjWFaqVCohk8ncXsdxC4dQUiuTyTB37lwxGyns8XcMLoURXzqdDnfffTd27NiBgoICdHZ2IiIiQjyurq4OOTk56O3tdRmkCl8LxwzmSDU3N2PhwoV2mVepVCpmaG27rAvHDLf9xJXKykqUl5fj+PHjOH78OJ5++mmkpKRg5syZ17V+Irp2DDDJp+h0OoSEhNjdcR2uiYIr7kp3BLZ3TSUSybB3rUfKVWt64KeGQ+72jg63bkejNZvMVbt4mlxYHut9LI8dH2+//TYqKirETttPP/000tLS4O/v73TshQsXxH2IAttyV1ezkIXyUoVC4fQ7qaury+53mEwmQ1BQELRardjgzRO2M4wBoKCgQGzI5mo+cXp6OmJiYuw6sUskEmzatAnFxcX44osvxGOFDGNvb69dA6L/j737D4u6TPcH/tbKnRJtQE0wpCbWVtDo2obMA22UmrCF4k62sa0sODJ0Oi143HNZ23oYBZfaYvd4Yo7byuAIq5Wei6XG2FZs2WJbOMpxts1VdPPgtEaNrQZTjjX90L5/8H2ePp/5AQMBM8D7dV1dyfx8Zhjgc3/u+7lvX74ZzGAZVt/SYtFsrr/me8G6rA9UQUGBHGuyZ88e7NmzR5bNfv/73/9Kj01Eg8MAkyKGmE3m+0e4sbERS5cu9ftDHqghgtgzo2wvH0hnZ6c8s+p0OjFz5swhCy6/Cq/XC4/H0+9sNEHMJgsUmA4kMBedcUXHWYpMVVVVmDJlCm677TbodDpMnDgxpPuNRHmsGDwvGkcFGrcgDowD7SuL5MH1Q4XlsWrl5eVISUmBXq8fkrETv//972Gz2XDy5EkAvVlik8mEpKSkoPdJTk6WDdzECTuTyeQXHHV3d8Pj8eDkyZN4+OGHUVZWJn9XxsTEoKmpCbW1tfJvkBAoS6fRaORz+nZVFWtIT09HVFSUvH1FRQViY2NVZbdKgYJO5XM5HA6cOXPG7/qBZDB9M6wDPSGqfH1i3vVQiYmJwcMPP4xly5bBarWipaUFFotFNgJasmTJkD0XEfWPASZFBOUBqQgYzWYzMjIycOjQIdVZU2Vnu2DlNP2VOr3xxhsyk9PY2Ija2lps3brV73Z9deobDoHKrsTIlCNHjsjLfMeRiLPv/QXWwWg0GhQWFuKVV15hgBnBTp8+jWeffRbPPPMMPvnkE9x2223Izs7GP/3TP/V5v+EujxUnhxITEwEE7k5ss9lkBkmr1Y7pwfXBsDxW7W9/+xteeuklGUgtXboUWVlZSElJGdDjHD58GDabDQcOHAAAzJ07FyaTqd9AXhlE2u12NDQ0YNeuXTI4EcGUmPsYHx+P5uZmv8BInOjzJU6KBAv+fCnnQbtcLuzevVsGtDfeeCNKS0vhcrmwcuVKuFyuoMFhJFJ24g0273ooJCUl4T/+4z/w6quvwmq14vjx4/j3f/93mdEc6GeLiAaHASZFDOUfS7FHpqWlBQaDQY7nCGVfiLKMR1m6I8pD3W43Ojs7YTAY4HQ64fF40NzcjKeffnpIy2RDIbKwS5cuhc1mk0GkWLcIslNTU+XcMXGArCS6Bor7ZWVl+ZUG2e12XHXVVWhsbOyziYJvoB1otiaFx4QJEwBAjiBobm7GwYMHMWHCBGRlZSErKytgdmO4y2N7enqQmJgoA9lATUXOnz8/agbXDweWx/oTGXjxeW5oaMD+/fsxefJkLF++HIsXL8a1114b9P7vvfcetm/fjr179wIAoqOjYTKZcN9994X0/MoqGLPZLP/O5OTkqOYHX3PNNdi0aRN0Oh3sdnu/n5GCggJkZ2ejublZjijxpfw7JWYQK4PF7u5u1NfXw+PxqAKyYMFsIL4nJ6urq/u9j7JSICsrS/7M9lVB4FsiK+47ffp07Nq1Sz73SAbDt99+O26//Xbs2bMHVqsVBw4cwIEDB7B8+XKsWbMGM2fOHLG1EI1HDDApYol28n113QtElDgpS3fE3kegN5vT1dUFr9eLmpqagPtohsLp06exePFi+XVWVhZuuOEGXH755QC+/ONvMBiQkZGBjIwM2O12OXBauea+eL1enDp1SjVr7ZVXXpHPA3y5n6ewsBAVFRUoLS0NOhSbRhdxcF5fX4+XXnoJU6dOxbJly7BkyRIkJCSMSHlsY2MjEhISAPR25czPz1dl3IXRNLh+qLE8NjQejwcejwd1dXXYuXMnZs2ahRUrVmDJkiUyA/7FF1/AZrPBZrPJeZb5+fkoLCzEFVdc0e9z6PV6+XsvWBVMsBnBvqM6+tLXvMz+ZjIPZEZxsMfpawazeA7f3//BXt9AXrfSQP9+D7X77rtPzs+sq6vD3r17Zdms0WiUJ+2IaGgxwKSIlZycjIyMDGzevDngwWCw7ERfB5yibToAvPPOO0hMTIRer5d7H1euXKm6/VfJaMTGxvqdvRZBo7Lbn8jMiEBRlM/5dv4Lxjejc/jwYUybNk1e73A4ZLOIkSr1HayamppwLyGiOZ3OoNd98cUXOH/+PM6fP4/t27ejrq4OCQkJ8nMxXOWxTqcTTU1NMJlMAHq7cm7btq3PvVmjbXD9UBDlsefOnePn/P/r7u4Oet2nn34KADh58iQsFgueeuoppKSkICEhAf/zP/+Df/zjHwCAzMxMFBUV9ZnppPHtiiuuQElJCZYvX47q6mo0NTXBarWisbERa9asQXZ2driXSDTmMMCkiOHbzc5sNkOr1aKwsBAlJSUoKyvzK7FzOByynFZ5dtXtdqua5Zw6dQoJCQloaWlBRkYGOjs7ZXApREVFySzKcCovL0dBQYFfmZPL5cLkyZOh1WrlHlKxpy0Ykf1JS0uDxWKByWRCR0eH7PzX2tqKqKioAbd9DxceeA+NCxcu4MKFC6rOkcNVHtvY2IjMzEzVZUePHh1Tg+u/KlEeO2PGDLz44osj8pxjyWeffQYAeP311/H6668DAL75zW/CZDLhlltuCefSaBS59tpr8dhjjyEnJwdWqxWvv/46fvrTn8r9mQsWLAj3EonGDAaYFDEC7cEEeveclJWVYffu3XjwwQcRFRUlA0ev14u2tjbce++92LBhgyz5DNQsJz4+HidOnMCiRYvQ2dk58i/w/ws2KiQ6OhotLS2YNm0a4uPjAfRmJX27DCp1dnZi8eLFyMnJgd1uR3p6upy15nQ6kZ6eLjNLo0FhYWG4lxDR/vCHP8gOmX255JJLcOmll+Kqq67C22+/jZkzZw5LeazX68WMGTMwe/ZsnD17FsDYG1w/FER57M0334xZs2YN+eOPVs8//zzef//9fm932WWX4eLFi6oM5uuvv45/+Zd/YQaTQvbWW2/JDCbQe8KLGUyi4cEAk0YFnU6HRx991K87rMvlQlJSEmJjY1VdUINlNsSBbCRRzqCsq6uDxWKR88H6o9xDk5KSgvT09KCz1pR72yIVA8y+OZ3OoAHmhAkTcMUVV6j2YL7wwgt49tlnceeddw7LejQaDXJzc1V7xcbS4PqhIspjc3Jy2OBHoaWlJWiAOWnSJEycOLHfPZhNTU1oamoa0B7MSNTfXEibzSarEMTvcavV2udoH/G48fHxmDdvXtBycWD4Tq5Ego8++kjuwQR6T8BxDybR8GKASaOKGGcg/t3Y2Ii8vDzZ4W7+/PlYtGhRv5mNQALtwVRmGx0OBxoaGga1T8tut8syXV9iMLfy9YlW9NXV1UhMTPQb1TJ//nzVY4jB3yUlJX2W/c2cORMajWZAB/4U2aKiojBx4kRkZmb6dZEd7u6xgYyVwfVDhd1jByYqKkp2kV2yZAmuueYav9tMmDBBZp5EF1nRwGUgXWQjhcPhgNVqRXp6OmpqagL+jRFjfQwGAwBgy5YtWLp0qdwq0lepuBCoL4B4/ra2NgD+nWdHe+ApusiK8UfsIks0MhhgUsQItAfTV09PD86dOwegN3sphlubzWY4HA7Y7Xbcc889MJvNquY5Ho9Hnv0Opr89mG1tbViwYEHIwaXH40FJSQmOHj0Ks9mM4uLigJ1hRTMf0ZAkNjYWDodDDuheu3Ztn2NKxOBq5eDvQHyb/9Do88UXXwDo/az2NwdzJLrHBjJWBtcPFXaPDe7ixYsAMOg5mDNnzsRPfvITZGdnyzmYTz75pAw0R8N77tvwTVSwKIM6ZdDnO8qnurpadlYWmf24uDg88sgjeOKJJ+SJnvT0dABQdTZXKigoAAAcOnRIjmQRz2u32wfVQTaclHMwAWDhwoWcg0k0ghhgUsQItgfTd/6WaP6j1Wr9GuXEx8ejoKAAOTk58sDS5XKp5nkNhghSQ/3j5HK5cOzYMZSVlakC1pSUFBQXF6tez/z58/Hd737Xb2yITqfDr3/9a7jdbnl22Zc42A5UVhUXFwePxyMPLHwP1AEEnRGoFGzPKI28SZMm4cYbb8Q999yDJUuWyDmCgYiZlMPVPTYQDq73J8pjRXdo+tKUKVNw++23Y9myZfL31GCkpKTgP//zP/H73/8eNpsNx48fx7/9278hIyMDJpMJSUlJQ7jqoROoLLa4uBgWi0X18yLGjYiALz4+XmY5xd+H1tZWaDQaWCwWpKWlQa/X41vf+paqRNZqtaK8vFzu7ffd8wwAS5YskevTarVITU0d+TfmKzh27BisVqv8/XfdddfBaDSqXhcRDb8JU6dO/SLci6DBE401hsvChQsBIOR5XP0RB4VD9XgUHkP9fRSPd+DAgSF5vLHqk08+wde+9rWQbmswGPDuu+9i+/btw57BFCeEMjMzVYPrlQGnGCskBtffeeedckZtsAHughhcv2XLFnmA7Mt3cL1voKh8/pEa2fOXv/wFa9aswaxZs+R4JPrShQsXcMkllwz54z7zzDOw2Ww4f/48gN5ZiIWFhf1WsYyUQIGiL9/gU5mJb21tBdD7me/s7MQrr7wiuyKLvZoiYPUNMPPy8vwCzGDbKsQ6S0pKIn5ecnd3N2pqarBnzx4AwOTJk2E0GvH9738/zCuLTNOnTw/3EmiMY4A5yjHApHBggBnZ3njjDTzwwAOYNWsWx2KE0ZYtW7Br1y7cf//9KCkpCfdyxpUPPvgANptNBhyXX345CgsLZSlouChLvJVVJ2KffqDS2Ntuuw0tLS0oKysD0NvkZ/Xq1XjkkUcQHx+PG264AXPmzEFiYqJf0ChO4Kxfvx5//etfgzb5AdR7kcVzGwyGiK9gqa2tRU1NDT7++GMAvScUjEYjrrzyyjCvLHIxwKThxhJZIqIxJhzlseSP5bHhc+WVV2LdunW4++67YbPZ8Oqrr8JiseDFF1+EyWRCVlZWWNYltj6EQpTGAsCaNWvgdDpVWXxxnXJLSWxsLLRarczYA5DN4v7617/KJj99ZTBHS+Zy3759sFqteOuttwD07nM2Go24/vrrw7wyImKASUQ0xoSjeyypsXtsZLj++uvxs5/9DH/6059gs9nQ0dGBDRs2yEZA3/zmN8O9xH4p+wkAXzbqEeXeiYmJaGhoQHt7u+wyK7rL+jaWq6ysVGUxxb+VJe09PT248sorkZiYOOyvbTBef/11WK1WHDx4EEBvYzGj0Yhbb701zCsjIoEBJtFXpJxjKYiOsAsWLIj48iIaW8LVPZbU2D02stx666249dZb0dDQAJvNhoMHD+LgwYNYvnw5CgsLcfXVV4d7iUHpdDqUlZWpxmSJwFGj0UCj0WDBggVob28P2hFZzJkF/MfyKDOg4vnELNtI8s4776CmpgZ79+4F0FvmaTQaZVBNRJEjeAtCIuqX2+1GVVUVamtrodfrodfrkZ2djRdeeAH79u1DeXm56nKn0xnuJdMYx/LYyMDy2MhkMBjQ0NCA/Px8AMDevXuxfPly/OpXv8KFCxfCvLq+GQwGpKenQ6/X49SpU/LkpdPphNVqxb59+3D06NGA9z18+DCSk5NlkNkXh8MRUX+vLly4gF/96ldYvny5DC7z8/PR0NDA4JIoQjGDSTRIXq9XDr5OTU2VreHFPpnm5mY0NDSoOvoRDTeWx4Yfy2Mj26RJk/Dggw/K+Zm/+93vYLVaZdnsd77znXAv0Y9er5djptavX49du3YhISEB8fHxKCoqQnV1NWJiYgLORO7p6UFzczPWrVuHU6dOBRxPFWjudCR4/vnnYbVa8d577wEAvv3tb8NoNGL27NlhXhkR9YUBJtEgNTU1qUpgbTYbYmJi0NjYiPz8fGi1WhgMBuzcuRMmk2lExiLQ+Mby2MjA8tjRYfbs2di4caNsBPTnP/8ZP/3pT/Hiiy+isLAQaWlp4V4igC/3YJpMJtm5Ozc3F3a7HVVVVbJxDwDs2rULZrMZH330EZ544gkAwKpVqzBnzhx5orO/Elm9Xh9wDu1IamtrQ01NDd544w0AwE033QSj0Tjq5nISjVccUzLKcUxJeCln7/Un1OHwowHHlESmqqoqPPvss1i1ahXWrVsX7uWMW8uWLcO7776Lbdu2MYM5irz00kvYvn073nnnHQDAnXfeCZPJFLHNbsaizs5OWK1WvPzyywCAq6++GmvWrMFdd90V5pWNLRxTQsONGUyir6C4uNhvoLvFYpHlskQjieWx4cfy2NHrrrvuwl133YUdO3Zgx44dePnll/Hyyy9j1apVMJlMIe1fpMHxeDywWq3YtWsXgN4y5tWrV2P16tVhXhkRDQYDTKJBEgOsAwmW1RxLWUyKLCyPjQwsjx39Vq9ejWXLlmH79u14/vnnsWvXLuzduxdFRUX43ve+F+7ljTnPPfccqqur8eGHHwIAvvOd78BoNGLGjBlhXhkRDRYDTKJBysnJ6XcECbOZNFLYPTYysHvs2DB9+nQ88sgjshFQa2srfv7zn2Pv3r0oLCyUsyhp8Jqbm1FTU4M333wTAJCeng6j0Rh01AoRjR4MMIkGye12Y+3atThy5EiftxPZTDEUm81+aDiwPDb8WB479sybNw+/+MUv8Ic//AE2mw1vvvkmHn74YXzrW9+CyWRiMDQIR48ehdVqxWuvvQYA+PrXvw6j0ciTY0RjCANMokHSarWoq6sDANk+nvsxKRxYHhsZRHksg/yxZ9GiRVi0aBGee+457NixA6+99hpee+01rFy5EiaTiU1TQnD27FlYrVbU19cDAKZOnYrVq1ez7JhoDJoY7gUQjQXFxcVIS0uTgSbRSGJ5bGQQ5bG33XZbmFdCw+V73/sefvOb3+D+++8HANTX12PZsmWw2WxhXllks9lsWLZsmQwu77//fvzmN79hcEk0RjHAJBoier0excXFsFgs0Ov10Ov1OHToEFvc07BjeWz4sTx2/JgyZQpKSkrwzDPPYNGiRfj000+xdetWrFixAr/97W/DvbyI8tvf/hYrVqzA1q1b8emnn2LRokV45plnUFJSgilTpoR7eUQ0TFgiSzTEAo0uIRouLI+NDCyPHX8SExPx2GOPoa2tDTabDUeOHIHZbJYdZ8fz1giHw4Hq6mocOnQIADB//nwYjUakpaWFeWVENBIYYBIRjWIsj40MLI8dv9LS0pCWloYXXngBNpsNhw4dwqFDh5CdnY3CwkLMnj073EscMW+//TZqamrQ2NgIALjqqqtgNBqxYsWKMK+MiEYSS2SJiEYxlseGH8tjCQBWrFiBhoYGGI1GAEBjYyNWrFiBX/7yl/j000/DvLrh9emnn+KXv/wlVqxYIYNLo9GIhoYGBpdE4xADTCKiUYrlsZGB5bEkXHrppSgqKkJDQwPuvvtuAMD27duxfPly2eBmrKmvr8fy5cuxfft2AMDdd9+NhoYGFBUV4dJLWShHNB7xJ5+IaJRieWxkYHks+Zo1axZKS0tx9913Y8eOHfjf//1fPP7443jxxRdhMplw6623hnuJX9mf/vQnWK1WOQv65ptvxurVq3HTTTeFeWVEFG4MMImIRimWx4Yfy2OpLzfddBNuuukmNDU1oaamBkeOHMHatWuxePFimEwmzJkzJ9xLHLATJ07AarWiubkZADB79mwUFhYiMzMzzCsjokjBAJOIaBRieWxkYHkshSIzMxOZmZn49a9/DZvNhubmZjQ3N+P+++9HYWEhrrzyynAvsV8ffPABampq8OyzzwIANBoNjEYjfvCDH4R5ZUQUabgHk4hoFGJ5bGRgeSwNxA9+8AM0NDTgnnvuAQA8++yzWL58OXbt2hXmlfVt165dWL58uQwu77nnHjQ0NDC4JKKAmMEkIhqFWB4bfiyPpcGIiYnB+vXrkZ2dDZvNhtdeew1btmzB3r17YTKZcOedd4Z7idLLL78Mq9WKzs5OAMC3vvUtGI1GJCUlhXllRBTJGGASEY0yhw8fZnlsBGB5LH0VSUlJqKysREtLC7Zv344333wTP/7xj/Hiiy+isLAQKSkpYVvb4cOHUVNTg9bWVgDA9ddfjzVr1iAjIyNsayKi0YMBJhHRKCOylyyPDS+Wx9JQyMjIQEZGBvbs2YMdO3agtbUVra2t+M53voOioiJcddVVI7aWf/zjH6iursbzzz8PANBqtVi9ejXuu+++EVsDEY1+DDCJiEYZEWDu2rUr4vdujXUsj6Whct999yE7Oxs7duzArl278Pzzz8tspslkGvbnt1qtqKmpweeffw4AWLVqFVavXo3JkycP+3MT0djCAJNCUl1dHdGPR+HB7+PIE91jKTLcfvvt4V4CjSGTJ0/GD3/4Q9x9992w2Wx4+eWX8atf/Qp79+5FUVERli1bNuTP+eKLL6K6ulr+XrnzzjthNBqh0+mG/LmIaHyYMHXq1C/CvQgavLNnzw7r4y9cuHBYH59I6cCBA+FeAhFRxDh48CC2b9+Ow4cPA+idq1lYWIhbbrnlKz92e3s7rFYr/vznPwMAUlJSsGbNmiF5bIps06dPD/cSaIxjgDnKDXeAWVNTM6yPT6RUWFgY7iUQEUWcvXv3wmaz4fTp0wCAb3/72zCZTLjmmmsG/Fh///vfYbVa8bvf/Q4AEBsbC6PRiOXLlw/pmilyMcCk4cYAc5Qb7gCTiIiIwu/ixYuw2Wyw2Wy4ePEiAKCgoAAmkwkajabf+3u9XtTU1GDHjh0AgIkTJ8JoNMJoNGLiRI5FH08YYNJwY4A5yjHAJCIiGj9Onz4Nm82GvXv3AgCmTZuGwsJCfPe73w16n//+7/9GTU0N3n//fQDA8uXLYTQaERsbOyJrpsjCAJOGGwPMUY4BJhER0fjzxhtvwGaz4eDBgwCA5ORkFBYWqmZVtrS0oKamBh0dHQCAW265BUajkZ2PxzkGmDTcGGCOcgwwiYiIxq+XX34Z27dvx1tvvQWgt7NxUVERqqur5Uija6+9FmvWrMGdd94ZzqVShGCAScONAeYoxwCTiIhofDt79iyefvppvPzyy/j000/l5ZMnT8bq1auxatWqMK6OIg0DTBpunINJRERENIp8+OGH6OjowLFjx+R/Z86cAQDMmTMHJ06cwHe/+10YjUZotdowr5aIxhsGmEREREQR7OOPP1YFk8eOHcM777wjr7/iiiug1+uRlJQEl8uFEydOYOrUqQwuiSgsGGASBZ60owAAIABJREFUERERRZCLFy/6ZSidTqe8/tJLL8UNN9yApKQkJCUlITk5Wc7E5PxqIgo3BphEREREYfbmm2/KYLKjowNvvvmm6vpvfOMbMpicO3curr/++jCtlIiobwwwiYiIiEbYW2+95Vf2+vnnn8vrdTqdKkOZlJSEiRMnhnHFREShYYBJRERENMxcLpcse+3o6MDx48fx0UcfyeuvvvpqVYYyOTkZGo0mjCsmIhocBphEREREQ+zs2bMykBRB5QcffCCvv+qqq5CamqoKKq+88sowrpiIaGgwwCQiIiL6ij744APVHsrjx4/L0SEAoNVqkZaWhrlz58rSV84jJKKxiAEmERER0QB9/PHHfhnKd999V14vRoeI/ZNJSUmIi4sL44qJiEYGA0wiIiKifly4cEGVnQw0OiQlJUXun0xKSpKjQ4iIxhMGmEREREQBiNEhojlPoNEhygzlnDlzwrRSIqLIwQCTiIiICL2jQ0SGUgSVFy5ckNdfd911qgwlR4cQEfljgElERETj0rvvvqvKUB47dgwff/yxvD4+Ph5JSUmqoJKjQ4iI+sYAk4iIiMaFM2fO4NixY6oMpXJ0yIwZM7BgwQKZnUxKSsLUqVPDuGIiotGHASYRERGNSR988IEMJEVQefbsWXl9dHQ00tLSZDA5d+5cjg4hIvqKGGASERHRmPDRRx+pspPHjh3zGx2SmpqqylBydAgR0dBigElERESj0oULF1TB5LFjx/DWW2/J6y+77DKkpKTIYDI5ORkJCQlhXDER0dg3YerUqV+EexE0eMpSHyIiorHuzTfflEFlR0cHTpw4obp+7ty5qgzlWB4dcuml/nmCs2fP4uzZs5g+fXrAct/PP/98JJZGEYxl4DTcmMEkIiKifgUKZvozFMGM0+lUZSg7Ojpw8eJFef11112nylDOnTt33IwOmTBhgt9lM2bMwIwZM8KwGiKiXgwwiYiIqF+Bgpnh8O677/qVvQYaHaIMKr/2ta+NyNqIiKh/DDCJiIgobMToEGWG8sMPP5TXX3XVVXJ0iMhQcnRIL4fDgaKiopBuGxcXB4vFgvj4+GFeFRGNd9yDOcpxDyYREY2Eyy67DF6vF5s3b8a+ffuC3i4rKwulpaXQaDT47LPP/K53u90ykDx+/DiOHTvmNzpEBJIiSzlt2rRheU2j3WWXXeZ3mdPpxMaNG1FWVgadTud3faDvCY0v3INJw40ZTCIiIgpZVFQU6uvrAwYvTqcTu3fvVl320UcfqbKTx44dg8vlktdPnjwZqampqqCSo0MGThn8z58/H52dnSguLobFYgn4vSIiGi4MMImIiChkHo8HK1euDHp9VlaW/Hd5eTk6OjqCjg5JTk5GUlISR4d8BcrAsrq6GuvXr0dlZSVSU1NRX1+vuk6v14d7uUQ0DjDAJCIiopANJIO5b98+XLx4EXPnzpUZyuTkZHz9618fySWPWRaLBU1NTbBYLKioqADQW4IsaDQaVFRUoLS0FJs3b0ZbWxv++Z//OVzLJaJxgnswRznuwSQiopEwmD2Ye/bskWWvI9WFdjwJtAezP9yDSdyDScONAeYoxwCTiIiG2zvvvINrrrlmwEEig5nhddlll8HtdmPt2rU4cuRI0NvNnz8fTz31FLRaLb8nxACThh1LZImIiEjlH//4h+zwKrq9lpSUYPPmzSE/RkFBAcsxR0hqaiq2bdsGjUbjd53b7UZlZWUYVkVE4xUDTCIionHO7XbLDq+BRofExMQgJycHK1asUN3P6/Viy5YtyM3N5UgMIiICwACTiIho3Dl//jyOHz+uCirfffddef3kyZNx8803yzmUyj2UDocDbW1tKC4uBhC4q6zYh3nJJZeM3IsiIqKIwACTiIhojPv8889lqasIKv/+97/L6ydNmoSUlBQ5NiQ5ORmzZ8/2exy3242qqioYDAZ5WV9dZZnBHBmHDh1CbW1t0Ovnz58/gqshovGOASYREdEY9Le//U0Gk8eOHcOJEydU1yuzk0lJSf2ODvF6vaisrMS3v/1ttLe349SpUzCZTMP5EihE3INJRJGEXWRHOXaRJSIiADh58qQqQ9nR0YEvvvjyT3xiYqJfUBlqV1iv14uf/exnWLBgAXJycgAAdrsd5eXlQe/DJj/Dj2NKaDDYRZaGGwPMUY4BJhHR+PTOO+/4lb16vV55/ezZs1XBZHJyMiZNmjTo52MwE3kCnSB44YUX8MILL2DFihV+TZkAqE460PjEAJOGG0tkiYiIRgExOkRZ9vrhhx/K62fOnImFCxciOTkZc+fORVJSEqZMmTJkz//5558P2WPR0AgULJ45cwbHjh1Deno6g0kiCgsGmERERBGop6dHBpKi06vv6JD09HQkJSXJgHLatGnDth4GK0REFAoGmERERBHgo48+Uu2fPH78OFwul7w+KioKN998sypDGRsbG8YVExER+WOASUREFAafffaZKkPZ0dGBU6dOyesnTZqEG2+8Ue6fnDt3LhISEsK4YiIiov4xwCQiIhohx48fVwWVfY0OSU5ORmJiYphWSkRENDjsIjvKsYssEVHkOnnypCpDefz4cVy8eFFeL0aHiAxlcnJyGFdLo82FCxfw0EMP4dy5c5g4cSIAoLu7G++//z6mTZuGmJgYAMDFixfxjW98A2azOZzLpQjBLrI03JjBJCIiGiJdXV1+Za+ffPKJvD4hIUHunxRB5de+9rUwrphGs0suuQRarRZ/+ctf/K57//338f7778uv77333pFcGhGNYwwwiYiIBunMmTN+jXl8R4com/IkJycjKioqjCumsWbZsmU4dOgQPB5P0NtERUVBr9eP4KqIaDxjgElERBSinp4eGUiKLKUySzRt2jQ5OkSMDxnO0SFE6enpId1u9uzZw7wSIqJeDDCJiIiCOH/+vMxOilmUvqNDFixYIPdPJiUlYebMmWFcMY1HS5cuRUNDQ5/XExGNFAaYREQ0pjz33HP43ve+N6j7fvbZZzJDKYLKQKNDRDCZlJTEzBCFXVZWFvbv3x+wTDYqKgpZWVlhWBURjVcMMImIaExwuVwwGo3weDxYsmQJZsyYEdL9RDAp/v9///d/8roJEyaoOrwmJSVxdAhFnJSUFEyePDlggDl58mSkpKSEYVVENF4xwCQiolFv27Zt2LNnDz766CMAwB//+Efcc889AW8rRoeIDOWxY8fwxRdfTuz6+te/LvdPiqCSKNItX74cdXV1+PTTT+VlkyZNwvLly8O4KiIajxhgEhHRqOVyubBmzRp4PB7VgfVrr70mA8yuri6/slfl6JDZs2erSl6TkpIwadKkEX8tRF/FkiVLsHPnTtVlEydOxOLFi8O0IiIarxhgEhHRqFRTU4PnnnsO58+f97vuyJEjePrpp2WG8ty5c/K62NhYVTCZlJTE0SE06l1zzTWYNWsWTp48KS+bNWsWrr322jCuiojGIwaYREQ0qrhcLqxfvx5dXV3wer0Bb+PxeFBXVwcAiImJwa233ipLXufOnYuYmJiRXDLRiFixYgUsFgs+++wzXHbZZVixYkW4l0RE4xADTCIiGjVqampQU1MT0m31ej3uvfdejg6hcWPJkiV46qmnAAAXL17EkiVLwrwiIhqPGGASEVHEc7lceOSRR9DV1RXyfTQaDW6//fZhXBVRZImJiUFKSgpef/11pKSkMFNPRGExYerUqV/0fzOKVGfPng33EojGNYfDgYceeijcyyD6yrZu3Qq9Xh/uZfRr4cKF4V4CjREHDhwI9xLCYvr06eFeAo1xE8O9ACIiIiIaGmLkjnL0DhHRSGKJLBHRENDr9aiurg73MsaNd999F0Bv6azy32+99RY++eQTfPjhh4iOjsaDDz4InU4XzqVGvKKiIjgcjnAvY8BG45opMoyGTD3RaMYAk4iIRp1Zs2bJ//NgkYiIKHKwRJaIiIiIiIiGBANMIiIiIiIiGhIMMImIiIiIiGhIMMAkIiIiIiKiIcEAk4iIiIiIiIYEA0wiIiIiIiIaEgwwiYiIiIiIaEgwwCQiIiIiIqIhwQCTiIiIiIiIhgQDTCIiIiIiIhoSDDCJiIiIiIhoSDDAJCIiIiIioiFxabgXQEQ0HtntdsTHx0Ov18PpdKK4uBgul0t1m7i4OFgsFuh0OgCAzWbDHXfcgejoaKxduxZHjhwJ+Nhmsxk5OTmq5wKAnJwcOJ1O7N69G+vWrYPVagUAFBcXq+7v9XqxZcsW5ObmQqfTwWKxIC0tDXq9PujrcTqd2LJlC370ox9h48aNAddWXV0tH8P3Mb1eL6xWK/Ly8qDVauFwONDW1ua3NgBwOBzo6upCSkpKwPdN+Vx2ux3l5eVB1x3oPhaLRfW+KN+/4SAeH0DAtc6fPx9PPfUUtFptwPuLz4X4nBAREYUTA0wiogiQnp6OdevWQaPRAPgyyAsmNTUV27Ztk7cXlMEKALjdbrS3t2P9+vWqy71eL/Ly8rBz505YLBZVICcCtri4uJDW7na7UVNTg/Lycmi1Wmzbtk0VoIrXEhMTI++Tl5eHyspKJCYmBg2cAnE6ndi/f798rxobG/u9jzKwDUYElUBvYOlwOGCxWGAymdDe3o59+/b5BX++JwAGw+FwoL29HaWlpWhqavI7OeB2u1FZWSm/Vp4g8P3eKx8zWHBOREQ03BhgEhGNIIfDgaKiIvl1XFwc/vVf/xWtra2or69X3TYuLg65ubmq+2zduhVZWVno6upCbW1twOcwm83y352dnYiNjfUL4jQaDTQaTcAgpLGxEfX19ar1+D6XyKppNBrs3LkT69evR09PD0pKSvDjH/9YdVuXy4WZM2eqAjGtVguDwYCWlhYAX2bufJ+ntrZWBl0OhwNVVVXyeQciWCZTBIm+9Ho99Ho9HA4HFixYgIqKCtX1/Z0ACIXT6URdXR3Ky8vl6ykvL/db5/z587/S8xAREY0kBphERCNIr9ejtbUVmzdvhsFgkCWyfWUwRaCjLJHduXOnzGAqs1pNTU3yubxeL/bv34+lS5ciPz9fVbbqG8xmZWWhtLQULpcLHo8Hra2tci19lcg6nU40NTXJwLC6uhrXXXcdPB4Puru7odPp0NjYiLS0tIDvhXjMzMzMPktkReZy27ZtcLlcePrpp/vM4vnKyckJqcTV4XBg48aNsFgsiI6ORltbG0wmk9/tvF4vPB4PoqOjQ3p+X8qsrwiyAf/yZt8MJhERUaRjgElENMK8Xi+6urpkIDOUlMFJU1MTWltbkZubi7q6OgC9gdorr7yC8+fPBwwaX3nlFeTm5oYcuIkA0mKxICEhAXq9Hl6vFwDQ1taGefPm4fTp0ygqKpLZwu7ubtXXoZSY6nQ6PProo/B6vdi9ezeWLl2KBx54IOg+VJFhzcnJgcViUWWNA1GW0e7atUu1x9U3q1pQUIC8vLx+19wXrVaLiooKOJ1OdHR0yJMDoWQwA2W7t27d6rdGIiKicGCASUQ0wjo7OzF16lRMnToVmzZtQklJSZ8lssL58+excuVKPPHEEzh06JBf4CPuHxcXh0ceeQS/+c1v/IK37u5unD9/PujajEbjgF+PbxMcEUB3dXUhLy8PFRUVKC0thdVqRXR0NHQ6HVpbWwdVYmq1WpGcnAy9Xi+DZqGvvYd97cP03beq1WrlY/u+NvEcQ8Htdsvvv0ajCSnLKgJ6Jd8mP0O5RiIiooFigElENIK8Xi/a2trwzW9+EzfeeCO6urpw4sQJpKenIycnBwcOHJBBntvthtvtlvsH4+LiZBA5d+7cgCWyIvPocDjwwAMP4I9//KPq+bu6upCQkIBTp075rS1YN1vAP4sH9JbVrl+/XjbBqa2txfz581FWVob4+HgkJiaipaUFOTk5OHr0KAD47QXt7u7Gpk2bgmYLxWM++eSTqKqqwr59+1R7TEMVSgZzJLndblWWtK/3HviyhFmUQPcViCYmJqKhoQFut3tADZSIiIiGAgNMIqIRJAKtadOmAfhydIjT6cSsWbPw3nvvwel04vDhwygvL0dBQQGKi4uRk5MDm80mH8fj8eDhhx9Ga2urvEwEnyJb5/V6VQGm1+tFR0cHcnNzAwaYvtkx5d7LvrqXVlRUqJrgOBwOAMBdd92Fxx57DHPmzMH+/ftV2VghJiYGdXV1fqNRfLORDocDsbGxgwoule9JIL4ZTOVaAP/GO0NRftrZ2QmDwYDU1FQAgTOTQN/7X4mIiCIRA0wiohF09dVX495778XBgwf9rtNoNFi6dClWrlyJgoICGaj56u7uRlRUFKKiolBfX68qg/UNlpSOHj0Kj8fjN35ENJJZv369zHiJJjbK0SKh6urqwoIFCxAbG4v8/Hzk5eXBbDb3udeyqakJUVFRQW8jGgL19fr6MpAMpm8DH9/GO8CXQfRAu9kK4vWIPbgWiyVoV+Da2tqg3W6JiIgiDQNMIqIRFBsb2+f1PT09WL9+Pf7617/C6/UGDGDa2tpw2223+ZW/9sXtdqOqqkru9wu0LuXl/QV8Xq8XVqsVKSkp+NGPfiQvz8rKwrlz57Bu3Tq5VgBob29HZmamqkuuKAe12+1yFuRwGUgGM9hoF9+y1qqqKlXW1e12w2w2Y926dQOejVlcXIzs7Gx8/PHHSE5Olpf7ZjAPHz48oMclIiIaaQwwiYgigGjyYzabkZubizNnzmDlypV+XVY7Oztx4sQJ3HvvvXjppZewcuVKv8cKtJ9w586dSE1NDRhk9fT0wOPxyK8tFgsOHTqEp556Kuh6vV4vTp8+jby8PFWm1WKxYMGCBYiLi8OGDRvka7NarXjggQfkY65duxapqanYtGmT7PaqpBxhEiqxvzSQgWQw29ra5OPEx8fLIFnZ/Afo3TcJQGaEOzs7MWXKFL8Mcaiio6Oxe/dunDhxos89loE6zfp2keXsTCIiChcGmEREYXb48GFkZmaqup8WFxcjLS0NmzZtgtFoxI9+9CPMnz8fGRkZWLx4MbRabcglsgcPHsTp06dVGcK0tDRV0FVdXY2jR4+iqKgI1dXVfp1Yo6Ojcfz4caSnp8vLCgoKVFk+p9MJj8eDW265BQ888AAMBoMMlIqLi+FwOLB27VoYjUZ5ncPhwOLFi/t8f8TIkUANa3yb4wRr1hNqBtPtduPEiRPIzs4GAMybNw8NDQ1B72s2m2VWVpQGD7ZsVqvV4tFHH4XT6UR2djZcLhfi4uLkWoDQ5nlydiYREYXThKlTp34R7kXQ4J09ezbcSyAa1xwOBx566CHo9foR70RKNBSKiorgcDiwdevWUdFMaOHChQAQdI8yUX/E5/zAgQNhXkl4TJ8+PdxLoDFuYrgXQERERERERGMDA0wiIiIiIiIaEgwwiYiIiIiIaEgwwCQiihAWi0XuK3M4HLKTqvI/cb3b7caGDRvgdrv97u90OvH444/D6/WqHt9utwd8TOU8xmCPHQnsdvug52D2Jdh7Heh9972feN+U75ndbseGDRv83n9A/T0O5fW43W6UlJSgo6MDGzZsCLi24XhPxiqLxdLv5z8UA/kZUX7PBafTCZvNFvLzeb1ePP7447JzcV/r6e+2ynX5fnaC/e4Y6HqUlD8ngS632WzycYJ9f0L5vUVEkYNdZImIIoDb7cbp06eRmJgIAAGDGpvNhpiYGAC9HUcNBgMqKytRWloqx4YkJiaip6cn4HOIDqRihmVeXp7szCoOGHNzcxEdHd3vWisrK7F+/fqAnV2B3gPF2tpaVQdYh8MhO9fGxcXJESx2ux3l5eV+3WLFwW9/XVMDPbfomis6ulosFtx000146aWXYDAY/JrZFBQU+HXOVT6eL6/Xi/379yM3N9fvugULFgAANm/erFqD7/e4P16vF08//bScq1lRUYHY2FjVXEyLxYL4+PiQHo8gv8fiPXQ4HHIsje9nQvkZdTgc6Orq6vOzGOzzmp2djY0bN6KsrEzOS92yZYucFSt4vV5s3rwZ+/bt81tDf6NvOjs7sWDBAmi1WjidTsycObPPWazis5iXl6e6vLGxEUuXLu23E7Lo2tzfurxeLxoaGrBv3z7U1tYC6O28rHyP7r//fjlPtri42O/n0GKxICEhYcC/B4gofBhgEhFFgJ6eHiQmJqKlpQWA/0Gq2+3G+fPnVQd0er0ebW1tOHr0KLq6urBv3z7VwWl9fT0A9YEyABw9ehQAggaHSsqg0JfyuQTlOBDlgaTT6cRTTz0lx6rY7XbVDMyMjIyQRmt8/PHH2LBhg3zurKwslJaWwuVyqcaVKNcnuvtqNBqUlpZi8+bNAKAKKGpra+UBcCBpaWmqr/s6wI6Liws4TqSlpcXvewRANdNS+b169tlnZcCfn5+PkpIS1f1E9mzevHlB102hycjIQFZWljxpIk7CiJMter0eXV1dsFgsAU9EiJMQ4jpxgkXJd2Zta2ur/Lc4wVFRUYGKigq/x+8vo/jGG2/gjjvuANAbJNbW1vrNRgV6f16ys7Pxwx/+EMCXPyNmsxkZGRk4dOiQat2BTgQpid8xSsrfAU1NTYiNjZUnywKdENFoNHj00Uf7fH1ENLowwCQiigCNjY1ISEgAALz//vvIz8/HkSNH/G5XW1uryrYVFxfD7Xajrq5OBm9OpxO7d+/GunXrAmYi2traVAGVOLAOJFAmNZQMZqDXd/PNN8sgNyMjAw0NDejs7OxzNEZ5eXnAAKyiokK+TgDQ6XRobGwM+jhtbW0Aeg9mAx3ADzSD2djYiNtuu80v4+QbPIqsLAC0t7ejubk5pAyt2+1GS0uLDBLMZrM8odDV1QW9Xo+WlhYkJCQMeu7meKY8aVJQUACNRoPY2Fh5mcvlgsfjUb23OTk5sNvtcDgcqiy03W73y7AFysQNljJYVQZ04gSO2+1GZ2cnDAaDnEXb3NyMp59+Grm5uX6ZTIfDofq8i+xsS0sLDAYD6urqAPQGtVu2bFHd1zf76EtZcut0OtHc3CxPjvzkJz8B0BsMK99/8dr6+hkkotGFASYRUZg5nU40NTXBZDIBAKZNm4Zt27bJsrFApW7ioFNk8KqqqkJ+rhMnTshARxmkBRKobE/wvUysxTfgEeW7BoNBXqbRaBAfHy+DJd81imyk8oBWHLwGK/0LlG3NyspCV1cXjhw5osrM+JbjDiSD6XA4UFtbi7S0NJlxcrvd2LlzJ2bMmIHLL7/c7yDcbrfDYDCEHJBrtVrU1dXBbrfj1KlTqsdrb29HZmYmTp06hdraWpSXl6uyRtQ/8X6JElmNRoPJkyejp6cHWq0W3d3diIqKgkajCflnoLy8XP4MAAh4n4KCAphMJvmzDaDPk0FAb7CqvI/IJgotLS3o6uqC1+tFTU0NDAbDgE86dHR0AIBf2e5geb1e+bp0Oh0SExOxdu1apKamwmg0wmg0wm63o729PeDvDF+///3v+TknGkUYYBIRhVljYyMyMzNVlx09ehT19fV+JWgig1dcXIzs7Gzs3r0bL7zwQsDyUuV9RXagsbER+fn5MtA5fPgwkpOTgx7giYyfMus30Aym1+tFV1eX3+MqM0ZKIhs5mOY1yoBUBA8VFRWw2Wy44oorcObMGb8sSbAmPoGIbLFvWWpPTw88Hg9mzJgR8H6D2T/mcDjkATjwZaD+xhtvyJLg4uJi1d5cCo1vBhPoPbFz+PBh6HQ6tLW1yZMKgX4GAhEnGYTY2FhVxlp8HoMJVo7eV4WB2+1GQ0MDAOCdd95BYmIi9Ho9vF4vPB6PX1muKBf3lZycjIyMDGzevLnPn2vfioJAqqurZdmr0+mU2cvU1FS559PtduPUqVO44YYbcPTo0X6Dxuuvvx4FBQUoKipippNoFGCASUQURl6vFzNmzMDs2bNx9uxZAL0lss3Nzaivr0dcXFyfmUwAWLFiBXJzc1WBX2dnJ9ra2lQHYg6HA6dPn5bBkdvtRnNzc59Zi0B7yYRAGZ2RPPhTZpkE3wPggoICeL1evPfee37vn9vtxtq1awOWIgcSFxeHRx55BMuXL8exY8cCruXyyy/3u19/z+N7wC6yq21tbXLPZlxcHJ588klERUVh1apVaGxsRHFxMZxOJ957771+m62Qmm8GEwBSUlKwe/du3HLLLQNqxhTM6dOnsXjxYtVlIpgNRKwnUEMht9sNj8cj94SeOnUKCQkJaGlpQUZGBjo7O2VwKURFRcmyeSWRgVf+XJvNZmi1WhQWFqKkpARlZWUBP1MDKZEFek8WlZeXY+3atSgpKZH7WysrK2EwGJCYmIjKykokJib2ebJKNGFqbW3F5s2bkZ+fr6pAIKLIwgCTiCiMNBoNcnNzVRm0adOmyZLX/pp7KPX09PgFXMCXmZPJkyejsLAQTU1NMqgpKCiATqcL+jy+e8lESa1Op8OcOXNU3UzF7QO9Rt/GHiIbJ/adDoQy6FVmZJQH6Mrg2u12IyoqCrNnz8aZM2fk7UUZqi/f+wfiG2CKjJdvpjbQ8yj3XvaVDQ703rtcLqxevVqOvmhrawup6yf1TwRUr776KmJjY1Xfj0ANbgLJysqS/x5oBhPo/bloa2vDvffeiw0bNsiOx4F+tuPj43HixAksWrQInZ2dA3qtgfZgAr0BYVlZGXbv3o0HH3wQUVFRqq7SoWYwBVHuXlZWBr1eL0+2KDs5GwwGrF27NqSAUWSTHQ6H7KDNzz5R5GGASUQUYTo6OmC1WlUdUZXlrsp9XoLb7camTZsC7r/q6upSNSHR6XSIj49HVVWV35iCvij3TAG9e8xESV9fe6NEOWxbW5u8jdfrxblz55CSkhLy8wvKwEs5XqW7uxsNDQ246667cPr0aWzYsAHr16+XnXmV74vFYpGjKkQzE2WWONCezGCvUexrzcvLUwWYgR4X6M0++XalDUV3dzfmzJmD2NhYFBYWori4GJmZmdyTNgher1fVjbipqQkWiwW5ubnYsmWLXxAVqCuwL98S2YFmMIHe5kJJSUnye/zKK69Ar9cHLWVvUXMNAAAgAElEQVQXlQtDSafT4dFHHw140mkgGUyHw4Gqqirs2rVLlbksKSlRfWb1ej0MBgN27twZcvWDmINJRJGJASYRUYRJTk6WbftFBsBkMvkd2HV3d8Pj8eDkyZN4+OGHZZYAAGJiYtDU1ITa2lq5b1NwOp1yLp/IGChHBfgesIo1pKenIyoqSt5ezGVUlt0Gk5aWho0bNyI7Oxs6nQ4tLS2YMmXKkJR2RkVF4dy5c6irq0N5eTk6OzsRGxuLvLw8VFZW4u2330ZZWRm6u7vlfSZPniz3LTY1NeH48eOqTE2opb6iscrixYsDZl98M0C+ZcqB2Gw2zJkzB0888YQ8yZCeng4AyM/PB9C7d9blcuHQoUNwu90sFQyRyH6LgNJgMMhstciuTZ06dUDBTjADzWB6vV40NjYiLy9PNRt20aJF/ZayBxJoD6bZbA55bqqoMhgsvV6PkpIS7Ny5UzYpKiwshE6nU53gEUEp91USjR0MMImIIogyiLTb7WhoaMCuXbvQ0tKimsEnsgPx8fFobm72G9ERbGyHOHANtRujxWLB6dOnUV9fD5fLhd27d8uA9sYbb5QzKFeuXAmXyxU0MNPr9TCZTPKAN1jHWaX4+HjVAXmgzIkYJ3H99df7ddLVarWIjY1FbGwsdDqdDDDFnkyg931saGhAXl4eVq1aFXAkSV+ampoAwK9Jk3ge5QG63W6H1WqFxWIJ+rrF2u644w7V9090k9Xr9bBYLDh06BCam5vR0tIi1x1sjy59ybfsWHwmRIMd8XNhsVjkz1tfs2B9KUtkg1GezHE6nfJyl8slTwqZzWY4HA7Y7Xbcc889MJvN8vsrGvj019hpoHswffX09ODcuXOqywZSIuv1etHQ0CCrKpKTk+Xe4bS0NDQ0NGDevHnIzMzEli1bkJKSws8w0RjBAJOIKIIoRyKYzWa5dy8nJwcOhwN6vR5ZWVm45pprsGnTJjmyoL9gsaCgANnZ2WhublZlVZSUexsLCgqg1Wr9Dsbr6+vh8XhQX18vg6T+ZlAKoZQZKiUmJqKqqqrf1ya6Viqb6ZjNZjkTUGR+lFndgoICdHd3o6qqSu79Sk1NVTXj8S2RVQ6dB4ATJ06gra0N5eXl8r1ISUlBcXGxPAg3m83o6enBqlWrYDKZ/N4ncT9lKWVWVpYqs+t2u9He3o7i4mJs2LABsbGxqs9FSkqKzEjzAH3gREZTGYwVFxf7BZn98S2RFXzH7gDqPZ1msxkajSbgz1F8fDwKCgqQk5Ojehzfz8hABduD6bvXVDT/UX4daolsU1MTYmNj5c9vRkYGKisr4Xa7MW/ePOzfvx8ulws6nQ5Lly6VwScRjX4Tpk6d+kW4F0GDJ7pOElF4OBwOPPTQQ9Dr9UFHAIxHIlj1nTcZiLIckJ0hR15RUREcDge2bt06Kva1LVy4EABCHi1D5Et8zg8cOBDmlYTH9OnTw70EGuOYwSQioiHnW4rYl4FmNomIiChyTQz3AoiIiIiIiGhsYIBJREQUJna73W84PRER0WjGAJOIKMzETD4x2y3Qf/n5+X3Ou3M4HP3eBujdG+kb0DidTjz++OMB597R4Dkcjn670mZkZKC5uVnVTdSX0+lESUmJ3/fWYrFwHyL1ye12w2Kx+P1sB7uciGgocA8mEVEE8J2Zp+R2u1FZWQlA3WU2EN/B7sCXI0HE2Iy8vDzV9Y2NjVi6dGmfI0OUHWYBhDzmZDi43W6YzWasW7dOdtH1HZ0QyhiUr/L8ym6zoT5foPsJra2tqq+VDY8OHz7sN2dTdMjtb/4oUTCHDh2KmJ9pIhpbGGASEUWA06dPBwwOhfnz5wPoHWtRUVGBiooK2O12xMfHBzwoFEPdlaMIxCw/EZyazWZkZGT4HWgqx3GIoCg1NVVmy7xeL6xWKxITEyOm46tvgGe325Genh7yQbN4nSUlJf3eXqvVyjEhQG+wt3v3brzwwgvyRIBSbW0tqqurkZiYiPj4+JA75YrMtvh+KTvtHj58GPX19aivr5e3DzaDlMYf3xNRYjSP8vORmpqKbdu2DctJGCIa3xhgEhFFgFAzmL76GgBfUFDg97Xv7LuWlhYYDAYZMHm9XmzZskX+u7KyEqmpqaoDU41GE/GBTE5ODuLj41VzLoeKCLDz8vKg1WrR3d2NqKgo5ObmIjc3V97ON8gPVL4sgtN169ZBo9HA6XRiy5YtcrZmVFSUnM8onlfMxVR+XsRzEQlRUVGorq5GW1sbbrrpJvz5z3/2y/aLE0v9zbckIhoIBphERGESKMvQl3379qkydV91vEdHRwcAYN26dQGvd7lcePvtt1FYWNjn4ygHwANfltqJ13fXXXfhpZdewr59+1TZUUFZfqs80FVmXQPdrz/z5s1DfHw8Wlpa5GMqn0u8ly6XS66/qKhIVZ4a6PYajQZpaWnYuXMniouL0dXVhYSEBL+AMpjOzk7s378f69atQ3R0NFwulxw4393djSlTpvSZVbJarTAYDBGTPabRxTeYFCebiIiGCpv8EBGFiSh3ra6uhtlshsPhgMPhQEFBAaqrq+XXyv8qKirg9XqRn5/fZ1OgUJoDJScn48EHH8TmzZsD3qa7uxuzZ89GXFxc0Nfg9Xpx8OBB1NfXw+FwwGw2o6qqSvV4jz/+OAoLC+FwOJCZmYmamhp4vV5ZAnr69Gm0trbC4XBg+vTpcLvdcDgc2Lhxo3zcsrIybNq0qd8mRr7vb2xsrPza4XAgLS0NDocDzc3N6OrqQlNTE3Q6HXbt2oX58+ejuroadXV10Gq1QW8PfDmo3W634/3330dKSoq8rL/GO9OmTZNBpUajwZQpU9Dd3Q0AaGtrw4IFC/oMMNevX4+uri52n6VBc7vd2LBhw4B+noiIQsUMJhFRBCgvL/drVONb/ioyaABC2ssnSiqF2tpaVZbUbDZDq9WisLAQJSUlKCsr6zOYDESj0ajKQlNSUtDc3Ky6jclkkpnH7OxsbNmyBV6vFz09PTh37pwsBwWA9PR0eL1eNDQ0qO6XmJiIK6+8Ej09PYiOjh7QGgXl3kqtVovU1NSvdPu8vDysXbsWAGAwGOTr2717d5/Nd7RaLebMmYPu7m7odDrExsaiq6sL8+bNg8fjQUpKirytx+PBypUr5dfz589HXl4ecnJyYLFYYLFYIr5cmb4aZSY/VP/1X/81TKshIuofA0wiogigLFuzWCxIS0vD5MmTcccdd0Cn08nyS41GoxotEOzg02w2IzMzU3VZoD2YAKDT6VBWVobdu3fjwQcfRFRUlAzizp07B6/XGzSjFqirbVxcHHp6emSwGh8fH/C+/ZWDBgq68/PzQw4wRdfctLQ0+Zp93yvffapK/d1eq9XCYDCgvb1dvgadToeZM2fKcmFfsbGxssS2ra0Ner0eCQkJOHXqlLyPMsgPtAdTKC4uVo0qSUhI6Pc9odFHr9cPeByN1+vFq6++OkwrIiLqGwNMIqII4BtMpaWl4Y477pBB3/79+1WZQiXf7pCDKZ3U6XR49NFHVcFrXFwcpkyZotrD6EuUjLa2tsomNRs3bgz5ebu6uoIGsMEaj4Ra1nf06FF0dXUhMTERbrcbVVVVqq6yfc2oDOX2TqcTzc3NmDJlCo4ePSpvZzQaAUCWvQo9PT2YPHkyNBoNYmJi4PF44PV6ER8fj/b2dhw8eBDJyckD6uqpPGFAFIjH48GePXswZ84ceVlPTw+ioqLYQZaIhgX3YBIRRQDfPZhAb9CXnJyMxYsXIzk5OWiDm9raWtW+S9+s30CIrB/QW/5qMBhQXl6uClq9Xi8sFkvAQK+xsdEvsApGNOHZuXOnvKy1tRVerxcLFixAQ0ODfI6BDoa32+3YuHEjNm3aFLCM2Ol0yuA4FL6393q9qKmpweLFi1FYWIi6urp+A9/Dhw9j2rRpAKBq7qPX61FaWgqn06kqjx0INmkhJY1Gg0cffRSJiYmIiorCk08+ieLiYtkYrLGxEfX19bBardDr9ewgS0RDihlMIqIwUo4N8B0f8NBDD6GlpQUA0NDQgIyMjIDBUrD5h263WwaL4jF992D6EvsiBb1ej+bmZqxdu1auT3R01Wq1yMzMRHt7O9LT0wH0NqCJiYkJ6bVrNBqUlpZi8+bNMvsn9oWKA14xG1R0dvUtERb27dunKtPNyspCfX29zNBotVqUlJTIktesrCy5ZnG9wWBQdZHt6/ZWqxWxsbGqdXZ2dgadoel2u9Hc3Cw79mq1WlRVVcnrA5XHAsH3YPo6deoUS2SpX75zbe12O7KzswfcoZmIqC8Tpk6d+kW4F0GDd/bs2XAvgWhcczgceOihh6DX61FdXT0kjylKMQ8dOiQb+SgPDPPy8lBZWYn169cHDDiVewdF8Ok7QkPswczJyfGbjceZeH3znV3pe50YeaIcrSLef9EY6MiRI30+R1xcHH7+85/j+eefR25urmoPpggwlY+jHK0yUEVFRXA4HNi6dWvQADmSLFy4EADLgkPhdruxc+dOmEwmWK1W1e8U5W3MZjPWrVs3boJM8Tk/cOBAmFcSHtOnTw/3EmiMY4A5yjHAJAqv4QgwiUYSA0wabxhgMsCk4cU9mERERERERDQkGGASERERERHRkGCASURE44pydiQRERENLQaYREQUErvd3ueMTWXg1t9tgd49dBs2bFB1hfV6vXj88cfhdDqHZY0AkJ2d3e9YEafTCZvNFvLlRERE1ItjSoiISPLtKAuE1lVWBGvz5s2D1+vFqVOnAo7TUGpra4PBYFB1Yj169CiioqL8ulkqu7MKwcaz9Hc/QYxAEbKyslBaWtrv8PmGhgZs3boVAFSdYomIiIgBJhERKYhB7APV2dmJhIQEaDQaOBwOv5mbQlxcHB577DH84he/wJEjR+RtRHDX1tYWcF6nGA4viLEfFosl4PNYrVY57iU9PT3gSJFA3G43HnjgATn+Y+vWrX4BtsFggNFoDPGdISIiGl8YYBIRUZ+UczUByAynMuPX1taGtLQ0eL1e7N+/H/X19Th8+DAA+AWsbrcb8fHxqhmfO3fuxMmTJ+HxeNDa2iqDQVHuqpznp9Fo0NXVhYSEBOTk5KiymOL24jkDldoGmgna0NCA0tJSAEB8fDxKSkrwxhtvYNq0aQDgF8iKDGZ1dfWoGO1BREQ0UrgHk4iI+qTX6+FwOGA2m2E2m+FwOFBfX4+oqCgAvUFcU1MTAKCpqSlgiWt/PB4PnnnmGeTm5gbMNGq1WiQkJMjnOXXqFOLj40Pacwn0BpEioxkTE4MTJ07Ist6uri7Exsb2m+Gsrq6Gw+GQ/5nN5gG9RiIiovGAASYREQHozRLm5+dDr9er/svOzu6z6U5jYyNcLlfAvZfl5eWqxxJBnq+oqCiUlpaisbExaIfXzMxMtLe3o7W1FQCQmJiIzMxMdHR09NsUKDo6WgaV0dHRAICenh54vV60/7/27j+4qvrO//gLEAgEQgJBEghICFIlSGpigAYRhZXcS3PD6LBVd+vSuOjOtkW200HXZcEZ2Gip3XGFOquYwTI6VDtZLLnZ3BuV0lCIiFxYssRSKIQfkcuPkF8kcDcW+f7B9x6JhN/n5pOT+3zMOCP35zuOGe7zfs75nO3blZOTc9Xnh9XU1Ojll19utzERAAD4GofIAgAkXVwlDO+ueunhqGGlpaVWiNXX16ulpUWHDh1SS0uL5s6dq5iYmMs23elog6DGxkbV1ta222TH5XJJkp5++mktX75ctbW1lz0vJiZG8+fP14IFC5SRkaGYmBjFxMRo1qxZKi0tveqGP8OHD1dycrIaGhqUnJysgQMHqr6+3orNtLS0m/gvBgAAvokVTABAOxUVFcrJyVF5ebm14hgKhdTS0qLBgwdbj0tKSlJra6tmzZplHS57vVJSUrRx40YFAgFt3LhRSUlJki5G5JIlS9qtSqakpFjPS01NVW5ubrtDWtPT0yXpipcdGTZsmOLj4zV+/HhVVVUpJiZGSUlJqq2t1YEDB5SUlKT4+Pgbmh8AAHSMwAQAWEKhkM6dO6f09HTl5uZKuhhu4ct8JCcnt3t8+NBXO8XExOiFF17o8DzOQCCg/fv36/jx41aAhldOO4rE+vp6a6OelJQUHTlyRJI0atQoHTlyxNqcqCMnTpzQ+vXrL3u9AQMGXNeOtAAARCMOkQUAWMrLy3XnnXcqGAxa14/MyclRZWWlxo8ff8NhtWzZsnbX1XS5XHr22Wev+/nhzXyki6G7cuVK6/lFRUXXvG7lpQF56eY+c+bMUWNjo1555ZV2h8fGx8ersLBQNTU1GjZsmF544QXrvlAopOXLl8vv91s72AIAgPZYwQQASJK14c0zzzyjoqIiFRcXq7i4WC+++KKOHz9urWhKsi4Tci3hXWfD/xQWFqpv377WOZhZWVmaOXOmjh8/3uE84dtDoZBeeeUVPfroo9aqaVpamrWy2pGamhrt37/fCsjU1FStXLnSWum8kcNja2pqNHfuXE2aNEmBQEBHjhzRvHnzrnhYLgAA0YoVTACApIuHmhYWFqqwsNC6LSEhQRkZGVq0aJEkafHixfL7/UpOTr7ijrDXo6PrYEoXQy68cipdXPFMT09XdXW1kpKS2q0aPvXUU5LaX6dzwoQJeu211yRJVVVVmjlzphoaGvT973//ijEavr5l+LmXBmd41VKSiouLrdXSBQsWqKamRkuXLtWyZcs4hxMAgP+vR1xc3AXTQ+Dm1dXVmR4BiGqBQEA/+tGPlJWVpdWrV5seB7hhzzzzjAKBgF5//XXbz6eNhClTpkjSFS9nA1xL+P/zbdu2GZ7EjMTERNMjoJvjEFkAAAAAgC0ITAAAAACALQhMAAAAAIAtCEwAAAAAgC0ITAAAAACALQhMAAAAAIAtCEwAAAAAgC0ITAAAAACALQhMAAAAAIAtCEwAAAAAgC0ITAAAAACALQhMAAAAAIAtCEwAAAAAgC0ITAAAAACALW4zPQAAdAeBQEBZWVmmxwCiBr9vANA1sYIJAAAAALBFj7i4uAumh8DNq6urMz0CAETU2bNntW7dOnm9Xp04cUJ333238vLylJ+fr969e5seDzDm/Pnz8vl88vv92rFjhyTJ5XLJ5XJpypQphqdDV5WYmGh6BHRzBKbDEZgAosWnn36q0tJSffTRR5IufpDOz89XZmam4cmAzldZWSmfz2f9PkyePNmKyx49ehieDl0ZgYlIIzAdjsAEEE3OnTsnr9er0tJS7du3T8OHD5fH41F+fr6GDBliejwg4v74xz9aq5bNzc2688475Xa7lZuby+8ArguBiUgjMB2OwAQQjfbu3Suv1yuv16u2tjbl5OTI4/HooYceMj0aEBEnTpxQWVmZ/H6/Dh8+rMTERLndbrlcLqWlpZkeDw5CYCLSCEyHIzABRLPy8nJ5vV7t2LFDAwcOlMfjUV5ensaMGWN6NMAWbW1t8vv98vl82rVrl3r27GmFZXZ2tunx4EAEJiKNwHQ4AhNAtAsGg/J6vSopKVFdXZ0mTJggj8cjj8ejnj3ZLB3O9Yc//EFlZWXatGmTJCknJ0cul0uzZs0yPBmcjMBEpBGYDkdgAsBFn3zyiUpKSqwP49/97nfl8Xj07W9/2/BkwI3Zs2ePtWrZ2tqqu+66y1q1HDRokOnx4HAEJiKNwHQ4AhMAvtba2mqtZh48eFCjRo1SXl6ePB6PEhISTI8HXNWxY8fk8/nk8/lUW1ur22+/XbNnz5bL5dLo0aNNj4dugsBEpBGYDkdgAsDlPv/8cys0z58/r2nTpsnj8eiBBx4wPRpwmbNnz8rv98vv96uqqkp9+vSxLjnCZXhgNwITkUZgOhyBCQBXVlZWptLSUu3cuVODBg1Sfn6+PB6PRo0aZXo0QJL0+9//Xj6fTxUVFZKk+++/X7Nnz9aMGTMMT4buisBEpBGYDkdgAsDV1dbWWpc0qa+vV0ZGhrXbLGDK7t27rfMsQ6GQ0tPT5XK55Ha7NWDAANPjoRsjMBFpBKbDEZgAcH22bNkir9eriooK9ejRw9pp9p577jE9GqLIkSNHrMNhjx07puHDh1thOXLkSNPjIQoQmIg0AtPhCEwAuH7Nzc3WauahQ4c0evRo5efnKy8vT3FxcabHQzd25swZKyyrq6vVr18/KywnTpxoejxEEQITkUZgOhyBCQA3rqqqSqWlpfJ6vbpw4YKmT5+u/Px8TZ061fRo6IY2btwon8+nLVu2SJKmT58ut9utBx980PBkiEYEJiKNwHQ4AhMAbl54NbOqqkqDBw+2NgEaMWKE6dHQDQQCAZWXl8vv96utrU0TJ060Vi379etnejxEKQITkUZgOhyBCQC35vDhw1ZoNjU1KTMzUx6PR2632/RocKhDhw5Z17M8efKkRo4cKZfLpdmzZys5Odn0eIhyBCYijcB0OAITAOyxefNmlZSUaMuWLbrtttusTYDGjx9vejQ4RFNTk3w+n/x+v/bu3asBAwZY17OcMGGC6fEASQQmIo/AdDgCEwDsU19fb52befToUaWlpVmHzfbv39/0eOjCysvLVV5ersrKSknSjBkz5Ha7NW3aNMOTAe0RmIg0AtPhCEwAsN+uXbvk9XpVVlYm6WIs5Ofna8qUKYYnQ1fz2WefWauWX331lTIzM61Vyz59+pgeD7gMgYlIIzAdjsAEgMg4f/68dW5mdXW1hg4dKo/Ho/z8fCUlJZkeD4YdOHDACsu6ujqNHj3a2sBn2LBhpscDrojARKQRmA5HYAJAZB08eNAKzZaWFmVnZ8vj8WjWrFmmR4MBp0+fVnl5uXw+n/bv36+4uDi53W65XC7dfffdpscDronARKQRmA5HYAJA5/jd736n0tJSVVZWqm/fvtZq5rhx40yPhk5w4cIF+f1++Xw+bd++XZI0a9Ys5ebmcv1UOAqBiUgjMB2OwASAzlNXV6eSkhKVlpbq2LFjGjdunBWaffv2NT0eImTbtm3y+/3y+/2SpOzsbOs8y169ehmeDrgxBCYijcB0OAITADrfjh075PV6VV5eLkl6+OGHlZ+fr+zsbMOTwU779u2zVi0bGho0ZswYud1uud1uPqTDsfh/F5FGYDocgQkAZvzf//2fdUmTvXv3KikpyVrNHDp0qOnxcAtOnToln88nn8+nmpoaDR48WG63W7m5uRwSDccjMBFpBKbDEZgAYNa+ffus0Dx37pymTJkij8ejmTNnmh4NN+gvf/mLdSjsjh07JMnawGfy5MmGpwPsQWAi0ghMhyMwAaBr+Oijj+T1erV9+3b1799fHo9HHo9HY8eONT0arsPWrVvl9/v10UcfSZImT55sxSXQnRCYiDQC0+EITADoOk6cOCGv16uSkhKdPHlS48ePV15envLz83XbbbeZHg8d+Pzzz+X3+1VeXq6mpiaNGzfO2sBn8ODBpscDbEdgItIITIcjMAGg6/n000/l9Xr18ccfS7p4mGVeXp6ysrIMT4aw48ePy+fzye/36/Dhw0pMTLQ28BkzZozp8YCIITARaQSmwxGYANA1nTt3zrqkyf79+zVixAjrsNkhQ4aYHi9qtbW1WWG5a9cu9erVSy6XS263W/fdd5/p8YCIIzARaQSmwxGYANC17d271wrNtrY2TZ06VR6PRw8++KDp0aLO5s2b5fP5tGnTJklSTk6O3G63Hn74YcOTAZ2HwESkEZgOR2ACgDP4/X55vV4FAgHFxcUpLy9PHo9Hqamppkfr9vbs2WOtWra2turuu++2Vi3j4uJMjwd0KgITkUZgOhyBCQDOEQwGVVJSIq/Xq7q6Ot1zzz3yeDzKy8tTz549TY/X7Rw7dkxlZWXy+/2qra3VsGHDrPMs77jjDtPjAUYQmIg0AtPhCEwAcJ7Kykp5vV7rUM3wamZGRobhybqHs2fPyufzqby8XFVVVerTp4+1YnnvvfeaHg8wisBEpBGYDkdgAoAztbS0WJc0qamp0ahRo6xNgOLj402P51i///3vVVZWps2bN0uSpk2bJrfbrRkzZhieDOgaCExEGoHpcAQmADhbdXW1FZpfffWVHnjgAXk8Hk2bNs30aI6ye/du6zzLUCikCRMmWKuWsbGxpscDugwCE5FGYDocgQkA3UNZWZm8Xq927dqlhIQE69zMUaNGmR6tSzty5IjKy8tVVlamYDCo4cOHW+dZpqSkmB4P6HIITEQagelwBCYAdB9Hjx5VaWmpSkpK1NDQoG9/+9vyeDz67ne/a3q0LufMmTPy+/3y+Xz6/PPP1b9/f7lcLuXm5nIuK3AVBCYijcB0OAITALqfLVu2qKSkRJs3b1bPnj2tczMnTJhgerQuYePGjfL5fNqyZYsk6cEHH5Tb7db06dMNTwZ0fQQmIo3AdDgCEwC6p6amJnm9Xnm9Xh0+fFhjxoyxdpsdOHCg6fGM2Llzp7Vq+eWXXyojI0Mul0sul0v9+vUzPR7gCAQmIo3AdDgCEwC6t6qqKis0Jemhhx6Sx+NRTk6O4ck6T01Njfx+v8rKynTq1CmNGjVKubm5crvdGj58uOnxAEchMBFpBKbDEZgA0P1duHBBXq9XpaWlqqqqUmJionXYbHcOrMbGRvn9fvn9fu3du1cDBw60VizT09NNjwc4EoGJSCMwHY7ABIDocejQISs0m5qalJWVJY/HI5fLZXo023344Yfy+/2qrKyUJM2cOVNut1v333+/4ckAZyMwEWkEpsMRmAAQfSoqKuT1erVlyxb17t3bWs28++67TY92y7Zv326dZ3nhwgVlZmZaq5Z9+vQxPR7geAQmIo3AdDgCEwCi0+nTp1VaWiqv16va2lqNHTtW+fn5ysvLU//+/U2Pd8P+/Oc/W4fD1tXVKTU1VS6XS263W7fffrvp8YBug8BEpBGYDkdgAkB027lzp0pLS1VWVibp4qGk+fn5mjx5suHJrk99fb18Pp/8fr/279+vQYMGye12y+Vy6a677jI9HtDtEJiINALT4VBItSwAABk3SURBVAhMAMBf/vIXa6fZzz//XEOHDtWcOXPk8Xg0bNgw0+N16MKFC1ZYbt++XZI0a9YsuVyuqNohF+hsBCYijcB0OAITABB24MABKzRbW1s1adIkeTwePfzww6ZHa+eTTz6R3+9XeXm5JCk7O9tatezZs6fh6YDujcBEpBGYDkdgAgC+6Xe/+528Xq8++eQTxcTEWJsAjRs3rsPHV1dX23LZj0OHDmn06NFXvH/fvn3WqmVDQ4PS0tKssORDL9A5+F1DpBGYDkdgAgA6curUKZWUlKi0tFTBYFDf+ta35PF4lJ+f32431nXr1unNN9/UT3/6U+Xn59/0+/393/+9Tpw4odLS0g5nKSsrU3l5uQ4ePKjBgwdbYXnnnXfe9HsCuHEEJiKNwHQ4AhMAcDWfffaZvF6vPvzwQ0kXz3P0eDzKzs5WW1ub5syZo4aGBvXt21fz5s3TU089dcPvsXr1ar3//vtqbW3VT37yEz322GOSLp4bGr7kSCAQUI8ePaydYSdNmmTrzwng+hCYiDQC0+EITADAtbS1tamkpERer1d/+tOflJycrLy8PFVXV6uystJ6XGxsrN59910lJydf92v/93//t1555RWFQiFJFz+8er1eVVZWyufz6eOPP5YkTZkyRW63W7m5ufb+cABuCIGJSCMwHY7ABABcr3379lmbAIWD8JtGjhyplStXXldk7ty5U4sWLVJra2u728eOHauTJ0+qublZ48aNsw6HTUhIsOXnAHDzCExEGoHpcAQmAOBGffjhh3rppZeuGJlDhgxRUVHRVSMzGAzqkUceueL9iYmJmj17tlwul8aMGXPLMwOwB4GJSGMvcAAAokwgELhiXErSuXPn9F//9V9XvD8YDKqgoOCq7zF06FD98Ic/JC4BIMoQmAAARJHDhw9rw4YNV33M2bNnVVxcrKKiog7vf+6559TY2HjV1/jjH/+o//mf/7npOQEAzkRgAgAQRV588cXrelwoFNKvf/1rBYPBdrc/9dRTOnTo0HW9xssvv3zD8wEAnI3ABAAgSuzbt0+9evWyNtuJjY1Vjx49rvj41tZWFRQUWJH5xhtv6MCBA/ryyy+v+V69evXSqVOntG/fPnuGBwA4Apv8OByb/AAAbkYwGFQwGNSOHTu0ZcsWHT9+XD179lRra2u7gOzZs6dycnJ077336q233urw3M0BAwbo/PnzOnfunBISEpSRkaGZM2dq0qRJGjRoUGf+WACugU1+EGkEpsMRmACiUVtbm7Zt26bq6mpVV1fr5MmTampqUnNzsy5c4K81OMuAAQM0cOBAxcfHKz09Xenp6crMzNSwYcNMj4ZuiMBEpBGYDkdgAogmu3btkt/vV3l5+VV3QQW6g2nTpsntdmvGjBmmR0E3QmAi0ghMhyMwAUSDo0ePas2aNfL5fNZtWVlZysjI0IQJEzR69GgNGjRIcXFx6tmT7QXgLGfOnFFzc7OCwaD27NmjPXv2aNOmTdb99957rwoKCjRp0iSDU6K7IDARaQSmwxGYALq79evX6+c//7n154KCArndbqWlpRmcCoishoYGlZWVad26dTp+/Lgk6YknntDChQsNTwanIzARaQSmwxGYALqzn/3sZ/rtb38rScrPz9f8+fM1YsQIw1MBneerr75SUVGR3nzzTUlSZmamli5dqqSkJMOTwakITEQagelwBCaA7mrx4sXauHGjJOlf//Vf9cgjjxieCDBn586d+rd/+zcdPnxYqamp+sUvfsGXLbgpBCYijRNVAABdzvPPP6+NGzcqPj5eb7/9NnGJqJeZmal33nlHWVlZqqmp0T/90z/p1KlTpscCgMsQmACALqWoqEgVFRUaMmSIVq5cqYkTJ5oeCegSYmNj9ctf/lKTJ0/W0aNHtWLFCtMjAcBlCEwAQJfxySefqKioSJK0ZMkSpaenG54I6Fr69Omj5cuXKzExUVu2bNHbb79teiQAaIfABAB0Cc3NzdZusfPnz9e0adMMTwR0TUOGDNG//Mu/SJLefPNNbd++3fBEAPA1AhMA0CX8/Oc/VzAY1OTJk/WP//iPpscBurTp06eroKBAkrRixQqdPXvW8EQAcBGBCQAwbvPmzfr4448VGxtrrcwAuLof//jHys7O1hdffMGhsgC6DAITAGDc+++/L0l65plnlJKSYngawDnCq/3vv/++mpubDU8DAAQmAMCwbdu2KRAIKCEhQU888YTpcQBHycjI0PTp09XW1mZ9UQMAJhGYAACjfvOb30iSnnjiCfXq1cvwNIDzhL+Y+c1vfqNQKGR4GgDRjsAEABizc+dOVVZWKjY2Vo8//rjpcQBHys7O1pQpU3TmzBnrCxsAMIXABAAY4/V6JUmPP/64YmNjDU8DONff/M3fSJI++OADw5MAiHYEJgDAmK1bt0qSZs+ebXgSwNmmTp2qESNGKBgMqrq62vQ4AKIYgQkAMGL79u1qbm7WuHHjNHr0aNPjAI53//33S/r6ixsAMIHABAAYEf4QHP5QDODWTJ06VRKBCcAsAhMAYASBCdhr6tSpio2N1Z/+9CcdPXrU9DgAohSBCQDodHv37lVtba1uv/12ZWRkmB4H6DamTZsmiVVMAOYQmACATve///u/kqScnBzDkwDdS/gw2d27dxueBEC0IjABAJ2upqZGkpSWlmZ4EqB7Cf9OhX/HAKCzEZgAgE538OBBSQQmYLcxY8ZIkg4dOqQvv/zS8DQAohGBCQDodKxgApHRu3dvKzLDX+QAQGciMAEAnerEiRNqamrSkCFDlJiYaHocoNshMAGYRGACADrVgQMHJH39IRiAvcaOHSuJwARgBoEJAOhUwWBQknTHHXcYngTonkaPHi1JOnbsmOFJAEQjAhMA0KlaW1slSQMGDDA8SeSFQiG9/PLLN7SjZ0fPaWxs1OLFi9XY2Njh4xcvXqysrKzL/snLy2v3Ohs2bNCGDRskSatWrVIgELjs9VatWmU95nqsWrVK8+bN63C2a7l0niu9dnjGaz1Wunhu75o1a6779u4qNjZWknT27FnDkwCIRgQmAKBTRVNgXupqIZiVlXXVeKqoqJDf79fMmTOtx4fDKyYmRoWFhdq6datcLpdWr16tQCCgQCCg0tJSSdLLL7+sUCjU7jWffPJJrV279rL4ffLJJ7V9+/brCsYNGzZox44dSklJ0TvvvHPFx9zIzxoWfv/09HSFQiEdOXJE06dPv+bzrmT9+vVXDO/uJhyYLS0thicBEI1uMz0AACC6hAMz/CE4WoRDsLCwUKtWrdKoUaM0Z84cSRdX6iQpEAjomWeekSQVFxdr9erVGjx4sGJjY62grKmp0auvvnrZDrzV1dVKSkpqF3Dh1+9IfHy85s2bp/fee08tLS3y+/3t7r/0zy6XS0uWLFFMTIx124YNG7R+/Xq99tpriomJ0fLly7Vhw4bL3nPOnDlXneNKDhw4oFGjRikmJkaBQEC/+tWv9Ktf/eqyxyUnJ+ull17Sv//7v2vPnj2SpNdff11Lly5t976PPvqonnrqqRuew4nCX96Ef9cAoDMRmACAThVeVenugfnNWJS+DjVJSklJaff4lJQUZWVlaevWrXr11Vf1+OOPKyEhQe+8846efvppSRdX9YqKirRs2TLFx8dbz62pqdHatWu1bNkySVJubq5effVVTZw48aozhlf0JKmwsPC6f7ZVq1Zpx44deu2116w5lixZouXLl0u6ethK7f/bSLLmvjRkKysrlZOTo1AopA8//FDFxcWqqqrq8PUbGxuVkpKiZ599Vrt379aQIUOsOS+N0tdff12StHr1auvn7o7CgXnmzBnDkwCIRgQmAKBTRcsK5jdjMTU19YZfo6KiosOVO7/fr+TkZK1atUqpqamqqqrS1q1bNXPmzHaPa2lp0d/+7d9e9rrhwLv0NTryzZXWmpoaLViwQLm5uVq7dm27x4ZXaMPnZF4an98UPsT30pXWmpoavffee9b7lJeXKycnR+Xl5RowYID1c96ob8bkjZxf6lScgwnAJAITANCpwoE5cOBAw5N0XS0tLVqwYIFWrVqlH/3oR3rooYeUmpqqNWvWtPv3sCsdhtrY2NjhTqKXxm/4cQsXLtR9992nBQsWSLoYocePH7dWTwOBgFauXKl33323XTh+M0IXLFigmpoaff/739eiRYu0Zs0a69DVsHDYXklpaamCwaB17uWTTz5p3bds2TJrxVOSfvCDH7S7vyPheP3JT35y1cd1F+HA5BBZACYQmACAThX+8Buth++FQiG1tLRo8ODBl93X0cripk2brOedOHHimq996YppfHy8GhoarjlTfHy81q5da23Is2jRIlVWVmrZsmXWeZdZWVmXrVpeSWpqqrXB0PTp09XY2Ggd6nvpeZylpaXKycmRJNXX16ulpUWHDh1SS0uL5s6dq5iYGCt4w755bqWkm9rBtjuL1o20AHQN7CILAOhU0by68vHHH6uxsVEtLS1KSEiQ1D44wyuLU6dOve7XvHR32qlTp6q4uFhz585VVlaW5s2bp/r6+ut+rTlz5qi4uFjvvvuuBg4c2C4Gb0VFRYV1uGt45bKj0E5KSlJra6tmzZpFHN2C8O9W//79DU8CIBoRmACAThWNO1zW19dr3rx5SkhI0BdffCFJ14y3c+fOafHixXr99dc1d+7cy+IxfHt1dbUKCwsVCAS0detWzZ07V8XFxQoEAlq7dm2HK6UdaWxs1Lx581RUVKTi4mJNmjRJU6dOveVzFkOhkM6dO6f09HTl5uZa7xUMBiVdPFz2UpduPHQzTpw4ofXr17e7rb6+XgMGDLAtmLu68EZaRDoAEzhEFgDQqaJtBbOlpUUvvviiVq1apYSEBC1cuFDPPvvsNWOnX79+1mVNpIuHz7722mv653/+Z40fP/663z81NVUvvPDCZbeHQiEFg0ErZGtra9ttzDNnzhxNnz5dCxcutHa4vRnl5eW68847FQwGtWDBAgWDQeXk5KiyslLjx4+/4ej75jmY4Z1nCwsLVVNTo2HDhrX7eUOhkJYvXy6/39/uXNHuLFp2agbQNRGYAIBOFT5sLxouAh8KhSRJ7777rnWtyPvuu69drIUPFQ0fMtvRa4Qv/7F69Wq99dZb2rhx42XnJoaFz1+UdMVdYi/d1GfFihVX3PE1fG7mzQqFQtq+fbuWLVsml8ul4uJiKzQzMjKsDYQkqba2VqNGjbrma3Z0DuaVhHe9ffrpp697h9vuIFp2agbQNRGYAIBOFd49NhoCMz4+XoWFhVYkTpo0SXPmzLECL7y76g9+8APFx8dbm/y4XC6dO3dOeXl5ktQuEhcsWKBAIKCsrCxNmDBBy5Yt09KlS63XWrp0abtrWobP0bz00iYHDhzQo48+qjlz5igQCFx2eZNvmjBhwk1FWfjSJZfOk5CQoIyMDC1atEiSLpvNDpdGeXFxsbVKGt7hdunSpZddS7Q74RxMACb1iIuLu2B6CNy8uro60yMAwA3ZunWrfvrTnyo7O1tvvPGG6XGAbuett97SG2+8ob/7u7/TD3/4Q9PjoItJTEw0PQK6OTb5AQB0qrFjx0qSDh48aHgSoHv685//LEkaM2aM4UkARCMCEwDQqYYNG6a4uDidPn2aozCACAh/eUNgAjCBwAQAdLrw+YQHDhwwPAnQvXz55ZdWYH5zcycA6AwEJgCg06WlpUkiMAG7heNy9OjR6t27t+FpAEQjAhMA0OlYwQQiI/w7xeGxAEwhMAEAne6ee+6RJFVWVhqeBOhetmzZIkmaOHGi4UkARCsCEwDQ6e666y6lpKTo5MmT2r17t+lxgG4jHJhTp041PAmAaEVgAgCMCH8ADn8gBnBrKisr1draqm9961saOXKk6XEARCkCEwBgBIEJ2IvVSwBdAYEJADBi0qRJiouL0759+3To0CHT4wCOR2AC6AoITACAMeEPwmVlZYYnAZxt69at+uKLL5ScnKz09HTT4wCIYgQmAMAYj8cjSXrvvffU2tpqeBrAudatWydJeuSRRwxPAiDaEZgAAGMyMzOVk5Oj1tZW/frXvzY9DuBIn332mbZt26aBAwfqe9/7nulxAEQ5AhMAYNRf//VfS7q4inn+/HnD0wDOE/5y5nvf+55iYmIMTwMg2hGYAACjvvOd7ygzM1MNDQ2sYgI3aPfu3aqoqFCfPn302GOPmR4HAAhMAIB5jz/+uCRp9erVqq2tNTwN4Bz/+Z//KUl67LHHFBcXZ3gaACAwAQBdwAMPPKC/+qu/Umtrq1566SXT4wCO8Mtf/lKfffaZRowYoYKCAtPjAIAkAhMA0EU899xzSk5O1qeffqo33njD9DhAl1ZRUaG3335bkvT888+rf//+hicCgIsITABAlxAXF6fnnntOkvTWW2/pD3/4g+GJgK7p9OnT1kr/P/zDP2jSpEmGJwKArxGYAIAu4zvf+Y7mz58vSVq+fLmqq6sNTwR0LW1tbVqyZInq6up0//33c2gsgC6HwAQAdCnz58/X9OnTdfr0aS1YsEBVVVWmRwK6hNbWVv34xz/Wp59+qpEjR+r55583PRIAXIbABAB0OStWrNDMmTPV1NSkgoICffDBB6ZHAozauXOnnnzySQUCAaWmpuo//uM/NHToUNNjAcBlesTFxV0wPQRuXl1dnekRACBifvazn+m3v/2tJCk/P1/z58/XiBEjDE8FdJ6vvvpKRUVFevPNNyVJmZmZWrp0qZKSkgxPBqdKTEw0PQK6OQLT4QhMAN3dBx98oBUrVlh/LigokNvtVlpamsGpgMhqaGhQWVmZ1q1bp+PHj0uSnnjiCS1cuNDwZHA6AhORRmA6HIEJIBocPXpUa9askc/ns27LyspSRkaG7rnnHt1xxx0aNGiQ4uLi1LMnZ3/AWc6cOaPm5mYFg0Ht2bNHe/bs0aZNm6z77733XhUUFLBbLGxBYCLSCEyHIzABRJNdu3bJ7/ervLxcoVDI9DhARE2bNk1ut1szZswwPQq6EQITkUZgOhyBCSAatbW1adu2baqurtaePXt06tQpNTc3q6mpSRcu8NcanGXAgAEaOHCg4uPjlZ6ervT0dGVmZmrYsGGmR0M3RGAi0ghMhyMwAQAAcL0ITEQaJ6oAAAAAAGxBYAIAAAAAbEFgAgAAAABsQWACAAAAAGxBYAIAAAAAbEFgAgAAAABsQWACAAAAAGxBYAIAAAAAbEFgAgAAAABsQWACAAAAAGxBYAIAAAAAbEFgAgAAAABsQWACAAAAAGxBYAIAAAAAbEFgAgAAAABsQWACAAAAAGxBYAIAAAAAbEFgAgAAAABsQWACAAAAAGxBYAIAAAAAbEFgAgAAAABsQWACAAAAAGxBYAIAAAAAbNEjLi7ugukhAAAAAADOxwomAAAAAMAWBCYAAAAAwBYEJgAAAADAFgQmAAAAAMAWBCYAAAAAwBYEJgAAAADAFgQmAAAAAMAWBCYAAAAAwBYEJgAAAADAFgQmAAAAAMAWBCYAAAAAwBYEJgAAAADAFgQmAAAAAMAWBCYAAAAAwBYEJgAAAADAFgQmAAAAAMAWBCYAAAAAwBYEJgAAAADAFgQmAAAAAMAWBCYAAAAAwBYEJgAAAADAFgQmAAAAAMAWBCYAAAAAwBYEJgAAAADAFgQmAAAAAMAWBCYAAAAAwBYEJgAAAADAFgQmAAAAAMAWBCYAAAAAwBYEJgAAAADAFgQmAAAAAMAWBCYAAAAAwBYEJgAAAADAFgQmAAAAAMAWBCYAAAAAwBYEJgAAAADAFgQmAAAAAMAWBCYAAAAAwBYEJgAAAADAFgQmAAAAAMAWBCYAAAAAwBYEJgAAAADAFgQmAAAAAMAWBCYAAAAAwBYEJgAAAADAFgQmAAAAAMAWBCYAAAAAwBYEJgAAAADAFgQmAAAAAMAWBCYAAAAAwBYEJgAAAADAFgQmAAAAAMAWBCYAAAAAwBYEJgAAAADAFgQmAAAAAMAWBCYAAAAAwBYEJgAAAADAFgQmAAAAAMAWBCYAAAAAwBYEJgAAAADAFgQmAAAAAMAWBCYAAAAAwBYEJgAAAADAFgQmAAAAAMAWBCYAAAAAwBYEJgAAAADAFgQmAAAAAMAWBCYAAAAAwBYEJgAAAADAFgQmAAAAAMAWBCYAAAAAwBYEJgAAAADAFgQmAAAAAMAWBCYAAAAAwBYEJgAAAADAFgQmAAAAAMAWBCYAAAAAwBYEJgAAAADAFgQmAAAAAMAWBCYAAAAAwBYEJgAAAADAFgQmAAAAAMAWBCYAAAAAwBYEJgAAAADAFgQmAAAAAMAWBCYAAAAAwBYEJgAAAADAFgQmAAAAAMAWBCYAAAAAwBYEJgAAAADAFgQmAAAAAMAWBCYAAAAAwBYEJgAAAADAFgQmAAAAAMAWBCYAAAAAwBYEJgAAAADAFgQmAAAAAMAWBCYAAAAAwBYEJgAAAADAFgQmAAAAAMAWBCYAAAAAwBYEJgAAAADglvXu3ZvABAAAAADcuv79+hOYAAAAAIBb14/ABAAAAADcqj59+ipxyFACEwAAAABwa5KThqu+vkG3mR4EAAAAAOBMffr0VXLScPXq0UunGk4TmAAAAACA63fbbb3Vv19/xcT0U+KQRJ2uq1dDQ6Nu69VL/w83llJHtNDLtQAAAABJRU5ErkJggg==;" parent="1" vertex="1">
          <mxGeometry x="1860" y="60" width="920" height="1056" as="geometry" />
        </mxCell>
        <mxCell id="XhPieVHF6vT0XnLb9ve3-17" value="" style="line;strokeWidth=2;direction=south;html=1;" parent="1" vertex="1">
          <mxGeometry x="570" y="450" width="10" height="160" as="geometry" />
        </mxCell>
        <mxCell id="XhPieVHF6vT0XnLb9ve3-20" value="第X帧" style="text;html=1;strokeColor=none;fillColor=none;align=center;verticalAlign=middle;whiteSpace=wrap;rounded=0;" parent="1" vertex="1">
          <mxGeometry x="430" y="630" width="60" height="30" as="geometry" />
        </mxCell>
        <mxCell id="XhPieVHF6vT0XnLb9ve3-21" value="Attack" style="text;html=1;strokeColor=none;fillColor=none;align=center;verticalAlign=middle;whiteSpace=wrap;rounded=0;" parent="1" vertex="1">
          <mxGeometry x="490" y="420" width="60" height="30" as="geometry" />
        </mxCell>
        <mxCell id="XhPieVHF6vT0XnLb9ve3-23" value="&lt;h1&gt;动作切换逻辑&lt;br&gt;&lt;/h1&gt;&lt;p&gt;1. 一般是从第Y帧开始&lt;/p&gt;" style="text;html=1;strokeColor=none;fillColor=none;spacing=5;spacingTop=-20;whiteSpace=wrap;overflow=hidden;rounded=0;" parent="1" vertex="1">
          <mxGeometry x="1580" y="70" width="190" height="120" as="geometry" />
        </mxCell>
        <mxCell id="XhPieVHF6vT0XnLb9ve3-24" value="第Y帧" style="text;html=1;strokeColor=none;fillColor=none;align=center;verticalAlign=middle;whiteSpace=wrap;rounded=0;" parent="1" vertex="1">
          <mxGeometry x="570" y="630" width="60" height="30" as="geometry" />
        </mxCell>
        <mxCell id="FtgXkmTBCFGqO78Omd1w-1" value="Cast-Point" style="text;html=1;strokeColor=none;fillColor=none;align=center;verticalAlign=middle;whiteSpace=wrap;rounded=0;" parent="1" vertex="1">
          <mxGeometry x="587" y="690" width="60" height="30" as="geometry" />
        </mxCell>
        <mxCell id="465H8YBh5ZiATIw_3BI6-1" value="" style="shape=image;verticalLabelPosition=bottom;labelBackgroundColor=default;verticalAlign=top;aspect=fixed;imageAspect=0;image=data:image/png,iVBORw0KGgoAAAANSUhEUgAABDgAAALMCAQAAACrysoxAAAABGdBTUEAALGPC/xhBQAAACBjSFJNAAB6JgAAgIQAAPoAAACA6AAAdTAAAOpgAAA6mAAAF3CculE8AAAAAmJLR0QA/4ePzL8AAIAASURBVHja7N13eBNXosbh36i4V2zTe+9gTG8JkEp6b5tedpPdzd1su9v73Zrt2U02PZveSE9IhQCBUIzpvTcDtnEvsqSZ+wcTRbJlMGBZtvjePE8eaTSaOTMSms9nTgERERERERERERERERERERERERERERERERERERERERERERERERERERERERERERERERERERERERERERERERERERERERERERERERERERERERERERERERERERERERERERERERERERERERERERERERERERERERERERERERERERERERERERERERERERERERERERERERERERERERERERERERERERERERERERERERERERFpNUbLb3LMfUyJ9mHFtOUr/xDtIoiIiJwYVwS2OZ4ron1YMc0Z7QKIiIicKEe0CyAiIiKxLxI1HACkMiByGz9NbaU02kUQERE5KRHLBH35GWnRProY8zMWRbsIIiIiJyVigcNJGunRProYoxojERFpr9SGQ0RERCJOgUNEREQiToFDREREIk6BQ0RERCJOgUNEREQiToFDREREIk6BQ0RERCJOgUNEREQiToFDREREIk6BQ0RERCJOgUNEREQiToFDREREIk6BQ0RERCJOgUNEREQiToFDREREIk6BQ0RERCJOgUNEREQiToFDREREIk6BQ0RERCJOgUNEREQiToFDREREIk6BQ0RERCJOgUNEREQiToFDREREIk6BQ0RERCJOgUNEREQiToFDREREIk6BQ0RERCJOgUNEREQiToFDREREIk6BQ0RERCJOgUNEREQiToFDREREIk6BQ0RERCJOgUNEREQiToFDREREIk6BQ0RERCJOgUNEREQiToFDREREIk6BQ0RERCJOgUNEREQiToFDREREIk6BQ0RERCJOgUNEREQiToFDREREIk6BQ0RERCIuZgOHn2rMFtiOhQ9/mK37sKJ9iCIiIu1GDAQOD7spabDMx7u83GjpyajlOZY2WOZlLk9RHu0DFxERaTdiIHDs4n7mUBayzOAAc1gRpm7iRHn4kA0NlvlYyntUR/vARURE2g1XtAtw6jqSxVt05DziA7c5HMzic5aTR05gPaNF91rHWgrtx2n0wxnt0yAiItKGxUDgyOAq9vASfcliUyBy+JhKPKsDVThO+tP1hCp0LExMvFj48QKOkFBRwp8DWxvHj0mM9mkQERFpw2IgcBj04zyeZxU9ebzJmygJ3EjnEwocdaxmN9WUsoFXgWEMCTpdHfgqWfbjdNzRPgkiIiJtWgwEDkhgJpl0oxP/2+g1i7UYDCaOrid426Oa9yggiwp2UsE+Lqdf0OlKJI9u0T5wERGRdiImAgdkMwsDgw5UAGlB7TXqeI56ptP9pLY7nln8lbFM5WkAVrMHqGcflXxMJgCDGRDtwxcREWnj2n3gsOxWGwYGUM5/qeRmugUiRwErmUTGSW49nR7E04GeJAPwEXMBqMHHf3FgAbcqcIiIiBxHuw8cj/I0Jk4u4TYyiKM7L/I7bmEMTmAfT5LGDaQAYOFt9nbD336poRPfJQ0fXuJxUMx/qI/2KRAREWnz2n3g6MxIqthjR4kkLqYDj/Mbvs9o4H12cF2gBqKIT5odOUY00UIjgZ5kks8iLqU3SeqdIiIi0gztPnBcxIVs5Q9BBzSZeF7gL1xEMh8xlPMCt1eKeK7Zw3XdRNdjvHqATzgz2ocuIiLSbrT7wNFYHBPowAO8gEEWX6Fz4JVufAtfM7fS9zgDhTli8dSJiIhESExeNR0M4BxWU0N3soPG3shg5glspbjJVyz8OImL9mGKiIi0GzEwl0pjXtbwDIn0Zyf/x4YWmTU2mEU5RmxmNRERkYiIucDh4yDP8lNM7uVvXMc+fslCak9xm5XUBd1i8VOGi6RoH6qIiEi7EVN/ppsUsY5PWElvbmICDq7GzSv8iVuZQeZJT99WxNvsYWIgnVWzn3R7ZA4RERE5vpgIHD5MLCxW8BobcDCb8+iHA0jlKtJ4hKdxcy7xJ7TVBPJIwQXE0ZHLmEwcCSQB29hNCiUkYZCkthwiIiLHFQOBo4L57COTGix2MoEpjA4a3DyRc3GzkR4nPIF8EmdhUAtkcjUu3MDl1FDK23iw+BtnMY5bSI/2CRAREWnz2n3gqOcp3iaTbTzB7fyFFJIbRItEzmE6SSccOBwkAXWAIzC8V18KeYzl3MgIHuEfTOGWY47XISIiIrT/wGHyCm8yixtYznPczUiySMQAkuyah1rKsYBaujH7FMYFtaijiPm8Ry03cAFp/Ir3mMN3uYwLSYv2iRAREWnT2nngcNCR6dxNBt3pwRx2swULH/4wa1560o1GAWqZy6N46cstzCAOSOcqevMMD5LEJae0bRERkVjXzgMHTGQEGYCD8YzkIBWY1OGz55D9kpM+J9W8M44zGGg/nswQxtAzcHPGyQSy+ZhhihsiIiLH1O4DR4o9EyxAAr1bfPtJXI8TSOIcZpHSoCWIQT96qJ+KiIjIcbT7wBFpRmCAr5QmXj+xzrYiIiKno5gbaVRERETaHgUOERERiTgFDhEREYk4BQ4RERGJOAUOERERiTgFDhEREYk4BQ4RERGJOAUOERERiTgFDhEREYk4BQ4RERGJOAUOERERiTgFDhEREYk4BQ4RERGJOAUOERERiTgFDhEREYk4BQ4RERGJOAUOERERiTgFDhEREYk4BQ4RERGJOAUOERERiTgFDhEREYk4BQ4RERGJOAUOERERiTgFDhEREYk4BQ4RERGJOAUOERERiTgFDhEREYk4BQ4RERGJOAUOERERiTgFDhEREYk4BQ4RERGJOAUOERERiTgFDhEREYk4BQ4RERGJOAUOERERiTgFDhEREYk4BQ4RERGJOAUOERERiTgFDhEREYk4BQ4RERGJOAUOERERiTgFDhEREYk4BQ4RERGJOFekNmzioS7aRxdjzGgXQERE5CRFLHDs4wHion10MWZrtAsgIiJykiIWOIp5J9rHJiIiIm2E2nCIiIhIxEWihmMTC6N9WM2WzgAS8bGH/dEuSrNtiHYBRERETpTR8psck05CtA+r2aZwP32o4C88FO2iNJtnZVm0iyAiInJiIlDDsbKc8mgfVnONOYIPMKlceSjaZREREYldasMhIiIiEafAISIiIhGnwCEiIiIRp8AhIiIiEafAISIiIhGnwCEiIiIRp8AhIiIiEafAISIiIhGnwCEiIiIRp8AhIiIiEafAISIiIhGnwCEiIiIRp8AhIiIiEafAISIiIhGnwCEiIiIRp8AhIiIiEafAISIiIhGnwCEiIiIRp8AhIiIiEafAISIiIhGnwCEiIiIRp8AhIiIiEafAISIiIhGnwCEiIiIRp8AhIiIiEafAISIiIhGnwCEiIiIRp8AhIiIiEafAISIiIhGnwCEiIiIRp8AhIiIiEafAISIiIhGnwCEiIiIRp8AhIiIiEafAISIiIhGnwCEiIiIRp8AhIiIiEafAISIiIhGnwCEiIiIRp8AhIiIiEafAISIiIhHninYBWlduCmcaPYxAzLIGkAHEMzXPE7Tax/mbol1SERGRWHKaBQ4SjEu51WpYr5PIZdZlQc9vRYFDRESkBZ1mt1ScFcYSKqJdChERkdPNaRY4fD5zC7uPs1IRpdEup4iISGw5zQLHKtPawppjrmKxzNgQ7XKKiIjEltMscIBVbC2g6BgrVFoLrF3RLqWIiEhsOe0Cx2q/Y4G1FqvJFQodq1Z6o11KERGR2HLaBQ5gn7GS2iZe87Pd3BjtAoqIiMSa0zFw1FrLqWzqNZb6Dka7gCIiIrHmNAwc+ZbxOfubeHG/9eZa3VARERFpYadh4ABzP3Pxh31phbk+2qUTERGJPadl4Fjlt56lLMwLPt5brfoNERGRFndaBg7wbmdFmMVFLI52yURERGLRaRo41tVb88MsXpC2N9olExERiUWnaeDAMj5pNIB5FS/M90W7YCIiIrHodA0csI25DZasIT/ahRIREYlNp23gsMp5MWTe2Ho+tjRpm4iISESctoFjtd/aQXAX2BIKqIt2qURERGLTaRs4TIyDrMYMLFjNugK14BAREYmI0zZwgFVGQWA0jhoWmfuiXSIREZFYdRoHjgKvtZBV9pMdLF5Ve4obFBERkSacxoED2MZiqgEf69kc7cKIiIjELqPlNznmNvKifVjNPvwh1kQS8bGeZbSXQc1Xr3w42kU4cWOSuIjp0S5FLLPmFbwS7TKIiDTNFYFtns210T6s5rK+OAujGBXtsjTb67TDwGHFG9O5J9qliGleFDhEpA07vW+piIiISKuIRA0HAKn0i9zGW9R2ehAX7UI0y7awU9y2L4kMUcptUXXspDrahRAROa6IZYIefIuUaB9ds7zFmaRGuxDN8keWRbsIp6wj328nQbS9OMjf2RrtQoiIHFfEfvsT6El6tI+uWa6lQzu5BCZFuwAtII7euKNdiJjiJD7aRRARaYb2caWNqI7RLoCIiEjM0+10ERERiTgFDhEREYk4BQ4RERGJOAUOERERiTgFDhEREYk4BQ4RERGJOAUOERERiTgFDhEREYk4BQ4RERGJOAUOERERiTgFDhEREYk4BQ4RERGJOAUOERERiTgFDhEREYk4BQ4RERGJOAUOERERiTgFDhEREYm4NhA4LOrxh1nmxTrOO30cpvi4a32hjkp8x1nHpBpPyJJqysPuoZbqRss9zdjDF/s5zAG8ETib0n7UsY+SZn9/RUTatzYQOIp5guWYIcv28ndeouQ476xkDu83CitfMoO2arKQv7KziVe/sIF/8XlQaPAyj7+zNcy23+XlBoHBYgX/CNlD07y8wuOUtto5ltZWxTLmUX7Mdfbzbz5W4BCR04Qr2gWAapaSybigJT7eZA7ZdOAcnMd4p5ftdAgTG46qYi7pnEEcABa7WMR5gVdr+YR0JjdIXIlsYD3JjLGX7+ZtDnBzmK1voaRB1LHYz2LODlnmp65B+ZwkAX62U9igLkWaVs/2YwTLUFl0CXpWziIWcRgH/ZhCLimtVOIjvM5+upEO1Df6pBNwA1WsoaMCh4icJtpA4GjIZBWfMJI63mUgfTHs5Xt5kdqQNWvZRDy/axAaMriAPsBhFrMHH7PsyBHMyxs8wmT60hWL+kAo6Mi1/IeF9CQVKGcOB/kq2YH9unAfs+w1vMEy+3E6F1DGX9gY9LqDWXzH3oYRODI5nlJ+RfEx16jHIg4DuIkbAfCzhxf5lEoMnFhs4G2u4A5SW6XEfiooxQd4eZunqAp6zcnPmGo/1ndARE4XUQ0cJn4sfJj4qceFEwcmO3iQVH7KGh7lba6jo712PfupDLzXQyG1mBjsJ5OcoCBQQx1g0Ieb+Td/xMWMBodZxxKeoBeX0QWo4yX2BL07jX38BwCLg6SxjJWBVydzJnXUArXUU0IC8SQHBR4va9hmP+7EmSSRR+egPRsMwIOXGvy48VNjL3cQr0vPMSRzwzHrg/w8h4+rSAEGAuBlJfdzgByGkUc/aslnA8lRKLtBN6ZRF7TEQSo1QB0WSdQFPnn3ceKsiEh7FsXAYbGH1dRyhCMUYOFiGp05yMuU8lW6kcoh3sTidvtv0r78MVD9XMb75JPONpLIwcNMxpNm/3AbODEAg2HczAM8QgKTgi7ndcznUbpwGyPspWbQ5cBBdwg8zyQTX1CbDot6lrAIH+vx8C+cjOICkgKvp3Abw+3HbjoSz60NjrqU9ynGx17qmGO/06ArM4O2Ig2lcOExX/fyIR4uINt+7mctj7GHc7iIESQCMJ1yqklo9bK7mMCEkCUWG3keH4eoZlWgds3JOEYqdopIzIpq4ChkAaVUUcwmiohnCAavsIzzmIxBOudRyAckcDFdMDDsv/+q2cr7bGYWuTxOB67lbd5kM9MZ1KC63MVYbuEBXqYXXe1lflbyHA7uCLTfSODa47YPsPBiEk88Xrayhv4YGFhswOAcLEzAxMJJF/ra7wnf+qSa5WzH5DAmC3ECFsWMZooCRwsq5i3WM5Gv0i1wCTfIICNonaP1TIkkhLnIm9RST2KYeic/tdTjJjHkn46PakySiG9m+fbzCfXUUctWDgNQSxVpgQgsIhJ7ohg4HAyjE/Us4jnOYRYuknmWT5jKJXbTvk7chIuX2cd1DMUA6lnFh6yjB3czmBoMDLpxI/nM5S/0YzoTQ0JHHGdQTRwZIZed8YxmQuBGiEEivkZdVA3igm6V1PARB7mGVLxAX27mRcq4jWewgBV8jAnsoIIX+QSAnlwb9uRmcRO1VPNvLO4iA/DwN5xh2plIKA+r2NqgiWUGM8PcJjHZwWo6clNQ3AhVxkLWUo6PNEYyww4ilXzKHmaTzntswEMK05kW9Cn62MJ89lNHAt05jz720nV8ygFMspjIxGbUoRiM5jtYrOe/zOAcAPJ5KWz0ERGJFVFtw5FGGl5eAjoykGr+wgImcjlpgfv1WdyIhwUU8jW6s4l3WU8mFzODDjiopRNpWKQylaG8z/ssIYdJzKYPDuqxAItZGLioxWv3F+jF9cThxw84cQM+PuFxqoN+7i068FP6s4cPGUMu9WxgKxfRAYA4OpBAHJnEUwfs4AOyScSkJyUcweQw/bgaPzVhxuXoQTIVxJHASLKBWpJxtYX+yW1cHYt5PaSprZ/+TLQDR3AQqWcbh5kV1OA41BH+wQLcZGBRxEIKuY5MoJbl5DOQz1iOm1oqWYqXs+2tVPE+z1NEEgnUs4kh9AHq+ISnKKIDDlayiOsCcRm7XJ4GTZ0B3AzHTRVO+jAGgFJcbbEFt4hIi4n6b1wh87E4wj5SieNMMvldg8vEneRSRm/e4yXSycHNKtYCYOJhP78MrN+B3tRRwGh6U8S/gpqCHr1xUc0/gv4etjCZzSUkYlFLNdMYZG/JYhGb8AFFvEsWuXYD16aYdOZbDMFPKckkUccDHAYKeYr19nsdOOyWJRO5HYB4u8JevVWay0s2t9LTPl/1/Duo7U3wOaxlC/X0sdtuNOYnkZuYSEdMlvEorzGQGTgBP+U8ykD+QBYVvMh7vMwIugAWb/EI6dzOZFKpZR9dAJP5/IMsvs04XKzlaR4nnfNCakXm81/7kYXLLmdnvsogLCAr0PJIRCS2RTlwWKzBjcEKtnI191BPPoUN1slkEmBwNt0YyDO8S/eQS8kXgyvVs5evchlFdMCFi+wGt0m6NthuGWs5FGiyF8dYzrDbXZiUsOWEjsNBEqkU8iCzOTPQeTaePjiw2Mc6BtAHB2DQAyc+O4IcPQd+u5mrHE8CAxhon6s60kL6fnzJQxFO0pv8cqdyPd3ssz+N7bzCXnz2Z+8hkW+SA3TmBpaxj410xuAwrxDPjcy2b5n0BqCWt3BwNWcTD0yhkn+xjJlBe3aQxXDAxwLiGWu38uhAMlCLGbiV5sc65pgzIiLtXZQDRx3LmcoWBlHIC/yYLKYxAT9rqGAybqCGREycQBe6UAZ05U56hdnWYX4PJNITgHRuOk5T0A38PuiZl82BVhsme5ocTuxYPKxifNDzLK7AxOIpDnE9E+2tO3FTg5dE+3k9dSToYtOCzKA4F04CPQA/PnxUE4+D6sDn7eYcsuzH3ejLGgoxMVjCfqYzrUELjZ2sZQjDwb4J2JEMduEJagDsJJfhwB6WMZGv2+83iMPkCGagGWsNJomKnSISw6IaOCzWsY+b2Ek3xrOQSlaRyWhM8tnFNDoAn7Oc6+yxFb54ly/sLCS+kPv4TtKPs/e0kIt8LW/wQeBZRbP7G4QyQt7nIB6oZhUDGE0yvsDpLsdDhv3Mwh+oapeW4CQeH7XHCI3lrGYnRZRQQSGeoDUT6RE0LkZnCqjBwsda3AwKRJEvbKOGIl4N1FOUUEoS9SHruHBhsgUPE8jADPRf8nAQd2CLquEQkVgX1cBRyWtk0x1wMZ4RwDwS6Us6WSznMNn4WMLqBkOL7+WvYYvtp+IUypLMVeQFajjeYuFJbMMLjYKKxUr2cglpLGQ1t9gNCg9TS89A4JCWFU82JkfwNdH3p5B/shIvJhkMxhUyZ48zaPAtR+DTNCnHTZdGtSZVWBzg3UBEsfCSGibo1LGCbEZTxPMM4Gx7YPO9ZJAZtJZCp4jEsigGDpNlbOV2+++6OBKpoy+L2c0oBvEyuxnKXjYykW4h78viHHLCbK+c14OeWezgo6CRSRsrpizomZMuDAi04cg6qR//cpyNGipW8CbdGYuDIt5nIGdjYLKVOgbbl686yknSX7fNUstGqu3H9U1OjZbIYD5hHWVhxzaxeJpFTOUKBpKAj7dZ3+T+vvwWOPBTgdXge+HEyVTuCtmPs9G302I167mBLA6wh03k0gWLfRymTyDSVEErDbouIhIdUQwcBknkMTqo4Z+b3sxlJ8PogZtC/KymkhkNBnzOYDr9wmyvMOiWCFiUsfKY883WhTQ59LIJd6AZZ3PacPg4RHlQjYZFIXGkhaxjsZkdXE4WTsYylzeZSBolbCHLHsUB/Jh2DxY5noM8FPRtMOkXtqVGHAPownoWc0GYnip+CsjmQsZgAD5qmjEtnJvuLGArVQ1CQS8c1JDSqEFyqArmkc6ZOMhmKG+wmS742EEFQwPl1y0VEYl1UQ0cQ+hONvsCSxx0IoUD1JFBFwopZg2ZIe03AIp4LWggry9VhdRnGPTnG2HbenxhO48FPavjfT4LdIstacaPfzXvs4bzA6ewjo0kBwbXPqqceSTbvV86MYq3WM848tnGGYE2JrVhbsRIeNlcGXJxTw07+6tBXybzKk/i5LygyFFPLUn4qQ/cOLE4zKom+roEczGdOaxmFZNC/skMojt7WRM0l48Hq8H4pH7WsYaZpADxTGIB7zGJKjbiDHTEPjqYvr4FIhLLotqGI7NBcDDIpjN7qSGTiTg4yG4GNmr8Wcv2sCMs1Ic01jNIZ8RxDj34Bz6Ry8gNtOF4h88BcJPVoF+Cm7EMIAVIYDTdGEsC2QwgiZ2spYI1JJFEN+IwqGIuixjDAXZTQTm7qGIpPfkMk+mBv209utQ0i5OujOGMwDgcx5LBRRzhIx5lG2PJwk09pWwgh/NIIottLCadNIr4gG3Nql0aygw+4jkqGUQSlRTSkz5kMIMXeRU/Q0nEywFWMjlkgHKLXbxBFSkUUE0lB6hiBRuoooAR9AlEXH0LRCTWRblbbMOf+gwuxEsKbi7FYBUlXBpSRAfpjOK6Bq06jirmwVOYmstFT4YH2nDk2yXrzTfpFLKem9FYuDGIZ7w9o8YEhuPlNUrozX9YxlVciB8XlWzlMJ+zGj/1+EnEyXIyWc2owIwrUIURhSnF2p8kZuNpZusag97cTg7PM4d5JOLCi4cKLsTCyVls4k1WkEQVXZnG3GZsMY6v4GEBu8ghgWoM7qAPTi6imI94gE7E46WUekY2eGcp2yjhOZx48eLCoIY5ePAyM9Bk1E8dyQocIhLToj7S6Jd81GAyGPBSgZN6NpBGb8oBFwnU4cPkcvvC3VgavyCOciCBOHbZk2I1bUeTVelWoOdIKoMx8FNHXWCk0C/bEHwxGHU8+3iOVVzPucxjDr/iMs4BUpmCi2x60IUsEnCxhtV8hINzyKAWHw48FGCE9FWQ8Bz2wPJfMvFg4AD2c7jBOXTQgzuZwgfsw4uFg0zymEoqcCHZvE8FDiZwOXuppT9OIJ5hJITsZQBnBGoh+vJdJrKYcqATIxkKQA++ySgWUwmkMIyzGIIDSGY03UnDoA+XUUh3epNDKvFUMp99fM6ZjLAbGsMetpLV5MioIiKxoA0Fjj38iaqg5yZH8PNbXMAIruFNljZrOK44rmEm74X0WQnHG7K3o3zsowwfG3ESD/hYRBFx7KKAIWE6WVpUcpD3+RgH13IxaVzBcJ7jSRbxTQYwk5kh6w/iFQq5hXE4eYvXMPFTTFcGRfvkt0sH+CeQg8Uqislr0CfFIJ5cRuPFBziCJuNLYibT8GEQj0F3JtnL07muwR4u5MKg7XXgYmbjxcIdiJ0GHbiUC/Fi4SQuUP/SkTvsR1ncGLLNVDrxJH2YTRbFfI86oJJqbg4zDZ2ISOxoQ4EjOaTHSqieJNKVoc0KHG4ycZB33L8XD4b0ajmqno94i3qcTLKbf+7lTepx0Z0ZYbot+lnCf6hnJGczkUTAyVDu5W3e4QP6NaqJKeIIZzCDJKAzOXiw6MOZYW8RyfEkUUwRG4F4JnNp2E/cIC7saBzuBn2fmiv8FGsnMvGahw3kcC0jcJBCbw5hkkVfzlNPJRGJaW0gcGRwCf0xyOGWJgfBcuDifM5u5hbjcTGBCcdZ6xB96IMbcDKYa+iDg3jOYRAeXHbDUBdn0g8/brLpFtLSYiq1uHHQlRkMYxhZQaeyI1czgJwwN34GcC85dAFgLH3xAYkh75XmS+WrdkRNoCtd2skFO4lryWMcLiCRe/Dgx0W6RuEQkRjXBq506Vxgz3xx7EZzSc3eYvN05Ep7vw4G0B8HBk562nOxHGU0eP6lyfYQ1UPoE6ZrZgpTw17+4hkXWJ7U4kd0unGHzFzTXhh0oXNgjthOp7w9EZH2oQ0EDiNKhTBC5vQ8UV/UXrjCjgTR9DDV7eOvcIksfQtE5PRz4ldaERERkROkwCEiIiIRp8AhIiIiEdcG2nCEY1FGIV1Jx6CezRj0bbKJpUUpe+hEx6BeIXsook+jgaKiz8KPoanamqmejWTRGRewl/30pWML72Enuxh0nP4th1lGGuOCOt16yecw4+zeRk0xOUAFGU1u/QiFdGnwHfWwl/I2+c0VETlVbTRwmHzOS1zHLJyU8ig5DaYAD113NY9zMRcHAofJ2yzhvjb4s72VhxnM1Q3mlJXwivkHI7iFDCw+YBF3kRP24u2hEM9xtpXVYFq9o95lCV87ZnAw2cgTXBTSH6acZ4lj1DH3Z7GBJ9jNDUHfy2B+CniZm5gUdEQma3mYEu7g/CidcRGRyGmjgaOWDzDpihNYzxZGN5rC7UvVLMBLr6CBnApZRDK9w65tUcUWVrOEXdSRRC9yufQ4f6u2nAqWwTHnsG1PchOMe/gZDnbxifG2sdU6bHoKmjM2WzNtZLdds1DDYqwm6woO8kt2BQVSPzW4g0ZN8VHDN7gG8FMbNHjcEeaTQZeQWYa/4CIBB3CI9yijigX23UcXg1nNWoawhq32uk4G0DXk7qTFLv7LGpy8QA9yw0QOL3upJjNkmreNPEUVCTzHYHqrFkxEYkwbDRw7Wcu59AXqeI8kelFNdcgaBvEkUEs9W1jGeDpRBrhJwWQpB7kSiyP2ug4S7TE+/OzmFT6mlhSyceFhDzsY3mqBw8JscnCzdsggjlQcjGC4dZO1hbnMy93hKPZ61rRA7PCyhGTGEYfFevYwibjAJ/oFB6k4sfAwnLsDX+Zd/IupXBB4vobH8AOwg+cpDLy7gj3U8Kcwl3aDoVxJZ7wsZAkJvM879jcomSt5A4u9PAR2yE3gNjoHBQ6LXTzJai5nKH/hQe4iN2S0Ux/FlLOLLHwcwCCRdCz28hhl3EUWf+dPfJs+YWtGRETaqzYZOPwsxcVwkoCdrMTN+3zWqOCjmcqnrGEvR9jFUxhAPy6nmpXUsYF/B9ZN4SyGY2Cxk0f5jO5MZBi9SaKc3ewhJ9oH3P4ZZDKBPONmlptLXBvGrLMOFvhPbZM7WcVQBmFQyTtUsY9HG0WDdK63b5WkMCBQx2URR3bQ8+LAI1fQcGtF7KQzfcO2mzZIwAns5h16cRHF5HMmnQEf69jDJfRnGV6mkAQ4GBgSN7bwX1ZwDpfRiWqe5mFuZEJQG5AyHqCUnbh4BBcwjkvYzjPs4yYm4uZG/sHDXMOIsIOyi4i0T20ycJSzjGwGAz4W4GcSbpaSyISg4jpJwMdq3qcbAzHZjsVuiriIHWyjF6nUAmCxk3KGMRyo4lkWMYQbGUMyBtCVIdSpq05LcdGbnsY5HGCN8dnY+Z5daytPdlMeFlDBDJKxWE8BwxjEWvYxOWSC+uTAYx9VgW9HNSaeoOdf3kbpzm347GWvsp+vMK2JTz+OFI7wDKXcxvms4GOKuYg0VrKKPlxDGvtYyCTOaDAni5fVPMF2zuIaOmIwA4PneJhizgsMEZfAGNZTyFR7Dp1OLOI1tnMzo6gCBnIhr/BvrmaSWvuISMxok4GjgJ2MIAfYzDxG8jXKOUAWNwf9lWjgwgukca89PLSH3wFVLKWab5Brr2fxMu/al6XVfEo3bmBiyF+OwTOk+CiiGCfdSAtT0V7NXqB70GXui32Uc5B6sukUVA3u5wgHSaR7yB5inoN00hnIWeaN7jVj5lkLCvaezGYOsxI3/TGoYBHVfIWhPE01FzMk6Ow7Aud2I38KRIcKilnAnsDzYsrtR267IbGfpeSTy0yymixBBa+wmEuZRRzDOIMPGUMfXqOY79EFmM0e3mJKSP1YKR/wFnu4mQvpiAEkciaJPMkTbONyBmAAKVxAHSVcSl8sDvIWHwAO5rPY3o6Xrvh4kMVcy5Bof6IiIi2iDQaOEt6ikjgclPISh7mXbnhx4iKlwXygPsBJT/vvRA+JmKxjEeMYT6a9jkWKfYHy8REexpDXREV1DUt5jGIsLFxcxdX2dOH7+CE9uJUtPEMJFl25numBkvg5xJMsxI+Fg9H8iHTA5CAPshwTgzTuZvLpFTrASRYdGMWVxsEx75ovOLZbzhNpBWmymh04ceMnn8WMYiwGcThIDHyeoarYHljuoZ5i/IHnNY2a6R7kbfaQxTNh6zcuphfgo5BRXEsyq/iEWQxgJJs4wIVMxgF049JAgDm61128wHzi+T5TSQj0mzEYSyce4m3yuYKZZOKimh10pphCclnKGwziBnZREdiWgz7k8F/2NDFwvohI+9PmAoeXRWzED/hYxAomk2dfOCzMkOnpw10qatlIMmeFdKG1cBAPHGQVKUxo4ifcIp+/kM4UunCQz3kCD7eQYDfx8/Nf9jKQRLayhQeIZxpOwMsCHuQwfehHAoV4qAf8rODvHGIkgykhn99yI1e13FRtGWPGRvtTssXR7Rgx4ujM8OkMctxubDA+twY2d7MWu/mII+Rgsp1XcHIrydQAFhZm0C6NwONJ/Cpwc2MzP2E2Xwk8X8zvQ7ZfyhwWkkIJpY32XcphJtEL6MA9uMmgiDdZznjOA8bRlVQ7PB7iSfqRZ5d4L6/wCbVk4uIDPmq03Ur6U8MDvM4FXEYRe5jGKj7nH8ykDx3JYgQAzkAdWQ3XE0fXaH/GIiItpI0FDotCFhFHKlDDbjK4NDCHbCEfBS4hBh0YE+b9yVzERHzMZ6pdPwF1OHBjsJ9KUunZ5BUyjcu4mGzAx3v8hfnMYoBdqj2kcTd5uDjAA8xnMeNJwmQzz3OYq7iBDoDFNhKBQl6kkFu5mgRMVvJr3mQoY1uqo+OZLI/253SC0qyJTDz60EsJOcfpf1HLQraQjgOTQio4m772uavmc/YF1nMx9iTGWqnnHV6kllu5Icz8xK/yr8DjHLtNxmrG0p8aALLBbh1UQxU19lKDxbxHD2bShQWBGzghp4BZdGMO2/FisBcffdliv9KJ5fZ7nAxiGNVU0I2N/Ik77W9g8+Sl5VecwOoiIq2qjQWOWj5lE7NZAiRzHpMYFnhtG08G1WoMYVjYC3gOXXiWN6jjQpyART0WYHEEP8mkNrFng4EMs0+Hi1nMoZhC+mMAFmlcSB4uIIfJrGQbHpKo5iM2MYsbybC3MQDwspi15HEJCYCDMczkTdYxMszl7fRTymece8wbBRYHmE8P0tmGk+F8je6BG1jlvBl0FuPpFggc+3gtEGMOUs7aoOc7grpUe3iLF0loZudki93MwcEM8lnf4LVKDuHhnwCcwUwSGERfTEYQvk9wEqn0ZjfdiWcDWfQJjOOxlxfpQ0/qyOcw/VjGEv7nhM+s0cf6Qe4DBQci+OGJiJyCNhY4isinD9NZBTjpH/LaMK4Lutik2HfJy/m9fTky2cEQIJ7prOAZMplsH96XFe/HGgUjEainhBLKqKIWf9Bd+Bz6BsJIZ9IpxQOUsI14LrbjxhcqWUclwykNVNin4qMIjwIHkMqI45wHP5sp5xoOsR2DLKYEvdaBm4KGxHLQI/DKLp4JLK+njAK2BZ7XUWU/quFDnqQjU3iN9bzWoIcJwErqg57V8gb5jKAzO9jcYE0PdZTZS0cwhkvs/SXStA50AOrYRBWvsZ6DPEVXUonnHKZQSgVgUcyWkFI003RmGpl5DzvXLYuVkeVEJKa0scCRxnA6N3HfOou8Bj/mHsDP3qDujwAG/bidH/IS3egHdhdaSMFBDRVNzsdhsoynKKUWDz4qg/ovGEGjNxgkk0g1JhbllNKh0aBhNZTj42XeDiypph6P3R2zBSw0fth6n8gxxVtX8dVm3SkyjUVWAuMhkT5hLvPBnPTmImbwepjXEhnC8LA7HMlXA9+D3TzIZGYHnq/lSQCqeImXqeE3WLzNEvLDbKk+aJB0iwW8bTdNvoxzGqxZyJ/pw9cBSMONgZ8dbG7yczbowhhcgEkVm9mBDz/PM4TZWNRRRfWpjUGbgcVN1kjfz0fPW3WKY6CIiLS8NhY40rkGNyfya9mBf9q9VOr4lr3MQS5X8ywv8FU6UGtPl9aTVKrZ1MQIjpU8ywvkMIwcOtKdx9kf9KoRdDPny/oSPyaJjU6hhYmTfiEdLp0tOYhTifOzFthKC/AmGuOxjhk46jjEBhZY75oHHL8MmZCkSQaD6H1CtUE9ecxuGHyUk3g6MiQQbAZxES4gkf6M5UpGsQa4mavC7OUNHvni6FjI3+hOEn4MMkjgfVZzdWCQLxM3yfZ37yg/K3gYJ/FhTomfMs5mJC4giSexMHmGBfyNVPKp5t88jY9SzjvJz8LCqCeOJCbzmPMvY59bUXTyn6uISCS0scDhIBUaDGL+hToOB3UudQZmV3HYF4DgfpdOLuEAbjxY1AAG0JkRfMxyJoadxmsz80jiFwzAjYHF8806eS4q7WaDBO3bhYsrmNTgyFpuoOplETjzJyO36Zcs6ihjl7XQeMNcV1+1wczNbP52XbiaCJ0+jnAo6HNOIRmLKrtu6wsl+KnmUEhNioMM3EwiN9CY2EVimM7KcYGtH+QVUrmdVayzt+BgGS5ut8d9Cc/BHUwM04OqhPuCbuc57OBq4MTAJIlbGU+5XRNzMgysz4wUhpFET35r9h/zV9+eNS1WqSYicuraWOA4lk38K+iincF1xxi0CbL4KnF0wI+JEzcQz0wWsooFnBu46HzBopAyhjHAroc4wqHjlscgkyx2kk+vkL9oU+mCySqmtKeT25IsSlltrWINSwo2t8D2gpTyYsiQbOczHR/zWB4SUCoo4TP2hVz2k/kKvXEHhZBNvBfm5s6aQOuJNEbRg1Gssp/HMZG1LGYglx7zk82mZ5jAkdBosLha6qhiEU4qMCmniArqTuXkrLEeN+7mMjpZSdxFJ+fD4z5bXnsqGxQRaUnt6JqYRI+g4qYe5xaFk872Iw+G/b4xTGUez+Fhht0106SGQlLohAWUU0scUM077G/GoNLZjGYNLzCYwfbWKkkmmTEs4kOmMtoOSNUU0emYjQljhEUNB1jAAqvA2ltTuaXFWxK46RwysmeqHfx6hgSOEjaR3uCyn9jo9ska9oYJBmWBwJHKlaSGNN7swNlsZgnnnOKA4yW8QCk1bKOQJ8lhCB7e5XO87D+lcTdca81fWzv4Gr2J42Kjr+/fuS8XnPTg8iIiLasdBY5+3BAytLm7WX8PWnhw2H/JpnMLMI/H+YyeJOOkiiPs52t0oTtZbOEhJlDPKvaQE9R4sCkJnM1WPuFP5DEIJ9up4DY6kMcE3uFvTGIQCRxkNXBvrAcOixLm8bG11thmHSmIUGV+GrMZGlRX4AKcTGRcSEG2UsAYrmtQf9EwoE5jVpjQ+mmgsaqDLAgJHE6Gcyfxp/xJ1vMJyfQhkzpuohvFfM4EBlPNBwDEk3VS8/sstzgw6hHHNsf3rfHEk8tPjF4jH1ij1hwi0ia0o8DhJDHMT30lD9k3SPzsYUCjbq/VlOGy/7o16M+99OIjNrDWvmzF0YlkYAgX8BLv8SEOunMPL7HdPjkOkkIqxB0kkogBGHTlHhwsYw4ODGAUABnciYelvIwTA4sUZtqtBZwkN6pcb8csLCw8VBj7rNfMOY5d1Pt9a5o3xMVJcRBvn/svi3C0F0kwJwbOoDE7jzKxQr7uXRgdpg3HjmO2tUlkUkgD4nDqqA6zRnBLn048iQOD51nEVFJZgZvhTKaU1YCDS5hNIic1BQ3VZSlv+tc4/sV0EozefN81Ytx91r4V6rUiIlHXjgJHeD522H+nmtTazUM9bANcxOFhAXuChjM36MTtXMhuivABSeTQmw5AIleTxza8pDGAbqRSY7fNyOHHJAVV5Hfj69TbA04ZdOPnbGQftTjpwAAyAYOO/IRN7KMOg3R60dP+a7s/vyG9ycHH2hvD4hCfstT6yFpXcDg6ZShiEUcaLCumjJX4G0QHB/2YEBQxDDskAngoIw6oZRe+Y3bbdVJPDXHAYWrDhBM/z/Je2O62X9bHHW0abeIMKsPRJqRHs5oLB348J9Rb6wvbwM/2sbea93Az3UngUn8X47ej5lVXb4tgEBQROb52Hzgy+LV937uO79nLavkr20khlWoO0ZcLQxqJOuka9k65m8EMDjwbFHiU2GAQ9eSg0U+PnsIR9jwYweIYychGS9NCKv/bO8vLh3xYsL8FNnWyJaCSlexptLwrVTTsO+zCpKlJaIp4GDcGxayjR6D1T3iHeIFEHKynxB7npXklPbZa8jlEIdk42MoaLDbhbWKiuuNbUTjmfvbzVYYSx3jrj84HU1/KO5SvyCEiUdRGA4erQaW00aiC/OhaY+hAB/uvVheX4CIOSOFqNlFt34cfwZjYuYnRphSYRDBsOBp9OR00nHLWoCu3NrNvh0F6oH7DaPANS8KgiBQ6MYBxDbpNN+zQ7KaIWjw4uJLpjfYRxyVMCHNL5QjfbbT0i+MxcOJjLvtIZjTxFPIi9SRxvj20/slYWZ77NFuN+zibOAbzQ8cg8+9dthYqcohI1LTJwJHAPbhDehV04m7iGjXxi+MMpgRul7g4zz4gF7OYihcwSDzOuJbSNjk4l7yQHikJXMSUBl2QIfEEahm+1Jsf0THom5HO1/ATRxzxDdrYJHIJM0NGk83mfzDxYZDVYE4YJ+PIZARdwsSEzvyKDiHfRYMzGUEC0J+76cYA6kihK27G8DP8xNPtlHrDFFQPnRd/gHuNO3HS2brV6NPl14VLIvBRiYg0S5sMHM4GNy0gkaFh1jMaTPnuCtpCi00GL1Fh0J3uIUuc9KRnC209tcGgZc5GA9R/+UqvBktcIaOLhq7bh95BLUOCxTPZbmH05RH2oAcGkMFojKAh99PC3Iw7GRvMoZvcP3KuMX5tdSCRc+g79ifmG6Z3VQtsW0TkRJ1M7zsRCavxTZ8vGY1e+XJJpG75bbBWl/of99/KZ3hwMtB8gF8ZffL0r15EokA/PSIxbbXHfJf7eJUjGHTiXuOnVt5wTVwsIq1OgUMkxq3xG/n8jL9xBEjiev4Ud2m0yyQip5822YajJZlhMpUZpnpbJDwLq8H35eh8wO1JvsX2vH9aRXydIcQzjS55mebLBSXRLpeInE5ivIajjKcbjdhospw3mpiRtmk+6o87loK0J35WNmOKPijheV4leEqSgzzAB6c20VoU5JcZT/FtFgEOBlg/52e5vVpgsyIizRTTNRwmS5nDYr5H78CBWuznFVYCX9YqW9RQTT0W9Xippx4fHrzUUk4xxeyljCrG8Z2QbprSvq3h78CPGHjM2i6LXbzJEM4KWraKt0ngjGgfwImr5WN2GN+yriGbzsbXGTTmt9byAs0oKyKtIqYDh4OpVPA4/8fXybUrwSt4h7XMZGbQeh4+5h1qgHq8mHipwEk2icThwkUOg8ikV6xPv3aaGcw1PMTDfLPR2B5fsqhjE1WMJRnLXquOeWQygbhAjVd7uT2XDybb837GZu6jN07Ooq/xl7yn80+0uk9E5CTEdOCAZC6lgjfIZyhJgJcC5jOcm0OGVHLRg1H4icPAST1bWcEQbqYbKfa05las33s6DSVyLkd4kTe4icywa5SwlSN8SjK1LAOS6Esa21lNF4pYbK/loDM92tE/pPzSvIesUu5gIgkM4NdW4pg343cuMaNdLhGJde3nd/IE+dnFHiwggyH4WIQLqGIuR8hjA1sA6ENPnLgYwRB7COti3uQAg7mGXHusUx8F7OHsUxr1UdoiJ+ezi88Yw5QwgdJiC/+kiiM4eQYn0I27GMQiKvDzcNBWZnNFu/qHlO8b87K11fgul+Imm58wxvO3vIL8Nhc5Bjnj4l1K+hHkqGl7n7rEsvb0O3lC6lnMy/gBCz9r7AuKj3LgQ+bba91AV5yACxfgZylvsZdJnMPAwC2YucwhkYEMbzdV59JcmZzBZ3xI/7AjjdZykFGcZz9bySE8HKKAHlxsh1GLvbxLZbtrTryyflS+86fs4GY604Er6Wz+bfTHq9pYO9jkoXyXvtEuRQzz+e9kW7QLIaeTmA0c8VzI1KALQR0PspEf0idkrUx7fhYLL1U8x5v059sMIA4/fkwKeZjl9OJbDFLciEEmRzjCAsZyftg5d1ycwfn2Y4sF+PiMHdzBZYE1Cvgo2gdxUlb7x23x/8pYZ/2WbiQww5Fr/XLM42nV81tg2y0mjdwwEzFLS6kPmUZbJOJiNnA4yAy5M19NCk66hf2DyaKQt/mQvYwkj3wWUYsXL5XsxMU1XEGHaB+OREQt+cQDnzCFrLBruAKTCLqw2MgC+nN2IJxYOMMOWt4eLLeo4Zm8bdbPOIMkK4s/MaDqn7k7CvzRLpmIxKaYDRwnwqCeHdTSmTI+JY44atlNFVmM4koGkRrtAkqEHGYjo+nAclYz47ixwaSKLkynlqRADDFxENeOmxTnLx1zO7/iYnKI52vmION3ecvya6JdqlDDGtRLHt9hVuMhnsH0iHbhI8jDhwCMo9MJvnMfa1GulNZ3WgUOo8kLQxeu4SzicZOEi60soYSxnMEYqpjD+UEzeUosWUsF55LHHl5h7HGbBbsYT0+28R9mMc2OJ/WYTcwP205Y1iF+Y2ziVobg5kzSrUdGv7qqLNrFCnYe15/gOxaxDQ/JXMrF0S58BJXYgeP6wLexud5mkwKHREGMBg4Pn1PbYEkhXj5nR4M1cxiFi3hGAQZetvMRyzC4ljPoBKziNXZxA33b8V+xEl4lH5JKLoMYzRsUhBnKy2Ivq+3Hh7Bw0olytlJIOsNxAu2/kX+B2X9P6sPGLr7HWOIYRxdHr7z/5O+PdrlEJNbEaOCo4VEOhCyxqMHP443mwJjMEFz2GO9lPMZS3JzPJLrb429MpoxHKeFO9VKJMSaL2cRZDCGRM3ib9xjbqA1dPS/xhv24hk6AwQBu436e4+v0BLverH1/M7ZZVOa+5dhm/sa4EAc9+ZY1eNw9y4ujXS4RiS0xGjhS+T98IUvW8xj7mcb1hM7MnUACFkdYxwreoYY8ZpPCbrbjwaIeH1WksZjD3MFUEqJ9YNJi9vEqqVxEEjCMy3mZV7m6wSfsJI+B9uMVlNrLJjObN3iDG8jEwkFcOw8cAAX141ab1/BjbqEzqVzpG5r7Yz4uqIp2uUQkdsRo4HDZf31+wcNnVNOVDVQGRtj4ksV+/stmDBLZxyOYuCjDQ1dScRJHT7qwl4cwmRmrJ+y0U8PH7OBs+gHg4jIW8gEjGBVy68zFGVxoPzaZZz9K5CJ28jEjmYIHsx0Nbn4sy7mqZs8ffTusuxlBnDGE+3kg9yXr0Kr2f9dIRNqE0+L66Wcjn9KFK3mcN+jSqOW6QXdmk0sicThxkEASr1DEPfTHTSIJ1PIZr7OZM06PExbz6vmcuXTi0sD8ONmcx9O8Sye6HDc+GPTgOjbQHQPzGE2R25uXoTz3v+wyvsF5JNCfHxkDeDR3dUF7G9dMRNqk0+L6eZjX2MfNTGcvb/Iy19OpwUUlg/OBGuYxma4YwGIq6Ut3NvERF5DBLPqRYQ8TJu2bxQ5eoYKvBo3K4mQWm5lPR65pxiD2LkYzkngsvBi4YqKG46gC7/AF8fut3dxJEh25xRjk+FH/ldvUpUFETlms/HF2DMX8l0WMZirpXMJYPuBpGraHc5BEKf/hKRZRH7Tcyyqe4X7W4GIwnWPownI628WjrGcaU0JGF+3MpeTwBh81q8NgHAkYgCcwi2ysWOfN38T/Wb9kH5DMDPNfqTflaURKETllMV7DUU8Rf2YFU/ga3THoys3U8CZr+BG9iQ/kLS87eIjVXBqYJeOoOC7H4DE2czMzSI6xS8vpyE8pf2INM7iJ7JBXHIzgCh7nfkzOI8n+rKsC4bQm7Iwp1bhJibncbhVZ/2Sz8TOGE8dY4/dmp9yH/WVr1JpDRE5BDAcOL3tZxDsUM5tr6YkBOBjAvbzI+3yXM5jGYNJxUM2nvEglN3NV4J7+F31c4rmCbJ7nAdZyNf0UOdq1WvJ5ig2cyS10a/RZxjMbD0/yLzYzmyGAh6d4zX71CBn2IzMQMGrZiCMG+y4VQO2Zb1XtNO/jClLpaPyEsa4/j1m2UrdWROSkxWjgqGM7m/iATXThK1wXdEkw6MOddOATXmce05jFUD7gOZK5nVm42EkRLjzsItl+l5uZdOIpPsLD9zXbUTtmspGH2cnZ3Em3sGskcjFVvM57QDfAQY9AE+NNeO1H69hGAm5gN0sZRLeYq+EAmG+yJvfHRglX04NkrqArvxn36fLqaJdLRNqrmA0cT7KCNK5gMsMa/QWaxS3kspSP+JRBDKKGYVzEcBKoYxmvYuChmlsCk785GMI9fEKm6jfauVQGcwazw05Gf1QK19OFAs6hA+DmQmbbrzzCp/ajrdyPizigioFcGcPzdRQcyP21sYbvMBKYxP3+50b/Z1VRtEslIu1TjAaOFKbSjSkMIjVsSIhjLIOZTBmjSOcSasjBCbjJI55yoDe5QX1SXPThGuLVS6Vdc9CPO0gh6ZhrpXAuE8jExUC+xbDAP5HzGGvfUptGJpX4gWT60DumvxUF5XkvmUXGfUwjgcF8y5GW9xC78tWaQ0ROWIwGDhfn4w9qFNqYQSq59sRbaYGOkE760hsTcDV4r6E5Y2OAo1nT8MXZa3Wlc9C3oDe97fDakTPtOVQcMXkzJVRtnfGRa7PzPm4ilQ7cbY22fjXm85W+Fti0iJxWYvb3Mo7E4x6cgbNR/YcDF3HtesJxaSmOkNhpBH1XHLhwNQqlsWkD672rd/h+yv+xGUjhbOMxbhiRHu1yiUh7czr8YorIKVpTZvyV+1iBBxjIn9335fYapF8PETkB+skQkWbI91ofcB9zKAWy+K7xs6Rxue4W2LCInCYUOESkWQpMx+fGj/kHhVgkc61xv3FpXmILbFhETgsx2mhURFreCj87c//JHuN/GUgSk+lE11GPrK6JdrlEpD1QDYeInAB/CU+a5/A5dTgYYN3v+vvo7qP1h4uIHJcCh4icgDUUmKt2cyuPchBwWbc4HjHOGBN747uLSAtT4BCRE5a2yfFr/somfLg42/gd1+Zm52kgXhE5BgUOETlh81lx2PgP/8tyTJyM5ZfG/zqzW2DDIhKzFDhE5KTkl1vvcSdzsDDoyVf9f88dGu0yiUjbpcAhIiepwGust77BLzmCSap1lePp3PPHxOnWioiEo8AhIictn4JDjvv5Fiupx2XlGg/wLat7nn5XRKQR/TCIyClZUe17gf9lLpUY9OWH/MAaMs0Z7VKJSFujwCEip2iN1/ep9SMeohrI4GZ+VzMr2mUSkbZGA/aIyClb42f9mD9Rwj10J5nZVs/cHMdr+RqDVEQCVMMhIi3CKDL+bXyLlVg4GWH8zvre6M5jyIt2sUSkjVDgEJEWkU9+Zf5r1k08SykOevALx0OMM+OiXS4RaRsidkvFwos32kcXY6xoF6BFjsEX7SLEGH8b+14UbMr9vrGOb9EZmE1n/pE7p6Au2qUSkeiLWOAo5L9oeoWWtSvaBWgBR3hM1WotqoLD0S5CKKugMO/PVg03MZI4Jhi/t1Jz3/IUbmhbuUhEWl3EAsdBno32sUkbdIQnol0Eibh83+jHnOut73A+Bt2NnzM64W9sjnapRCS69MemiLS4VTUsMH7II5Rh0IWb+OPYKeNjrk+cj/UspDpkmcV+PmBvs250ecnnpSZqqOqZzyb7tvQ23oyJ+k053UXiJ+AI+6J9WDGtJNoFOCkWZfpeRFR5tAsQKt+Xt9ZzX3wBP6MTSVxg5po/HvPKytrWLIOfOsxmrenAzYmPVVbPQjbSj+SgZRZbeJzb6BLYnoFFPf6QdzqJw8DHCj5gCDk0Hg3+IH9nBN8mAx/v8THfpXdrnjqRCIhA4Fj5db4e7cOStqagjB/z42iXQlpTvkUND+UdsL7DeBLoYTxs9R7zX+/etQ0ywBg3mWb5Kk9L799iJ09S2qx1czibXiexD3+YRtAmHraTYVcfG/THzRsNaih6cSFpgNkgiHxpHZX0JhkoZxWZ9Gnp0yPS6mKuklNE2pKMd8p2W99jNplWAt9jiOsfowpWB4WLPMPK5RbH3HGfJFfNb+F9V7CfgyFLSjhCNhmNahR6MBmLlpp1zsNrvB/Y2o8ZyE7Wh6xhBvrwxYWtWaljOYmMw43FGvaRR1WjmyrNi1IibYcCh4hE0Mf+vLXGL61t3EwvUrnU6OJ8cPQ7qwINH3yZzv/lIiaZGVWv0KIjkxr0Yxz1QUtM3uVDZjIDd4N14+l6gnFjI8vxso6DzCGd7kwK6pXnZgKDAw3kupHENQ1aeiRwmH3UcQiTndTb+3bRl0TAYitrGUV/oIwPKWcTf2tUAg07IO2NAoeIRFS+OWGb7+/Wdn7IEBKZRjdn91GPry4DmBBffy/n42aU9T/W2rxV+S3aeTadwSHPTQpw0ZWRjQLHiVvLUyRTST3vYzKa3JDAMZaZgZoLFw76NXh3HX+mAJNyavkPX4yN1pEf0R3wsJByziYRkzWsZwITWMoGzqdHUCyqoqDFPyuRSFLgEJEIW2pRmvuitdH4qzERF/2tXzoH5v6Y0nhH/U3GPSQCBqOsn/hvobI1ytO8hqTH5qMbX2ExO7mVVezFopYaLCwq8VNLBU4gjuSwXQEdjCILL6vZx0Q62DdRjth9W/azBic9gVIW4eFahlPOHqYxOihwlPDP1jhZIi1GgUNEWkFBPSvyruYn1pXkkMIdxmB+Ux/PN8i2V3Aalzs/Gvbwev8p7ui4Kiggh56nXMuRwkC2UsRADrMXk/d4CNOu13iER7CoZRzfpjv1YTrJnoubCh6klmvoB5RRxXbcgJeVbMeBgYdFLGU6I3DiwMCJKyhw6Mdb2ht9Z0WklfQt3PUL/3ZuZyAupvAAfgaGNJ24LWHhVetfjuiYpD5W8gkpXMoUMkNqH06k3iP8AEapXEUWFiYGDur4GIB63g7TZ7kXMwGTeEInm7HYwXzK6YDFdt4hk4tJps6eLuLLFilGi9TTiLQmBQ4RaSUvQ9Hofzu3W99gBi4GNVphhPWNbT+L9FjtOQzgM/7OemYwIjCGRi0FHGnmFjozLOzyRKbQg1JW0Imh1LKNvYCPFRwAKjlABp3sdccyAz8+XA3CSw0L2UVnTCxqiWcqfexMVs475AfWczM2sqdJpMUpcIhIK1pVl/ce2/kRV4fpDxrPbJaMf25ZBDtguBjKOczgUd4hn3O4jGwMoJrXWdvMbUw75iBcJbxJXlCaiucu6vHzKa9zFVPtpSkYeKgm2f4R9uEhGSf7+YTeZLEOB0O4l3SS7HfUspZtgQqh+EYNUUXaOgUOEWlV+fWsy33HuCzsABRdjCv9S9kUyf0bZJBNDm/yDs+ykRsYg4MEpjOgmVvoQ+IxXvVTEzKcl5PeQCWVpDMtZB/VlNLZbkvix0ccBtuo51wOsh5IClk7h7sZFggcuqUi7Y8Ch4i0qpEOV47xCyv8ZNIuZps7c39lFa+KaBkMenEPE3iE5azgf7iMFC44ofc3zcIipVErj71sZjzdqOYIGaQCJsWUMJr4wLvAwRgMzuDFsKcmO2S0kPY5x4GczjR5m4i0KkcfHraaHqnbYVzItNb4U8jJWH7MNXSiAwZgnMB/x+LF36gHTD3rqGUKcSzjp3yGD/BzgDq62I1G/XiIw0FHZjRoRioSK1TDISKtKC/dupHpx5wprRe3O5e3xlR/DnpzKyOZeAp/eVl4GwyQ6sFBasgWLQpZzkD64aQjPlYyjiw87CCBHPtU+KgnDRcOEpqYX6WePSS12PDrIq1PgUNEWs2YFOtabiH9mCs5jBnWrSN/3zolSuGMU3p/Pe+ylJxAwPBzGH9g6rajfKzhADeQgUFXhrGOA3Sgio10pqu9phfvcX6Oj/BcyLy001rnBIm0GAUOEWklExy+kdad9Dzun+lJ3OR6N9qlPbY0ewJ6B0W4mBKIAuWswWpwU2Q/H9CJoZhUUEUXPqWA/qxkD5cEusn68IZp+REshekhM9pmRfsUiJwgBQ4RaSVVxNUbxZSShPuYN1WgN9/h2WiX91hmMAUX4OYaOpKCiykMIIPPWEA1f+UrTOIyPGTj5QlWkMXvgHqqqaKCDxjEo3ThzEB/lzrqcB8ziSUzMWRo8+aOGiLSVihwiEgrWW+ygvPyhpmXG3n0pwvpTcUOy2WcS+Ixe59GWTLJdtuNVDIB6EQSK3iavoxnA/czgwvoRwIwgW0kkkgSicSTRjEHeZ5iLmQAFhYOvBymhk7H/EE2cOAMChxq8S/tjQKHiLSq/PWsH5Xj7MN4JpBLT5Iaxw4DMph1nFqQNsRPLbv5lA/pxq2MooyPeJ1NnM8MsjiTwcSTSDzxuLA4xNu8wkBm4GQt24EaFmPStf0csMhJUOAQkVa3uogilo1+3jGKXIYzioEh7SEBHKRGu5TN5WU1C1lNEZO4mGE4yeZKOvM6z1LJ1aTSN2T9EhaQyO30wmQdj1IBpHM2/VRrITFNgUNEomRVCZ/kLjY60JEhXGjMsjqEm8K1/mQ23YRM+ts3QFpGHIk4MKhmGV25mRF0sEODi6n0ZC45jQ7JoBPDGMg4HBicRX+qgDR6kBO03aQG4SOOZNV/SDunwCEiUVRQxwEOjFnHXLO3MZ6ZTKBryCzsVGC20F/+Ds5hOokt9rOXwJXUk4WLPH5DBhkhkcBFH27BQeMhVbO4m3hcdvjoZLfj+JKTSzgnJBglcBUXkq5ROKRdU+AQkahb6aOUUgr4T14H63y+wgBySD16fc1uwRsNSYGp0FqCIxAKUkgJ87rRxN4M0ho8bxgkGm7PaGIPIu2JbhmKSBuSf2Tls86ruJdV+I4uqcOKdqFEpAUocIhImzImxz+Nyxn9ReOHPZRFu0gi0gJ0S0VE2ozcOKZzIxPo/2VziEy1XBCJCQocItJGjB7GDcbV9AgdcjO7QYuHluLDOKV+H3X4SGjRn1CLvXjopdliJUYpcIhIlOUZxPu7Om+07qBz498kIyJ3fj28SQG3MgCw8FDXaK8pgXlc95BCjp2BTGoxSMTPHAq4lSEh9S8evGH2ZeAi3n5cxzy2cjndw6zn40m28Qe6tN6pF2lFChwiEkVDccdbA5jhuN7Kw220WgPRWtZRbdcleJjL3Aavp3IfXQE4zE8ZzB10xgCKeZ5MLiOBMg7iCXmPyQcUhNmXizxm2T+2frbxOWfbMSd0Inov1VRRTXWD9ydoBA6JCQocIhI1g1zx2VzCVYw/Oq5oSNywItl4o5I9DCSRclJwkE3/oNf8LGNP4Mcxkzw+oQdXkIrFPpZxZhN1LgZu+137KWA4ve3lLpwUc5hepAetXcsH7Ap5v8l2ynihQQfYeC5VnYfEBAUOEYmS3I6cZZzDBWSHedGkGmeLDpsR4gBV9GMLS7mRjkxlatBrNfya/YFdJ3ARW5nLACZgsY3DVLAUi91UUEA5AAY59COes5gF+HmWLdxKXlBiWsKb3BLSGsWkgpIGh+zBT1mDepOEL/oHi7RzChwi0urysJKYyF1MJaeJNpL1bCODPpHZv8VKEhjBBj7n8ka3cWoppyNuLHtQrl5cyiMsZAhOVlPJhyzEohwPL9ttMwymcqs9eiiUs4pODA86MJNqChsEiSQubTBsu5c/s51b6Byy1AipFxFpvxQ4RKSVTTLqR/Bd4wyr6zF+gQ7wBldEqgRlLCDHnrvEywvsDnm1mm2k8WeSOZMROIhjEtl0JIPNbGQq03DhZz7bOI9eABh0CdSImKxjL1OJCwQMV9h7Qw6ScYW04nDixCA+0MD06FpqwSGxQoFDRFpVXpx3OM8z8JjNQ/0s5KNIBQ6Txeyik90Sw2Qfm6mhjpRAnUQ3YCsp5Nq1H2nkAfW8iZtrycPAyz6KmMToRmGiinyOsJnfBJZcwPgwpbDYxl/ZGLLEg8ltIS1EuvLTBj1hRNorBQ4RaVXWcOufIW00w6nk9ciVoIxPg2oW4vgadcxjNVc0mEbeIIHtbMePg54MpJZ6pjHsOJf/vWygmx1nLPawmclh1zPI4gImBS3x8yHFXBRyCyWZbMUNiREKHCLSqgyfdQD/cQbX2O7/3NkvMvs3Wcu2oDlcDVLxspWt1FEbXE6SiONTnqION5fSmVrOopY9APgooY49Qa1a08jBRTXLKeZ2zsMNeHmcA2HH3ADI5qKQ5/Vsx8sVdIv8hyASBQocItKq4jZ4f+KvdtxoHStyvFtXlByhwFHEXDLt9htfKGQLRTwW0noinrM4jzPozkHexqKGF1kXaGBqUUQVTwcFjqlcQxo7mccAcu2bM1VsJaOJwLG9QcsR8HOIapbQocHyjgyPzKkQaVUKHCLSqpb4rtq87ScWXE1iE6sUmy9u9o+JyN5NNrKbyykIGl6rhmWUMpRkqtlAJn1wgt14cwD92MkCwElvHFh4KaCUaYyinJUkMsz+Ge2Gi3oWUMxsfHiIx2IfhfQhOWxJPueJRsuq8fPvRpU/5yhwSExQ4BCRVvYy7Bt9n7HDuJcOYRoomDzn2BmpfTvoyflMYXXQ7tbwJjO5lXS28xMmcGdIRHDiwACSuAqAMv7Cdu6iMzspZii3B/VPyedtRpPGrxnHV3CzlmKuaeJn9mJmBD3zspInMYnnfxhhnxQLLxZxkRuMRKRVKXCISBSsKh39tDGKS8L0+TzMR4bnpDbaLD24LKRqxaKWEUwmFfDhP24TTT8+3A1qITyUkEI1j5LBxXRkEK9TQy5L6MFIHJhhtpN6dHBV+/2r+YTO3MJzbGEqKYBJIQW4mR6hyetEWpsCh4hEQW6CMYYBYZuOrjU2x/lPYpPN5MYd8tzCTze2sR84QDnbedtugeFiiH17JVgZpWQ1GK2smBcYQk+OcCGjiec2EniXxdRyczOGJfewlGfxcRu5lDKPYUzDxyreZg0jGK3AITFCgUNEWt1oJ1P4LkMx8FIT0g+0ho/NfUtasSx+FrLWflzNEdayx85BiVxLzwaBw8MadnNlg+YnlWwkm8lczxQSgBxuoIx3ySUvqD9MeJW8ydtUcRt5JDCLAl6hjP0sIZ7LGUNWK54LkUhS4BCR1jfc+DPDcGJabxpP80f6B+o61lufempPcesnxM2d1NiP/8v79OVGe55YB1kNakM8fMzTdGOyXcNhUIkPkxJqySGF8wP9XJwUksHMQA8VF0lh7h752MMzLKKObvQgHujC+TzMgyRwOTPpSMJx+g+LtB8KHCLSqgYZaV399zMCB17ecHzXtc9bzK+ZhguoZQEbNrTWHPWk04cEe9wLk02spj8e9jEuqNmoRT0+LCz28BSfkcMt9McAEunAYkqJZw8WnXHaP6gWR3iQTVzO+Xb9hsE4etMlpH2Ih53MZQEersTPUvu1OM7Aw5M4GURn4jXol8QQBQ4RaVWJPfx/YwYOPHxm/cG7N9/ks9zvGT/mPBIpspZXVrVWSRycxVn24zq28ndSuJtNzCGJc+3IYVHE2+wlm0KKWcMIriXXrnXI5lw8lGKRylQG2OHA5CDP8TGTuCrQLNQggwz7sWX/fzl/wMsArmMMb9nvreEwxQzmBubwEy5lOp3JVOyQGKHAISKtKLeH8W1m4cTLYuuX/tVrTYCClbk/NUq4ia0s2mae+l5OjEkRnzKXI9zNeLqwif9SxGy6YVDIf/mMSRzkCc7kHobQEexeJw4mMZRaIJ50+8fUz3aeYyFjuCtk1lfLnnvWw9E8ZdCV8+jJODrix4/JERawnlUc4UouoQ9zeIt59GcAo5igyCExQIFDRFrJmVR2tr7OjaRhssb6s2NJgdd+ySpYP+YnlBvbVu5v3TJVs43NrGQdnbmds3DSj6/wLE+ziTzGsopPmc1lrOJlHmUUqxv0TzmqHg9DmImbJbzJOsZyK31C1jjAQspI4QgryCEe6MNd9jyyNeziAM9zGIv+zGIk8YyjB5+wkq0sJ40J0fvQRFqMAoeItJLKZL7C7XQAY7f5PfPLuAHAykOjf+totdYbXyjlAXaQwKWcafdIcTCKbD7iGfbQhRwu5Uo6kMkA1vIe8/CG2YofF9k48PAua5nN5Y2GM6/mU9bgxkccF9IRMAINUi3KKCWBixlDZzJJwgA6cwVnUkTlcaeLE2kfFDhEpFWc4yq63fgZqUAFv6xZsLnRWBurjrReaUZTRxzQifMoZxo9glpKOOnJ9YzhICNJZSLJQDID6css6rHw4+PLZOTGaU8Bl4if6zib8aQ1igg9uI9KwCCNrg061SZxDZMZRacGrTXi6UoXLPVTkRihwCEirWB0XPEs41ekAiXGDyqf2xLBob2a43LAANyBR6ESGN1giYGbzONs1UVuE68kMrDJdznJbfJ9hmo3JGYoOotIxI10O87iL6QDxTxkvD7K2wIbPSVfXsh1SRdpHarhEJEIy3UzjR/QHyjlCePBlJKXo10kEWl1ChwiElEjnYw3fsB4XNTxuvVga/dDEZG2QYFDRCJoqGH05XucQRwWb/MDX3G0SyQi0aHAISIRFNfL+YB1NgZ+lhn35R+OdnlEJFoUOEQkYnI7Gd+xZmHgZyXfyN8X7fKISPSol4qIREhujnEvN+LEYjW/stZFuzwiEk2q4RCRiBidadzEraRjsoH7+aSgPtolEpFoUuAQkQjITTZu5jt0Ag7zN+uNgppol0hEokuBQ0Ra3Jh4LuFbdAGKjZ/x9ErVboic9tSGQ0Ra2AQn5/NvegGVPJj6ZL7ihogocIhIS/NN4uekAxXWU8Y/50d9GHMRaQt0S0VEWlBvR2au9UtGAjW8ZvzN1EBfIgKq4RCRlpUxlB8wGQd11mv8kV0FVgtsVERigGo4RKSF5BlWP37IRcTj53PjfnPTKjPaZRKRtkKBQ0RaRHeDHvyIK4nDYqF1e8GOaJdIRNoSBQ4RaRGZmda93IgL2MgvFDdEJJQCh4i0gNFxxq3cgQuLrcYvaxdHuzwi0tYocIjIKRudYlxr/A/pwG7+ar2zQV1hRaQBBQ4ROUV5Dut8vkt34KD1V561NIy5iDSiwCEipyQvwbqcnzMAg2L+4XxyRWW0SyQibZECh4icghFuaxrfZyBQzZN1f96gYcxFJCwN/CUip8CVx88ZAcDL/FFxQ0SaohoOETlpo3sbP2AyBh7eN/6QXxTt8ohI26XAISInaUwffs05GMAC4/8cW6NdHhFpy3RLRUROwlgjtwvf5hIS8Rnz+KUjv7c/2mUSkbZMNRwicsLyDKub8UNuJRGTAn7eb/HL1vJoF0pE2jQFDhE5YVYmd3AdicAmfsdnL2tOWBE5Dt1SEZETlOfiJr5KBlDOn4y38jUnrIgcl2o4ROREXWjcZ3UGDvFX89VVvmgXR0TaAwUOETkBZzrKz7V+Rw+ghsesxwyNKyoizaLAIa0i12lkkRHtUsQyq7SgFUbBGO2qPMv4LQMxKOZf/JOSgojvs5Q9J/iOIkzAT8kJv7M9KQ0c7R6ME3pnCWpyI9GgwCGtI42fc0+0CxHT/s63Ir2LPLc1yfoJo4EqXrQeLChpjQN7nMdP6n3lPMADrVHAKPtttAsg0kxqNCoizTLKsAbwIyYAJq9afys4HO0SiUh7osAhIs3i6s6PmYEL+JzfF2xTvbyInAjdUpFW1YX/wRntQsSUYp5vnZYKhvW/XE4c8Ln1v/4trbDDTdZ9pLfGobUAB5dzHVDG7dEuSrOZvl3RLoKcXhQ4pFWlMB13tAsRU/bydsT30Z+kbNcPuIUETAqsn5qfr2mFkTecJf557WWAD7fTNwSAOuv1aJel+eray+mVGKHAIa3Moft4Lco4wR4KJ26k4ehgfJ3bSMbPGn7pnr+sVUbeWAbt5oI4yfDZN5gK2k2ZRVqbAoeIHMNQnB2MW7mTTCz2cL937koN9CUiJ0F/bIrIMTjjOZ+76QYc4X7eWuuNdolEpH1SDYeIHIP7HH5Ab8DiIeu/BVXRLo+ItFcKHCLShFzDNdj/O4Zi4OFB/qa4ISInT7dURCSsUU6m+J9gKAZVPMrvVxZHu0Qi0p6phkNEwshzmaONn5KHQRVzrH8UHIp2iUSkfVMNh4g0MsnBUOMHTMWFjwXWnwpaYaAvEYltChwi0sCZeLOtuzmfJLCW8zvPhmiXSETaPwUOEWmg0mX9iOtJAg4ZP3Av2aDBrETklClwiEiIMYnWt62vkYZpbeZO47Ol/miXSERigRqNikiQMWncyveIx2Q7vzQ/WKW4ISItQjUcIhIwMtm6iu+QjcVO/up8d5Un2iUSkVihGg4RsY1OdFzEt+kGlPKE8cKK8miXSERihwKHiAAwzMFI7mMIBn7jMR5PLY12iUQklihwiAgw2nAPNB+wcjHwGa96/y+5Yn60iyQiMUWBQ0Q406jo7/8XY4E6XrN+uEY3U0SkhSlwiJz2BjkqB/FTpgMePuAXabujXSIRiT3qpSLtgoWJFe1CtMpxRkNiL+vbXIwLL5/wf8ZO3UwRkZanGg5pBywWs4sz6N6MdctZQR96HuOrXc86HAwhvsFyk13sZSSZDZbu4BBD6BBYUssqUhiM+4SPwo8jKOMXsochpAWe+9nBTkbRqVXPbZ5hdjHu5gqSsdjIX43l+adDshORVqcaDmkHLNbwDkXNWnctf+MDfMdYo5b3eJ/qRsv95PM0hQ2WeviAv7AtaEklT/I2Ncco7Rf/+ShnN0t5g7/zfW7g+6wJ1GH4eJ8/sidk/+t4gLnUtuq59SdyJbeRCZTzfd8CxQ0RiQzVcEi74Keepif0+PIVD+/jZhzuBmsbGICJF4s6qnFRR12DrXipppJa6gBX4J/GYTaRSVfq8ZCAGzCppKbRzY9dvMUR6qmjAg8V1FKNi3icuDBwkUoWOTixMACLLcyjDwPw4wtsazRDeZ1BjA6UOg4jouc1L57b+YWVCRQa/5P/foQ/RhE5jSlwSBtUyVaCu0lY7KaGAipC1spkJA6gnnxK7Yt2BZ/Tib0cbLDFiWQBh1hCGbXsxMEckhqs42ctpbzPKlwMZbQdLnazhxlksoFFzGDoMQLAfipx4SANBx3YSiazySOVdOJx4cCJC5ddqVhHPlXciJu9LKQ+UIJasljOF5OzJjE76JZLy8tLsC7iV2RgUWj93vlmhD9WETmtKXBIG1TE6yE3MaCIKt4hMWTZUIbhAGp5lE10xwlADiYvhax3hBIeJAuo5wCHqKcKB3vCtOE4Qj2F1OKmix1gKsknjnEkcICFDGVog/d4KCaeLAx68AMgAScO1vA2BxnGOfSz1ytnCZMCEcfiAPmMZCRQwTpqAJOD+OhGElsDW89gVgTP8sgELuXHZAAHecB4ermGMReRCFLgkDaoMzdRSzUmqQBYvEIB1zMYAC8VJJNAkh0xjr7jm6SH3Zaf93nbftyVG/FTzoO4uC2oGSj2dt/gQ65lMA7icQMWW1nMeIYE7emoWnazhY1sw8O5nIkTJxkAlPMZr2JwCWfazT997OV15uPlPHs7tSyhjKvIYgcmd+IGKvgndVzGgKA6lC+2GQkTnPVnWN9jKHDE+q/jiVSNvCEiEaXAIW1QEv2p4hF83EYWYLKAePoyArDYwHuM5XxSgt6RyBCywm7Lz5pAXHCTDjiIw01mmMCRjJM0OgQu+R7mU8vIoCjjp4h5lHCY3dRSiUESM4JeXc8cCpjF2fS262M8LOEFtjLbro85eoNoHsMYSjV/I5176YSPz9jF+YyhA7CHI4F2HJEx1OGdaPyIETio4y0erD2Y34qfr4icjhQ4pI1KIp3n8HMH2SHL9/B3DjKpUadUq4kxLMItNyngz2FuqewI6SFisZ1PcJOIhwoKKeUZ/kUFFpV0YAhTGMUnvIITA/CxhQ94HzdfoR81rMaLh1LWspQcvsNM4u0g4+FVahmPnw/ZwE1kY1HAC4zkKjoAFfwKi28FAkrLm2D4Bls/YioO/HzCT9m3oQW2KiJyLAoc0kY5uII9LKQrlwe1fSjiIfZxPWc3iAtVLLNvvzRksitMJ9laDjWKLCaVIc/LeJLDdMfiPd5hN9WU0Yfh5PAYw/g2GZjEYQSagb7HKxikMgcTFybllGDQlYuYTa+gmzJHWITJk8ABenMWBjt4hgzuoCtgkcpN3M+L3EPXCJ3b+l7GbzgbB37m87WVe1vh4xSR054Ch7RZ6dxEPWVUBwWObezlUi4iucG6h3igUTuLL95TTcPWkA4m841Gt2C8vMRbgWf1fMJyOgAGmQwkhV3cxrm4OchzQe0sXHbX1UTOAOJxkUEGTvaQTzzDOYcR7CCOboH3ZHABFfhYgZ8byGYdL7KOS6hgBSYWJqVksJzFXEhCBM7rmG78kMuAepaYP1uluCEirUKBQ9qcWg7gB8DLTOIopYwj1LOXFFyczwAOcQiABLrb9QuduLOJDqR+5vNRmKWeRjHEizfo9stW3qUbg1gJjCeP+TxLUqN/MHUY9jInoxhGHA68rOQdNtOdrzGGLNbzJCncTQ87ciRyMyb5bGA8k6nmAxbg5RMW4gBM/FhUU8kc+jG6xcfhGN2Z/+VawCKfXzmWtfKHKyKnLQUOaWMs9vBPShosK6GKJxqNnDGU79pNM1PskTYa87On0dfcZBV/JK7R0n0hg4Elcx37WQkkBWJFQ56gV9y48bKOj1lBFlcwgR44sejKWOZwP7czEgMwSOMgn5HERSRgMJQyXKymkrPpwioWcQ+9WcMbzGVwg67Ap2pspnkHN5CGyXrrz/7Fa3wtsFERkWZQ4JA2xqAn37ZrOI4y2cz9WAzlKlJC/uJPCGrJcWIjcns4EqYNR3XQ1vtwL115tYn3W/jw4mMXLpLtsUM97OQp8jH4H/JIwo0HqMfPRPbyDiV8g/E4gVo+oYBbGYQfF7OYjo8/cISr6QQsJY/B9MbPpEYNW09FLq4E/3XcSyZwgD9bb62pb4HNiog0iwKHtDmJ9A16VsMCXiSTQ6ylM9fQKexNhjo2Nxpd9Cg/B0PiC4CDqcdtw5FE/2PMyFLP62zCw1om0xmAUv7KB/gw6MlzPIIPH6UkkYQLBy66U8wfuIWzSGIBz9GZcp6hhK5cTgo1VBNPEnE4AQcG3flGC99OMeJ91xs/IAcoMv5Q/9JaxQ0RaUUKHNKGmZQwj7nk4WMRk1mLySX0DtNddB+/arITaY3d2dWigkosKqjByYFG06/5KMXLITKAeDIa3XIJ5iKFejxM4wL8VJNEEiMpIoE4HDiJJ50dLOdackkhgTQslvM07zOY/hRQiclrxJFGJ9yAhxK6N9hjy8aNYW7OMn5ID6DU+AcPrvW3wEZFRJpNgUPaLIutvMp6pnIlLxLHdMbxBHu4JMythiwuDxkI7Esmy/kcAB+LmIcXH9tx8GCYkTwOUMRzpAJ9uYLuxyibkylMxSSDEp5lIDNJ4Gwmk8hOOtMNgNdZw1jyqGA9SXRiJtnU0Q0HM+lGJimkkE0WcUApNfaj4JIbLRg64qbxO/oDZdZDPLxScUNEWpkCh7RR1SznOcq4iPPJBCCeMcTxX/7FFmbRMyQwZHBBk41G6zg6iqZlf+HdDAcs6uwbGEdfqyWB3vS2nzuPe6lPtYcd38oiXJyJQQYJLOVZevHNoB4zJht4lM7cyADGYuEE8sjFgQOLCspxksQ2aunTIAKtZxUzjhl7mivPaU40fs4woIpn+bd5uJU/TBERBQ5pm3bxAotI4muMJyUw1XwCk8nhKZ5jITO4zA4iAAbuRjUWRzkC4cHNDCYGlu/gRWYxzn6thH/QiQvobD93NRrp40tp3EGa3WPGpBwPnXED9cznCeq5IaQ3jUF/pvISu7mRs+2A48RkD/ms5xDJ3E4XPsVidIObQod5lW4tEjisocaPmIQDL+9af/cdWNvKn6aIiAKHtDkWxbzBm9Qyjm/QpUFNg5PB/Ij3eYMneZqvcbHdbdRHSRP9VPxU24HFIIkkLCrYw0d8hJdezCABsFhLKRv4lBlMZwDpYQYRM6jjCF7i7NlTjparkg3E0wMXB5nDm3Tl24y1321iAQbZ3EhvHuZPrOMqunGYP7IeHwl0oCvDcfE4y7jCbirrwMC0Z23xN5rv5cSNdDj78wPOwo2PufycrYobIhINChzS5hSyiE5czPQm5n9N5VLG8D6LqQrUCezj5018mS2OBEbXqKeUnbzLavwMZTZj7ZE8DabTn5V8wid8zBDOZwQdG4SODHzMJyFk/laLTcxlIJ3YxSMUMI6vMIAqSonDyy5Me/suzqArD/EuhXyVjiQxiREMoCPJFPIGHzOGy+z9ZeJiLWnUsA7XKQeOXIyufI8riMNkGb8ytqyM9scrIqcpBQ5pYwz6chfZ9GtiqHIAF325i5lkBRqPxtGtyV4lpj2MmJ8NvMF8MhjJOCaRHVR74qA73ZjEUvIp4A9cxXUN4k5/ZrKQ3+ANWdqBQZxPR+axlQu5iJ4Y7OIREqhjK33t5qPgYCDfYA5HqCaF75OCEzD5lOfYzWSuJcdesw/9eJLPqWE7eUE3jU7ybObwTa4mHlhj/DB/RVQ+UhERBQ5pi1KY2KB/hkG8fYn+kpNBgVeT6ctdIXUPXzJ5h4rA6BYVzGY6fegQ5qtvkMP5TGQTS0ixW4TEk2o/yuImplIUEjgM0ulBNxKYSicG2CXozBAqqOVSJgSFFoO+3E4dOTgDSw2cJHEXU+gUqKvpyT0cnbv1bIYfoyVJc+Qm8jXuIQWLTfwifnFUPk4REVDgkLap4YgaBhcwlR5NrJ3MfVj0bPKWyiVMoQdgMIT7SGtizpWjnGQzmRFYJAJOZpFrNyR1kBOohWgsg3GBx9ncjBc/iSQ2iE0Nb5AYTKB/UD0NgJtRDLdfPbXp6fOSra9yNynADuO3xvuLNYy5iESRAoe0C12PMVW7kz7HeKdBNtn247hm9flwBNVAZDXR2fbY729+vUR82ONyNvv9TTmTsgTrBr5FZyyK+bc5J6HulDcqInIKFDhEYlBVguNi/ofuGJRyv/HwypoW2KiIyClQ4BCJOWNc5hl8n6FAJc9Zj62sinaJREQUOERizzh+yijAZz1r/XJVSbSLIyLCKbZKE4kgs9Esr/7AmKPHZ1FNVRPrW0GDhPk50baUHgqpaGKYsWB1VOBvsLfWMGYwv2ISLjy8wp9XFbXqzkVEmqDAIW3WJn7O/KBuqCZz+QWbm/nuOv7DnygP+1ohjzCXGqCeefyUZYSfy8wKG0Z28H98etzo4+dtvschLNbxDPtaKXSMY3R3fs8ZOPBb7/EbY0er7FZE5Lh0S0XaKJP5LGdyUI+NIhawidsarFdPCZ6QJSlkYWCyi+IGw3R9seU9vM1MpgAVLGIfSWGTt5/3+YBbGIaLoqDJ7Hexg13sCpQsrkHH1qMsClmHh3p28TofcAdjT3FUjePrjdnH8VvOx42XT/nDkY27ml8lJCISUQoc0gZZwGGW0oc8DHtGEpNNbGMyOSF1BQYHeCSk1sNgGvfYX+zw07vXsRqDESRhsZcNjKWrvU9CtmPgYjv/4msM5nm+HBK8mlLmsjyw7Z7cQr8mjyWeWcTzHA/wY0ZH9KyNMJydrLs4jzhMCozfxS9X3BCRtkOBQ9qcerayh23sYiwrMIDOjKKGNZTgY16gNsJBHjkkMsCewO0og56BKBAXdkSLwyyhPwNwUsdSDlPLZ43Wy2QYaUxnLy/zLLeTFzRexl7eYShjA+VIJwMP1Q224KMOizKOALmYrCaJI4Cb5AjdyXSlGHdxBxnARv7AoiX+FtioiEgLUeCQNqeO+byLh3pWsxkLP9MYRjHrqWcJ+fZa9Tj5NTlkc3mDFhgeFlBJPYfw8mEgjHQITNW2noOcQUfgMIvws5J8vKSExIBBdCGNBC7GSzFJDOJQ4PZMCh/RMzAnrIM00ljHEw1adVjsxsu/SQIs/NTxAAYwiqtJicBZM9zcwd1kAQesX7neXl4f7c9RRCSYAoe0OSZVuDmXjgCU8SGV+NjGPmYHLvN+PmQlJuBsNFT5Pl5iKxbVWDxs13YYjGS4PRX9ZyQzmHhgKUVczCTeYhnfoFPQNpLtvWdzLfVkYfIXdtmv1VHCG8yzt5zIZVxIMv0aBA6TCg7Ss9GMt51bYBzRsGZyDVlACb+13lLcEJG2RoFD2qQszmYgAPtYi8FhXqUHV9Pfft3LZlY1+d5vUEctD+HnHpIAD3/HxA1Y7OBzOpEK7OdlenINnViGk2H0arAdPxaQigMDgx8Feqys589cxCV2jYhBEnH05WtYeDHsqd7Az3/YytVBrTt8mMRhRCpwDMIAiqxfWE8ZtdH75EREwlPgkDbKicOeNA0sPmEnt9EncNvDwMDAgZ/aMF1X+5BIGX7SGE0qUEsqThxAFU9RTieggmcp4yt0x2dvLbSB6RFWUQUkMxyLHUF72UM9h9kcdAumBz1xcpiPyGJaoC+KAWyjvx0wvCymhFmNJnBrMQZQyuPmnNXVLbA1EZEWpsAh7YCJizMYQDHZdg2ChYlBPCW8z74GazsYwrmARUKgvuGL7azmcxIwgI18zkim2bHBZF9QSxA3WRzmNfZTQQrfxsfzIY1Cc9jEpqDnF9OZBEpZzCG8nEtc4JUPGE8O4KeAR3HSn8ywPWdagEUdL/KP1Qej9zmJiDRNgUPaASeXc4BPKeRG+mAAJt7AuHUWUMhK+jHQrg8BqMdsVGtRykf4GUU5kMZArgy0sKjnUbtJKUA219CT26liPiuAUXQ85niknYjDoB/X8y+eIImZgf1uYhnnY7CKf1PBDY1u27SgAtY7/pxSGK3PSETk2BQ4pE2qYAUHACihlFTi6EEa7+DgHnvCeMuePv5S/MCL7OQqptgRJI446vCTaF/4PdSRgp/55DMbN0uBgXyTTkG3aLoE9R3JIJ5URuFjByuADmSxhVVhRhd10JM8ux7FzRiu5TH+Q69AWxMH79KXKh6jkFu4KCL9U2zLrN/22fdy646iLiLSbAoc0ibt5xH7y+mnhh5AErM5zJt04E77loWBEyepQD0b6cVEMrACTTLL8ZJmBwo/XtxACb24mncAcNEtaH9x3EyPwDMHbowGA4et4T+N/sFY+DiLEYEbN4mcQyWFdMTChx+Ly3iDX1CHjx8zPqgOpeVZnoK9BVH9zEREjkWBQ9qkTpxtd0wt5X37sp/GxWzhLQYwAwsThz2guMUKdnAnmWxiF9NItQcWr6O3HT+Orp3ADCbROez+DBJIOmaJfKRzV6DNx1HVfJPQ/qcJXItBHWuZz1w8jKWU10nnXqZEqneKiEi7oMAhbVIHzmIABrCXVUGDiF/NX/iQXBKpDwxGXsV7ZDMei7W8RDpTAD978djtPcBDNYk46dfkfIVWozldGzftrGJ+YCyOo7yUNVrLyz7m8z6VeHCQwcXsYzu1+BQ4ROS0psAh7YiDSdxKOsmYWIERLbaxnnPJwsUwkplLHglUsJ0Uetrv8+PH2cTMKkf5+MBuGwLgYiADGwUEP+UcbvCu0KakXraxlKXsYDh5rGYBBv25hn/zPA7Oj+gtFRGRtk2BQ9oVN+fhwkk5Phy4gTqW4uRMXEAvBrGUXQxkA1uZSLb9rhqsoK6q4XiZG7RGAhcFxs84yg+kcjYTQ2pIaoI6x/o4wHzmsZ8cvsZYsijBAbjJ4ys8xmPUciGpQaHHpBw/6Q267oqIxCYFDmlnjrbb8OPDwqCOD/iYs+hMCYc5SA1lLKEjC6liVuBS7oXjtNBI4OtBQ5s7yQqJG3vYAVTwLvkhtSQ+SgCwKOIVPmc32VzHDLoSF1T3kchMXPyRJ9jBtfQLbKGUf1LBD+y2KiIisU2BQ9qkOvbYt0AOUtNothTwUEMH3BxhIbt4kmdx4cSBCxeLSWUZoxkYuLQXYx6nhsOgf9gxMkw8LOIRBjLAnuMlOHD47Y6yFqt4hUyu4io6Btb4sk1IAufQjT/yHku4i/Ps0LSbfMaREe1TLSLSKhQ4pE3azd/sy7KXErsOwMRvhxA/2zhAFi6yOJN4MsghkzTiSWQr23kbkxmkUw84qGUrBjnH3F/41h0+DlLMXEZxFrvI4i5mYATGAIFK7gTAwRRuYzQDiQNMDKCOUvvRUUP4CW+wgkp7RFOTLXiYeZwgJCISKxQ4pE1KZ4I960gFS+zLdhmLOIKbBKpYQjGzicPBBVwQ8s7OrGc3lzEeN4tZjZNKFpIWaEB6IurZR0dmcBl92B1YalHCVhzAISpIxgkk8//t3XecXOV9KPzvmZkt2lXvQhVJIAnRJNFtOjYYh2ZccY3t2Imda8e5N/eT5Oa9n5v35nVyc2OnOM2O48SJsY0LGAzGgCmmC1BDgEAd9d5Wu9oyM+f9Y4dhdrXqWu1q9fvqD+2eOfOcZ2d2z/Obp/yej5Ue3edZqYyNFhlU3leFjDP8lmtMKg3u7LPUMDN7+oUOIYQTJAKO0CuN9v7Ssth11pUCjrynPSWjSl7We1zf5RLXPeY5z00GY41/l5cY5xMVab0OX61bFc3Zb/+Tjb5tt8Re/V3RqY8i76felNGo1YcN6fDYILPLX++w0XQDevqFDiGEEyQCjtDr1LnZXuNKv5yjfFlWFYb6bTfbh6zBJnVqzN8yzm+aYoIE73aWNgwyvjRAA2codpg5kTFdc0VfxNuqXSFTmj56pt8wjlIa9Fs0GyBnrKmdwp5+brFUXr1JZh/wDyzVYqILDpAVJIQQ+p4IOEKvU226tNwU1zqz9FXOZKeXpmIeOKdGnZtlSs8e2uVm8Fe6vMMvfs67DjiX4u0lq+c5R7Z01WHeW5rFsX89cq5zTSlLyIHDicQkX1IVAUcI4ZQRAUfohQ4cTiSHsbn7oX6pc10cOfQfQrZioWxy0Kyh2cPKKXo41wwhhL4jPmCFEEIIodtFwBFCCCGEbhcBRwghhBC6XQQcoRdKFUs5PN9StM0Kew/4jOZyQq2ju17Hfx0fy8uXjhXt03aEJe+23K5OZb71WLO20iOtdhxhySGEcHKJeWuhF9rqKYNcXrGUtc3P3ecPXHqASaOP+xsf9+FD/kK32VYOTNoUkGrThn0K2uQ1G+iiin1dG/yTrb5iLNb4a1N9vssVLel+QUUiUfCsv/c73tPFRNJWf+VN/8MkLPY/XeHLsZ9sCKHPioAj9ELb3W+CSyoCjkPZIGdERYddYb/+jpwMtvvr0oZriTZ5CVrl0YSsov6mml7R8G+3RitotdCbzpd0EVrwmpUdjtU7r2LD+65ss0qbehQt1mJOpDkPIfRhEXCEk9R2680o58lYr8aocsBRtMRLpTChXa13GYN6Uwyy1wD95aT2ajRGnSyqtdjifKdV5P8s2mC9qwzCNi/ap80znXpZsqYY7Qk/6nB0vD8oZQHJdLlMtmix9T5gCLZaaKiz9htIUs4oEkIIJ7sIOMJJqcl9Hvcx75aizUb1RpR7HlKv+4GmcmBQNNB5xqC/OzziedeZKSvvEb92k9myaPMLjxnp6opGvtlris7VT5uXvKDJfRXJwNrV+owRbnBOh6P9TFBUVJRTJS33uGRKtWrwnIyr5RS84A0FX+8iuPio83r6pQ4hhOMiAo5wEtrrfj/V3wSbPWGbvBVq3aUGiQvNVlTti2aAop97rJyhdICBXjXBNPWKJrnbgyYYhU2estvkiv6L1DpPmWmGrBXuNd7VXex+kjVFxhRTOhwtetSLWq23w089Uzpa4yYzZKSWW+oc47Dd89qcYasVRjutQ3/I0U+EDSGE3iUCjnCSSe1xrzud5k9MttTTVmrSaKBH0WavWrORNdbU0mb2wzv0HVzs3R4x3dWyznStn3vVcG3mes0Hza4IOArmWuUqQzT7oc1+y/Ue9ZA7XNShTl3lP02t86IW++yztLTXbLPERaaj2ULb3Can6FWvuM7nLfY1v+H9HWZyxB9oCKGviPtZ6KW2W6Bf6etap5ePb/VjD5ruUyZJTPanmn3fo/7QDLziLw6y0qNgowapM+y01xJZRSNcKfW6tX5koolWSeSMMBi7PaUo0eh+T3mvK1Tb7Q37DmNmRdb7vVfew37kcy6RkfeIe9VJpNZ6SZOM1Hq/VONaA+UkMqpi6mgIoU+KgCP0UvO9Ue43GOfPQd4qP/Erc3zMDBlUGWqP9YaZYaQUGcMPWGajH3pBUSr1SulYiiex1w47/b0EQ33U5XjJ66XnLTHL7YYoIrPf6pnUetv2u1qN02XVSgw3SiJvgIxEYp/nvSpFs0ct8H7TD2OPmBBCOJlFwBF6qSmuLDfsA9SizQvu8aob3WRSRR/DDptNMBBFG2WNOmCZqW0a/MYhNldbZqkmbPJjiVoMd4dHvWie1MuaPW9L+ewq04z3mIf2W2Fymt8zSiqnukM4kVrjcRnV2Osl412uvxR5r/p5xR/lVDMOayO4EELo/SLgCL3UJLfpX/q6PfPFdg+odYdbDO7QgK/XYKpqtFord5AeDhjqY4cYtPilFWj1K6tdbgmyJvuqX5Syg7Z0WKnS38eMc75BUpv9Ur2bSoFSf4MUNZa3qU8VZWTlPWqr863BALdodXrpJ2z1otcqfrb3mxYBRwihj4iAI/RSGTUVQxctyJvo0x2ygCr1FzQ5WwZ7bDLGkIOWmlO1X1/E23KqVctKrPSYSa6zFPTz+1pQ8JB5PmlC6doLPaBFxtnOUvSUxLVuLoUjiYxGu9WWfo6iRtVqrXC/OS70Q9S6RloOX2pc7eqKcGhU/IGGEPqMuJ+Fk8YYn/bO/aZrNlllgOFSrLbe9fodMKCodoGpFvg7LYpyneZNFOXd5A7jXWucgU73XnWlx7KldSmt5unnQmeC1D4PyUhkZOy1zEAXqLJDXal3Zp9NBpZKSaUSjHaR2zSVSq78E8waa9YR5FcNPWfW4GTo291PLdlSx1pu9hkVJ+2dv7Gn6xlC7xEBRzhpZPcLEaBoiFY/8jFDLZB3wUGmX/bzPqz0Dq9Y6gITKs5ttsBa1bLOdS7afMJYyzuV0GKrGgMrjmRUSUrLYBe60CS7/bPZbpBDg80mlIKPVJtE1iCfNsr8nn45wzFJ5viTcjxK4jQwyPcqTnrEn/R0PUPoPSLgCCep1D79JAa4Tc4DdpvhOdNMPOQzJ/uil3zbUB8rJR+n6DGvuMw7yv0LVU7vYo/X7TYZWZH8K18+p9UCDWbrb5c1dpntNGy20wXqQUGTrGoZE7vcPbb9nLaKPpwk/kB7rWR1emYpyKhU1SFFy8ojKjKEPi7uZ+Ek0NUQSZvvyviIgUb5sBG+6SXZiommB5N1vve403/4rdLmaS/5lv4+YvJBM2wUvWqjD5fzg6Ra5PSTYKdnTHC6RH8X+aUlRsl6VdGk0vmpQjmxedeaPWB+RQ2m+mz5WqF3KWxInkjuOMRJ6WEWFsIpIXaGCr1cixc9KL/f8VYve1xjKV35dW7UoNWOLs7sSo1rXONB37FNk/v9H4P8F2cfdE1Iaq1HZLyj4s+mWB7oedFmlxlWCmd42V67Peo055RKbc+CWnXQelWpq/gXm9X3Xpm25FF7D3pKoxU9XcsQepPo4Qi9VqttlrnTIte4fL9Hm2w1ojSbomCJBw1S5V9s8NsGoWiXraXU5o1dfNQc7Aty7vSSrGXO9GcHyd8Bqe1+apHbK7KesltRRup5f+lsYyyw0VLL7PCcd1pig0+XB3mK2tQcNKSp9R4fikmjJ4XmQs3CZL1pBzlle/JcT9cyhN4kAo7QCxUUbHavhZYa5maXyKHYYSuzHZqMVIsWL/mmep8x2l0e0uxDivb5TnmuxUZtXVxjq1GGegVj3YDiQTv8tvuxh53t+oo/mtQ21QZKtOB1f6a//moMdZ7tnvGsSRXrahptNTz+5PqI19JZqz3izAOOkaVWebmnaxlCbxJ3v9Dr5K2zzVZvON2NrjRNjVZ1Gr1iSGlIos1TmkySscNzvqvg465WbaCcVdYryhhZWqmYatJcUfou22212mILDHGd1Er/ZL6zjDNMvYHqS7k43lK0yY/ca4I7nK7ZGqmcxHYLDDJcxhyfVWe0EYapl7PVCx6zxW+bYLfNilKLrHdWzMnoMzK70id90MgDPFz0VG5zT9cxhN4kAo7Q67TviDLZzWabUFrhkTPFQPd6tjQkUbDJIJfZ7Ed+pdrnXa4Gk/2O9aZ7UK3bnVcaUvmh+1CwyovW22qrHfY4wydMM0Fqldc95klDDFJniIHOdk3F4teV7vK0yT5tlpwt/tlOVRK7bXODMejvkx1+hqxlXvNON8hZ43s2YZuMaRFw9BnzirMXmeeGrvs40l3Fu+a3HXmpIfRdEXCEXifnElWGm6amfC/POMtXvGhP6fvEO11qij1aTfRRs8v5OU8zGjPdYXJpSCV1nWkmyNjpQauMMNq1ZptkeGmXk5FmudabFlhqm9UyJnZIfz5Y6mKfMFUVagwuzQoZ6YOu6TKEqMIMHzUY/Q2xW8F0l5cGh0IfsSldnFxZkY2j0kv7lvR09ULoXWKLynBCzBqS/JkvcIb/PMQ6jXZFyX6/nEWFismfGVmJ1C4M2m/2RVFasQS1PcdnosVyBcMNUtNhyOSts/LyGu3WZrTBoMk6gw23R1b/0jNSraXZJFm5A0wCTe1QMEy2lMG0IO10doNNhhpW8ZwGGww17AiXjq3x/3gF6d8u+L0T8laGshsyW29P/2+XqV+a0y8s+Leerl8IvUt83Aq9UqbLY/sfTQ6wc0qm01ntoUKNmQe5ZqJKlX4dNn+rKyUxH9zhvEOvI0kqQolMl5vFDahIH/bWkWmHLDf0Jr8snv9iZnmHhLVv2Zgs6unahdDbRB6OEEI4Stm1ntTYxQPPp2/2dN1C6G0i4AghhKM0r+ChdNN+hxv8MtlzVAWG0IdFwBFCCEcteSN5bb+Dr1iQxAqVEDqJgCOEEI7azj3Jo50OtXg6s25eT1cshF4nAo4QQjhqK4vF+zrtqbLNonTvURcYQp8VAUcIIRyDBavTBzocWJ4umhcDKiHsJwKOEEI4Jpnvayh/s89LycqerlEIvVEEHCGEcGyWWF7+eqNfzW/q6QqF0BtFwBFCCMck3WZu6ctC+nqyoKfrE0LvFAFHCCEck2SPX5c2JG5Nnt+zvafrE0LvFKnNQwi90uyBJh9gY7ReJqXKMuegYM+Ai2b3dIUOs9rJy/Maj0M5IRymCDhCCL3Tmf7spNleJlfa1KfOf9fa05U5TG3FW8SOtuEEioAjhNA71TjNpJ6uxBHKOK2nq3DYWtPq41BKCIct5nCEEEIIodtFD0cIoVd7t0t6ugqH5XmtLjspbqmL/EJkJgsn3snw1xFCOIWd45aersJhOVPezJOi0zjroQg4Qg+IgCOEEI6DM2KMOoSDioAjnFBNLp9JOwAAK2FJREFUXohfuuNqi9gnrHeI3+sQDi7+RsIJtdVfSXq6En1Km8gzFUI4GUTAEU6oVmt6ugohhBB6QAQc4cRINdnV05Xo0/b1dAVCCOFgIuAIJ0SmOX0gXdvTtejLkoU9XYMQQjiYCDjCCTGv2ROe6OlahBBC6CmxiiuEEEII3S4CjhBCCCF0uwg4QgghhNDtIuAIIYQQQreLSaMhhBBOAR+wK7M9U5O0ZFqlp0T+wWyaS5vSXLqruK7Y03URAUcIIYS+b9agzMSVE4w3rKVeXVW/JNvTNToBUnn76prsHbl1xJpkTX7Ny009W6EIOEIIIfRhc+rTW3wyHW2A/mrl5JLcKbLDQlFBXpt9yV4NuaWzv9P2xOKWnqtOBBwhhBD6pFk16VmZW9PfMFX/U3LGYkZGlX4GGoVzXFP16qz7knuTN+fle6I6EXCEEELoc2bVGJV8KPk9Y9p7M2rUqNVPlazsKdLBkcoraNOkWYu2rOGuTC5PPpd+dfYj6dYFJzzoiIAjhBBCHzN7kBt8yrvb+zXqTDXTaU4z1kB1+p0iTV+rfZrsss4G671stTYy6TT/6N7k32Y/Pb/5xNbn1HjVQwghnCLmZIrjfNDnTJFJDHSOC11ooiqnwkzRStWqDTLGDHmtXveSFyzVSL0PmOofzv9F6/bX0hNXnwg4Qggh9BkXKZye/A83GiGTda6bnWvcKd/U5eTMNtMVXnSPNdIqc/yvzNTar9l9ImsRQgh9QoMVJhh6GGcWFFTvd3StV51j7GFdq+h1G800qovZAC3WqitNHVhri8mGHFaZ2zxgoBvVdPloXrLfJ/TUCktdZPgJeX1PDoVh6f/yfrXUuN4njXWqLEk5tBrTTDLbP3tBPmuS30sy0/6/N/adqOtHwBFC6CPm+7rfc5UEy81V6PBozhXGgT2+o+izBoKCuba7zDBL/JU/6hRwpNp0zJmUUSVR8ITHfcnILhqzFf7MJH8m0ezHHvS1www49viZcd7dRcCR2uDHxnmPepD3oH6ulPWCf/G1CDhKzkpqJ6V/6yYSI33WzdHEdZKoNdNXfc+PNCTpgPSP62ou+N/995yYrbzj3Qgh9AkFCw01vRQAbPaYtxMOpLZKzCp9V9TscZO8Vw3yHrHaVMO6LLXZI7Z2ODLWpQaVSu1KmyV2mSaDzV5zmknH4afL2+JRA7xLBjvdr5/LT7k5CYdSM9pXXEfWJJ9zZTRwBzDAJwz2PZtIks8WNzd8264Tcd14P0IIfcIe80xTdJ/JZjjHH1b0TLS4y+vqSt8N8mFL3G20i+Q0WWq8wZq1SrV6a+J+olqi2ZOWdbjO+c4uBRw5VV30b+y1VJVzUbTcFhdp7tTXAv1VHcHPlhjvVit931nGS62wyQ2KmrVJtXSq86lq1uDkEz6kX8YUn/aOI3qFTzX1bsQPbJAO8tvFtXPumdfa/VeNgCOE0AekltvqNlt833ucYWBpwKRdg2r91Ja+S0z0YX/vFyY5zSvWKfgXWWvt83PzS2eNd4tB6n1Kx3zQtZotk7dDwRbLSg18jZGl8jdY5gzj0WCR7V72F/sFAVmfM1WhUyCSl0q16Xjnz8kgY6YbfM9PfE7Wqxos9HWpFZrd5bHSuWN9uPxTnmouqipcnf6mEZzmE644wEyY8JZBbtLmX+1NTEz+i00XPz23cByKPagIOEIIfUDeSxJnakWqwd4Oj263Q5U9qlSrl0hcYpn+Bmhyj0TGcuyWt6H0zERRG6qd3elKm3zHfEW7NPtmuXmf5jOmoMVim9xqkKLXPW+2i7xivnebUFFG1gDN7vdAh5CjxWY7/W6HlJgD/Y6zJKh3q3XOU2Oz12Q1egPbFa21o3R2mx5JINkrtE1JvmKqJOcjro5w4zD0d5vN7pLmXJR+umWpjd19xQg4Qgh9wDavKqjWioJ/13ESXKpF6vdUucrn1GGwz0lUe8mr3udTcnjU3/icq0rPyRyg0ao2BUWv2WKaYRItXrZVoTS580k1JsjZ6RFtPuwiP7bU5S7sUErGPlusNMmQcv9Hk/WqDCnflovW26yx/JzBfl+N1CKrfMZ7ZRX9xL/7r84/RJ37vvPqk99xqWzOh70/GrbDNMCXrPM0VW7OPDfn292d8DzelxDCSa9gnmXlORsZt7heg7VGGtZpC42BirYpospABfNVubI0/FIjUVOe6QGpgs77evf3Plmt/torPu487PJ1O+RQsMBiwyWKXjbXhc5QJSOR6XKC51CfcVm5hqv8N+N8tbQSpX3myU9L4dIeUKWf7RYY6RIDUFQtUduhzqem7LnpR5Mc5/hgNGtHoMbHLbeJwf7QY5Z279XinQkhnPQ2edLO0lROMibIecoDPuqsTje5gnke1oAJ7tDf+fqbfsByWz1r436rUc5wnoyirBoZJOU+il0e057UYL3v6++aA6x9eVtGphxwJOUjbz3WfiT1mru1YbLPqHKZaqN6+iXvVeYMS7+aDGOUD8Qrc4TO9lHftpuJ6Zcu/IMXuzUnRwQcIYSTXKuFVhjeoS+i0Yu2ed2+DhM2xzlHk012W2+z91pghYL/LD26XLNfWVU+e7iZXrRQUYsd6gwslfUuM1QryHa6geY9brkJqrFbo2vNKfVr7Pagl8vn1bniMNOLvaXJRo022Okj5lkhtQSkFmtxf3miKyO955RbnTEnk97oImq928XRqB2hWpeb50lF3lP4T3O781rx3oQQTnLbPW2MwRZWHFvtWdv9rMMtLvEuZ5ttorxv2KPNIs+AZnsMVG2wueYaVAoTJpvqdu9WsNBP3eCy0vHh+slrUFXKVlrUokrOaneb6CzzMMV/N1K/0pUbvWhxuR5DnHVEAUfiPH9ss29KKuq8V5PBsoZ5TKacX/VM7zrlAo7M0MKH1TLOZeVernD4RnunxbYzzm9dtOiFbtzQLQKOEMJJb6jLbLSo/H3Br2T9T+cr+r/4ihok+qlWYyAG2KPOZ3wMRU/5od90gQb/qslnjQY5/eWw17OGucrZ5d6SRLMd+pcCiqI2OVkL7PAhRfPRz7kV9Rvpd8tpx8gYUC6pIF8eQilIpfLllSb5Up9NYoABavWTqi/VOfU9z/iSs7T532r9t1LwkzvllsXOSgo3myNTZVZpPU84MlUu96JfKVS7snDFrIcXdNuVIuAIIZzkhvuYWj+rOLLaM97pKvVa0c/ocl9DpUxpsmhejYyhRqhWq2CYEciXb5CbLHSu8ZpsdFppSuduW03Rv1RSisQ53uddHi0dq2z6cgYb0UUNdviu+8tn7rVNoz8t35YL1mo9QJ0LElWGG6FVtRrD1aBV9tRrcse73cjEmT5Ufj/CkRnuRottYFz6G17ovqyjEXCEEE5yVcZ0yD+RyrrcdOvQYosRlpe3aqs3Zr/1Im226lfR69B+bJ6C8/RX9KoGZ+vveX/lD7wTrLDPxFJvQlGrATImG3eE/QsFuzvkQy1qs63c45FWLIntLG+7mvJ6lnatHjfS+adUyDEt6wLTJVUu6JDpJByZGabYpFhjVjK5YkrQcRYBRwihjyl4wmKLZZC33g5/U27Ez/abHXKQktponpEV+TCg1cMaTNRfs2dMdJ6cUfLmulCNNi+oM7kUuhQ0GyKrWrWukzXm7bS54vv+6iRqjPeBioGadb5mlC+Xe2PaPObpA9ykN1hubKcZC03uNsV5p1TA0a8+meM0al0aO8scgyEu94KWxNkumPXygm7KxxEBRwihj0mM1wZSK7WoNq48oDFxvymVTX5ujQ+Vp122Z94o2qZardR8K3zKKIlJLrbA6861wyJjTCw9oyhfsTS2K9v9R4chn1tco9o1zjbV0PIzs6rUmVLutyjq7wKn71dyaoO77PbxcujUPtujwQ7nd8o70tdlxrlMLVPN7OmqnNQyrvEDqxjsKg9Y3z1XiYAjhNCHJDJy3ulK0OxbMlKjfaiUgzPbIRdnaqt/9GvnulxtKQfGJusNsMpal6m3zV1GuVAiL3WVZz3uDItscmM5x0ZRXvVBb6b1LnR6xfeny8qaZNJBw5SM8cbvd0bBSt/1tHe5WhYZWWusMtoLGk6xYYWzsum5ySUkbo/kZ8doiCutQnpVMv3iDXPT41DkfiLgCCH0IZN8yWj1smj2rOddbaCnne2Sct9G0TKvq9Fgn69b4lqfNE6COpda7E8kmOp6WT+0wDjf1KrRblvt9ooX3K/KDeV5IXmtFem6ulLvUhd1OJJ0mlbatbfPyFtuq/72ecPf2uomnyo1sTlX+KYvIzHF7J5+A06o6sFuUMv40syacCze4W57JENd0PKsbkkAFgFHCKEPGewSkLfF0+4yzBc1We07Wl1gENq84W80aXW3W53nKjeXQ4cqV5tihTY1ZhmCCSZIrVajyiBn2GG3H1rmNtOQSqS2a1F/0OwXySGGXA6lxVzflbfJQ87wDlNdWdFTc5MzrZEa4uxTbJ1GMiq5kMTs8jsYjt44471KjTlJbQQcIYRwGFLbPOkFS5zpI05T8HH/5Bve4VLTrPJdO/yOLR6xwTRZT+5XQpU2vzLA+d5pnH4G6q+faqz3gJ8b771Sb1iMopcUTOjGdFtF831T1hct8x3nOsM+T3U6J4dtHjTAFafQ4EIy1mhyZsaE0eNgoFlehfMz/ezsjitEwBFC6FOaPOop8w11nRudLiPjAp9zj597zk0Ga/VhN9prqMc9rKHLT8cFDc420fQOu6EU7TZPzvuNlVrhX+xBjStd2K0300YD3OYKF6r2gns1d5lvo1mzS13e02/AiXSewfQ36RSbKts9qp3nR1qZlM6woTuuEAFHCKFPqbLLqz7oEhPLu5/UeofJFnnK6WaYYpKcwW50oa12yStqrciH8dYE0OEmdmrWE8NdaLArVUtd6E/sUTTY5CPcG+XIZFxgnElq1fqo62zTIC/t0Ov9Vp3HnUL9G7hehmlGn1JLgbtLxgQTLaPK+8v5646reJdCCL3S7Hf4J+fwX91xWOc3aDRMFRo1G6Cqi/UdLaplpRWfh9PSXrBpeU/Yyumc+39uTrVKSn0iaelZHWdotGhR1+GzXLMWdYcx5NJmh6yhXX5aTyuucLA6H85ckfv9uWZaixctXHTIk3ux2fW2qEv8ro90WHsUjtZO/+geKavbpi1uPQ4FdhI9HCGEPmGAAaWv6jtl4HxLtvTpv7JJPtLJnElF09b1c2v2a/xqDzP/aNVBtlY/ljr3VekFSR2DTIpw4zjpZ7wazQytmWTp8S8/Br5CCCGchJJLYLjBPV2RPiNnaHtQXtUhbcxxEwFHCCGEk8751c4hMSICjuMma2j7wuqq4tTuKD8CjhBCCCefAUaRMfQAA2jhyCWGGtL+xYTuGLeLgCOE0Ce9PaXyYOe8/VXhMM5vP7OttFPLgRQPs6Rj06z5BFylF+tvEBkDYgbHcTSwfUPApHuWXcWk0RBCH7TJfSZ450Eyb+bNs9KVxkg0e8TLPmKyRlsN07/Tx7vUdruNMBAb/ECtTx2w5BaPWO19TjtACFOZQaNg90FSOmYMPOCn9/W+bpQv9LHMohcnhaSoUWu66pAxWzLIELIGHeaU3MNTsFCdMw6jaWyyxrDypoAn1kYtxnZa99Rgg9Gd9g8+coPaB6iSdPyEzJrCMRa2nwg4Qgh9QpuCqnLGye1+5hIXlhvkNnlVHW54ezxurqlGSxSsNNeNil7zb85zrckdun/bPOoHftv1EvssU+fA+3dv9JidbrTPgi6yJw0yp7wvLbt92wIDuuy9ziv6qOtAg22dgpe9tlpttsmdnlVtzEmcdTN/cTqFusa6DbPW57blWp47yLmZ4Wk91QYdxxyvRW/4G2f78iGbxqJ5/tpsv9vFDJK0IqfLwSVHNchQ9B2rfNXIDkcX+FN/6F3H+ArUGSKrkCTDRwxes/0YC9tPBBwhhD6g4FlL3XiAnuCihV50ZcUW5ql1FruwU2DBSDM8aKE7XFbRcO+xVH15O/qDafGS9e4wTqN55lqrqjwcXrTKaOMqAo7ULv3d1mWu0y3u0VJ63ivu1DEtQmqL3b61X3M3zpeP+VNuz0k/7TOSZJdVXi+8WHhq0sLVB/6UPVIVdYYd5WSDZi/ZVZHJZIg5Gt1tg0s8Ujqada5xXT47MdoYT7jYNfsFeBv84jDrUO+m8mLu46G1PMyWyB1V4JkYoU4DtelEEXCEEML+iuZ52IUHDDiW+JHxFQFHiwX2uqCiwU5kZEz0USP8xAPOLTfcRassNsZ2i7HOXnmvdmgo6kxQjdRqT5jpEoms25znW0b4bOkz+CZ/bWRFuPHWdbv+nJupaEgHma5zy3t2lz/psJO4f6P8ggwxxCw3emPo40MXpAsKa15u2f+0dKgctQYe5WWa3O91BS1yqiSmm2Kh+eq96CWkdsr776WAo+hnVnZ4ftEeze6xsOJ9yjrXZTa5s2NNtWpT00VPzAhXH8eAo9GPy3vsDHWrM44qFBukVgM1Rh+3ipVFwBFC6CPSI3h0p2eMN7Wiec6VbodD3ex01RWzJxo9a41tVsuU8oFm/J8ODfsMXzYKrZ6yx0cM87wHfNTp+hnozFJT85pGVxveqV6v++suG4ZC+faccYYJh/kaZPTr6bfh+EgMdrFz7Ey25J6ffadn53d+e4e0BxxH22AP8Gl7rXSXi12hSp1N7jbDbaVhuE3+SdFbq0NTz3q6UwlFqfnmVxzJKZrjTH/d4bwW93rax124Xx2q9gs/j+0ly5WDmuxRT1we2D4Jt+YgWeiOWgQcIYRTTmqedW431E4pmuxTtMeO0uNTJPaoUi8j9YanTDOtdLvcbb6cizoMg4xTi9TLfu3d5tjuTs2lpv+t8fy1fmmq6/brgbjIl7sMEtb6WvnrqlJD8pce1K+L8KQo41Nu63s39Dp1TnOOj3t+9oOZZ60o7krbFrQ/dow9HFXOULBdlVnmyFjjO1q830wJdntQwReN0CYji4Kp/sikg5S4wt8oYIDzOxzf5zk5kzodbXdkfRAt7nSXoiYFdyi61B9XBMZ1bndtudzsUQ41DSoFHMmYo3xhD6LP/X6GEMKh7PATA1zoOXfajVSDZn8q2yFXwGy/Y7RGD+CTriyFCsttU9flZMFNvqGfadZ63HpfdLp12KBVlVbPWOszcpplO3Sur/GjLqc97tK437FWw3y+i5UrG/3wEEt1T2KJnP6uc1Vxu/nuTl6ctT5tyLYWByRZHXqijrzgglWGmiirwX+YZ6aXvQHWedQ4a90tY5qzZPTTX91Br1anv5oOe/G8dZ2O/x+9VJvR3ulZO9zoNUWpZntBg1STPaD6ABORD0f/9lC6Ku2GfGoRcIQQTjEtHrLEZFVGOE8TWiyxy1leljW7vMxyimptHvW86805jLkR66032F32Wu1aV8lok7fGemfa63XNVrhL1kznlEKMnIlaD7BSodaZ7UmYOuhvVheTQlcc16WhvVTOKO9xjdeSZ7xcXJQMlpA9pkas2TITjCpt/Xep1201EtutMkGd+fZa5X3O0M/Vmg+R03So6w07YFaQVm8ch2WrjHWzLVa5SdabUkv8DGy2zy+9DM70waNeu1Na6dUtY3MRcIQQ+og2z5UXoq7XbK1HS+PxRa+XF7KmVnpIAYlznCnFNt+21id8Xc5nyrkVcvopKJjpxsPquJ/sS6o1ut94t6opLW3d7UlTpPob5EUtGn3IdGyWypvlHEMPsCx2h0HWYkBFQ7fBN7pY0/L2YNARyGb+cPa2nn7POrnskB/Ma8xydrLLSqfJ6tRbdKTetNp0m2xW5Qs22O5yV+B5/+69rpS13DeQesmLeO2g1UsV1BttYpdnveZeM11vSpdrko5Waq3nXWyYoWZQ+ivY7fZjCDgykOmOGDYCjhBCH9HsJ+XbbJsGr3mz1HuQ2uethQ473WuTSaWdX9s/jzZhkKGycgZ0+BSacb05xh5WB/VQt9jnPqnbS2P9rfJSj3qPkT7o3YpecI9+sjb748Oe1neDj5a/zhrYRUuQHs3alKwPn5j35birMuKtqHCL+c4r7QJ8pPJ+ZZ37/ArT/A9NEoONxmA5g4yWtUsOqTc9vd/71aRpvzynA13e5fLpVFbOvV52tZsqAsiCrYc5GJaoOUCatxFuMV2LJYYYr8Umx5KxqxRwZLsjgWsEHCGEPiDrFhdVJFxa6zvO9N5Sz0TRM56UQ95TnnatokUVz26y6wCd4d/3E2+vyUwl8hokPtJpk/hBPu9yLPKgy1ymSooWbS620otuMsF4LX5hiBmqjfS/NLtXo/cbWKrhT3zWOV3UYRCKClK3uLY8eVWH+l9ttIJU7hTbur7RRmcd5XPXeMxgHzfbfZZKkdpjC3Yr2GOLrB3yyHivq0tnvD0X437/7vdd0qHMzAFmTyRm+IAfe9i/eNbvm1jq59jhq6VZI4eSuMRXunwko596Tb7lCmfKyR124rGur5O8VexxFwFHCKEPSJxucsWt/lU1xrjUMJCa4SZjkDHSlW53b4dn77TV2V32IQ9xRvkT6HprnFFa1rrVMqd7eyJ/vQFSK31HjZk2WqXNdHs0u0jOUy42RmKFZ11jhkS1yfYZrLU0EbGoRsYYtXZ3uH6dMaqlXvFjDYcIJoqG+crhLxNNLTlIXvWeMXG/VcNd17zNTnX6S073G0c5RJH3qD0GG22yYaXWdZ/v+TkabPUDv0Cz9lGnfvqh0SsS55euWC9jwGFVGHIm+C+ucKf5fs9N3muMnCoTD7MZTow7xIDO3uMycbitPVwpajn2svZ/DUII4aS33TJDTDvALTkxwi5L1BpghomdkkK3WavZpC4brvd4T+mrort81+e9AzziL3zQbR3OzfuJRcb6jgYZ003QoM1Y4/2zp90k9Qs5F3UYAHjdf5RShq3TqOhu9ygaLlfqbp/uj42X2maR0UYepMlp85o3O+UjPai24h0LFx3+6SfC7G/5zCE+WedtsdJST6QfSm6QLcofVcBR9IZnnKfjJJacc0zDCs842zQZWzxe8fh2d9rt66Uw9shVu9AUd/qV/7TUp80w2H89gucfbLu+VEbdcejfyrcPyBS7Y2/ACDhCCH3ASv9sjjMPeMMteMjj/soAg/dba7DTPMOd3mkeRNqprKKtsgfdLC3jXLUGG2ywgYaot12NESaY6mHT7POs8yqyncIIs9QjVWu9jHfZYq0PGY2N7jKmHJ7Uu807ZLR28Tm2VtZu/3CYnfMnrVbLPea55FVv7ttde6WUwlF/qt+kzu3+o+JIqtbVrsETFnuHG2S93iGx1x67ja3oCSt60KsVj491+SFTeQ31m2b4qaXWmnYc88LmFdQeh4Cj1MNRiIAjhBC61GpHF3krKjXY1uWWa0XLLfYOYzrcrAtetcfZFcFJiw0HyQyZSmRc7ZqKm/4Wq4w30kBX+6bv2y11a6dwZ4TZpTkaez2HKS7zE/XOkdqo4PzyEEmiVr28Jz3a6efI+rxp8n37dr7CS15IX8q8kts5N4U5TWlBrk3zUS01zbjA4E7LjlvkVUkOOJk3tc1Ol1f0qBQ9Y27FGec55zByh/Z3ldFWOv+4vmPNCuqPQ8Cxrz2EK5RSehxXffo3NIQQDiXvOXlnGdChoSmY5ym/7cLyLXy9VcYfoDnZ7FnTTCv3RhSttF6NZd5liJyLLHGPvM86p1OT8LRFsqUR+EbkzDLXr8xQ9IDxnTKaUvCmTd5XMZ7/uu92mvfR5yzxL+kv0+2ZhrR5XvlNKu5KCrRoOMoc3IOc32E331SDdf7Gv0o12OKbfijRbEv5jBYrNZpU0SuR9XlzKsrod5jb1eec5cxjmuDbZq1VHQLPrfJGHYeAY0/7sFxruvWYi+ri5w4hhFNWaqFHzDRLrkPnfMEWLRW5DHb6qS0+f4AFmA0e8ILfkVpjuWVe1+oaea3OUStVVCujqNFegzo0ClO8Qx2KXvWcVJthrvf3vmWrFh/pcgetOqebWi6l8eTfrm0/qYS8XZZ4Jnk4My/f0Jq+2umcZJs29h3DB/H25N+poiLyNmkx0UCpjO0GGinRUM5wklrtWbs9WrHlX2KMM47q2pmjmnmS6Ke/DHb5oVXeV/4NbfG4AUYf9Q4qb9vVPpbSnNlwzEXtJwKOEMIpK7XWP6rxnvJ6k7du2IW3lkGgaKcHPe1cl3T5CTLVbJ8hFvuONv0MdYWrNPmG6cZjq3v81CipH2vwYWNLzUSKsa5Qp80+e8y1wAbnmuEcP5f1uQM0Zhv8sGJgZqt8X1sK25rssskryc9aH+rf9Fz+AGftlKflGHv+91mgyTIFzdaZ6CsmK3rSP3u/d8l53V+UzmzxgjedbpFfueG4DF4cuSrXaTYAQ3zMUGNUG+V8/cz3tKJ7XW+E6fLHsKZ1d3vA0WLT8a9/BBwhhD5io6fLN9o3tdjk+fL4ft6mLrITbPcjK33ApTLIqLHLWoPwhmUmGIjU6x7yuNE+UpHtuUpBo4IsijbZbZRpbjDMJJMNtMfX7HOpYVb4iV+b7hOyvucXtrjBperNt9obdrhTq72abLbLS8403nobDddmoUEuMHK/xiNTsSsopxlvRClTR3Kyhx4tmiw11+JkQdurTQ3LD3buVnma7DymCzZbbCPOs9tSY4xQq6BKokqtrJqK36hHjfMxz/m+Pa457P17j6eM00rbAeaML621utgcL/uBAS6xyBJXuumoV9GQ2t6+Vro5s+741z8CjhBCH7HQm+WvWzVYbE3FcMPO/QKO7R71kJluLW3JlXWme/2jMRJrNDhXneWe95i1pvmo2RXN+ShVHtFqsMR2c+WNMdHHSztRNLvPs65zrqfd4xUX+5jpMgbo51krLPdBL3pYTpUNxphhkGV+7SbD/Np8dT6r6H7/6lFzXF2R76PKHKPNqUiH3uQ1a+3yppWGHFOi717gSUvTeekbuT2n5398qNGBrZpotvOYpssOcpuLkfGCTS6tSGGfalWludRbsNW3bfJBF5ui0U+85Hwb5a31mpysVGupd2yI0d2RM+sAUts97z57fNI7veGnfugVHzrq9S8ttrfP4djVsuWoCjioCDhCCH3ARJ8s7ZrZtYInLet0rMVKY33BuPKRW9RYYQ9GusmVEg/4uX7ucIUJHRrzCW71M/+uSqJVlXeZWd5EnhavGOdWe/zQch/zLuNkMMUXTPULWTXebaZB6vVTr07Ww+ZKfNt2V7jRGRLTzfWwHzunIuDImeW8t9JPg8SDXpXVrOj2o0zy3Ws8WGwrtCzGS4c8NbO7uIeCBi1H3ZAN9AHnGIbNfmSEiytmVuTda6XN9hqKn3je5d6jXr3f9YQHfE9inzvdU+pXKkqR80nXn6CAI7XVE57zhlE+4536mWWMX/mR1W51/VH9LjS0D1Gl6caXu2H74Qg4Qgh9wDhjDjphrugc6yuyQk7QZLLPyZpU0W8x2W8plNJXV8lJXWmIdxu234qCer/lDs1SZNWWd2VpN9CX7DFNs2t80oWqSs9OjHGHG9Trr7/TK4ZAioaa6XSfMNQM1RKc4XS/YbNJEqNdYYxEsl8fRj+fsERRvWnGn+QTSOfvPfxz2xqyuyjao+Wot6gf4PrSK7ZPtWtLU3ETQ51rlNVWK7jO5foZb6o7Skunx/qgm6yzzPJysopmO9QbqM70/d6DRL2hx3Vrkmq1Es3udq96N7itfSc7WWN9xAz/YOVRlrzHLkiTbhhQiYAjhNAnJIe8mV3U4bvbD1BKdafvz3f+AcqrPsg6g6TUa1LnQ50ClUR1eeVJ5SMZF7lApsOxRJUhpVwRZx1wx5DkII/1ZcU92e0U7NB4GLkvuvb2b81E/1tNKVTImGUW5rhJolYO15nltPK7U6XqCF71are6+igX73Zd6/dpMlCNDzvDVGM7/O5Xu8gE1UfZ17WjfVVOMXnzqJ5+CBFwhBBCtzn8SZzJSd47caIt3jf7jfZhhd3GH3NpSRd7olT2WtUae9RlZ4zslEz/WOs6pfTVYNd2ecboIyrvbQU7NEAhXXEcVth28UqEEEIIJ530edjWPggQjoP8W/l6W63qjvIj4AghhHASyrwoz06b5Y9DaYFWm9tnpTRlVndH+RFwhBBCOAnlNnuDvJe7Y9uPU9Iur7cvHp9f1S0vaQQcIYRwVIq2erPDlnFF663rjm02QxfmFpP7pLzYHUkxT0GpDe173xaT7z7XDTM4IuAIIYSj1Owef2RxxZFG3/BVq7tjvl3oynMa2eXNLrLIhiPVZrEm2JI82z1XiIAjhBCOynZvqO6wumGLJYYadrInGD95rLWJNq/HLI7joNH89i8WFpu65woRcIQQwhEraLXMKpcYqaCgiKJntTjPQIXyv+jr6E7JJq9RtEChp6vSB2xuTxeWNz/tplHByMMRQghHqMm3bbDeFnOtlkhc4gaNHtbokbc+J2KMW3tkk69TRXGnx93McqtOyeRnx9fi9qRf+9KFhQg4Qgihd2jznHWGGGanXVrtNNh1FlpnuBYbQMFmY7yrp6vap6UtybNedm6L7/l/ozk7Jq1+2d5P9HyyqNBNHUbxDoUQwlGY6Yv6g7X+Ens9ob8/cnrp8d2+Y20MqXSrBeasSJ90ltwLVpjW09U5iaXmegOa/cqbr3bTVSLgCCGEI5aoM8EgUFAl73kLXeP88g4rObU9XclTQHZP/iVbnNbkeWfEpMSj1ughraTeSOcuaOmuq8T7E0IIx2y7J9W5qdNerlWxP0o3q8un8yynzQu293RlTmLLvaFAmwXJG913lQg4QgjhmA10s8/ZV7FeoqhVdXQid7Mn0uLS5Al7i5Z4WFtPV+ck1ewpG2FH8lR2a/ddJwKOEEI4CkWtpX9tUv3Mdob/658tKyWhKmo9ot1iw9FZ1Jp8L13OHk90z45jfV5qnifsI/V67t4Xu3GFcYTfIYRwxIqW+9vSfI09diJjrN/yNf/ki6bKII1w44TYtXLg981Ia5aZa7x+PV2dk852j1kHW5Ovze3Wcano4QghhKOw10rLLLPMmlJXfuIiN3rdfbZLkaiOORwnwPJC9idW0+BBr0WS8yOUt8jc9kytz2Sf7t5rRQ9HCCEcscQZPltaFrvO35WOVnu3lR433i0KWmUj4DghXlw1+y/9nfql7jbJsJ6uzklllR+0b363wz+8sKt7rxU9HCGEcMQSA0w300wzTSkvhU2Md5OxtssraO3pSp5C0ns9Jk0948merspJJXWvl6W0+G6hm7Zse1v0cIQQwnGTNdtYA9TZjZq4xZ4g6a7kH80yrsG/mmRWT1fnpPGQB9rXVb3k36u7KaH526KHI4QQjqN+Jhkmo02TbNxiT5BsIfm1P7eNTb5mcczkOAxtHvU1e0itSf8+v6S+29Pixl9DCCEchaKW0r/WLhOYF7TJxDqVE2SeefuK9/qxvall/sVrsWH9IbR4wX/YBVvTv8s+8HLbE91+zejvCyGEI5Za72el5OXb7e3i8SZNMaRyQi1cP/ubxnpPvuoFic+YGVN2D6jV875tiZR97kl/9FLDibhq/DWEEMIRS230QKmLuE1j6WibXXISWc1+bZcB5emk4UTIL879lfFmtXnBPp91QXTid6nVo75rpZTUL31t77oTc90IOEII4YglZnSxLHaHr9qrWp3dVhrlwtjA7YR6uTjn+fT3079Nzm21wNd9zHXxDuynwU/cbUP7N4/5k2T58hO0qXEEHCGEcIQyRhvhLAPAAJMNk0E/NdYqSjDdb5odnfon2Ly22U/5gm+YWaxe7i8t9HEj1cZcGlDUZIVvWaCFNG1OHvbl3JoXTlC4EQFHCCEcsXr/S6bUv8F4X5eRxUB/pkUrsvrH7bVHzC+cOzf7ueQLbk2HNPqZF13rMlMNOsWDjtQWyzzhqfY8uKn17iz8a3Ht/BMWbkTAEUIIRyxjUMV3ScWm9NUxa6PHvZz30qz/mWx0uzPTZJ3v+rlrXGiYwQaqUaXqFJnbUdCmTbPddtrmCc/Y1/5Aq8W+m/7Hot0ntj4RcIQQQuhjFqyb/Vee9lE3G8AOP/WYYYYaolaN6lMm4GjVoskOO2xTXoiy1Z3uTuYvbDy20o9cBBwhhBD6nPk7z/pl9SvJ08ltLjQ4TXbYgURySg2tpEjfzhNTsNmz6Y89Nmj7EydwKOUtEXCEEELog15Lz1vr35J7TU4/lNxhoIwkTVKnXMRBqqiYrE+/m96frrGzNd/9Sb66EgFHCCGEPmkRLTba6JlZf565MD3f1GR4Wq9O3SmxfCiVt0+jvTZ7I1lYfHFBN+8GeygRcIQQQujjFmx031X3764t9svk5JJccgr0chQpJnl5bfZpmdcDQyidRcARQgjhFPBEUZOmnq7FqezUmKobQgghhB4VAUcIIYQQul0EHCGEEELodhFwhBBCCKHbRcARQgghhG4XAUcIIYQQul0EHCGEEELodhFwhBBCCKHbRcARQgghhG4XAUcIIYQQul0EHCGEEELodrGXSgihV9tmRU9XoY/Zohfs4xVOQRFwhBB6tbv9sqer0Mfs09rTVQinpAg4Qgi9WoOGnq5CCOE4iIAjhNA7FTXb19OV6MNaY2QlnFgRcIQQeqVkTfpPRvR0LfqwYrKpp6sQQgghhBBCCCGEEEIIIYQQQgghhBBCCCGEEEIIIYQQQgghhBBCCCGEEEIIIYQQQgghhBBCCCGEEEIIIYQQQgghhBBCCCGEEEIIIYQQQgghhBBCCCGEEEIIIYQQQgghhBBCCCGEEEIIIYQQQgghhBBCCCGEEEIIIYQQQgghhBBCCCGEEEIIIYQQQgghhBBCCCGEEEIIIYQQQgghhBBCCCGEEEIIIYQQQgghhBBCCCGEEEIIIYQQQgghhBBCCCGEEEIIIYQQQgghhBBCCCGEEEIIIYRwqvr/AW79JPI6yZxnAAAAAElFTkSuQmCC;" parent="1" vertex="1">
          <mxGeometry x="1850" y="1280" width="1080" height="716" as="geometry" />
        </mxCell>
        <mxCell id="465H8YBh5ZiATIw_3BI6-4" value="&lt;h1&gt;Heading&lt;/h1&gt;&lt;p&gt;Lorem ipsum dolor sit amet, consectetur adipisicing elit, sed do eiusmod tempor incididunt ut labore et dolore magna aliqua.&lt;/p&gt;" style="text;html=1;strokeColor=none;fillColor=none;spacing=5;spacingTop=-20;whiteSpace=wrap;overflow=hidden;rounded=0;" parent="1" vertex="1">
          <mxGeometry x="130" y="60" width="190" height="120" as="geometry" />
        </mxCell>
        <mxCell id="gEe7E2UOkijqN2wEes1F-1" value="" style="endArrow=classic;html=1;rounded=0;" edge="1" parent="1">
          <mxGeometry width="50" height="50" relative="1" as="geometry">
            <mxPoint x="80" y="1330" as="sourcePoint" />
            <mxPoint x="1110" y="1330" as="targetPoint" />
          </mxGeometry>
        </mxCell>
        <mxCell id="gEe7E2UOkijqN2wEes1F-2" value="" style="line;strokeWidth=2;direction=south;html=1;" vertex="1" parent="1">
          <mxGeometry x="450" y="1250" width="10" height="160" as="geometry" />
        </mxCell>
        <mxCell id="gEe7E2UOkijqN2wEes1F-3" value="Cast-Point" style="text;html=1;strokeColor=none;fillColor=none;align=center;verticalAlign=middle;whiteSpace=wrap;rounded=0;" vertex="1" parent="1">
          <mxGeometry x="240" y="1210" width="60" height="30" as="geometry" />
        </mxCell>
        <mxCell id="gEe7E2UOkijqN2wEes1F-4" value="前摇" style="text;html=1;strokeColor=none;fillColor=none;align=center;verticalAlign=middle;whiteSpace=wrap;rounded=0;" vertex="1" parent="1">
          <mxGeometry x="240" y="1139" width="60" height="30" as="geometry" />
        </mxCell>
        <mxCell id="gEe7E2UOkijqN2wEes1F-6" value="Start Attack" style="text;html=1;strokeColor=none;fillColor=none;align=center;verticalAlign=middle;whiteSpace=wrap;rounded=0;" vertex="1" parent="1">
          <mxGeometry x="425" y="1200" width="65" height="30" as="geometry" />
        </mxCell>
        <mxCell id="gEe7E2UOkijqN2wEes1F-7" value="&lt;h1&gt;时间轴&lt;/h1&gt;&lt;p&gt;Lorem ipsum dolor sit amet, consectetur adipisicing elit, sed do eiusmod tempor incididunt ut labore et dolore magna aliqua.&lt;/p&gt;" style="text;html=1;strokeColor=none;fillColor=none;spacing=5;spacingTop=-20;whiteSpace=wrap;overflow=hidden;rounded=0;" vertex="1" parent="1">
          <mxGeometry x="80" y="980" width="190" height="120" as="geometry" />
        </mxCell>
        <mxCell id="gEe7E2UOkijqN2wEes1F-8" value="End Attack" style="text;html=1;strokeColor=none;fillColor=none;align=center;verticalAlign=middle;whiteSpace=wrap;rounded=0;" vertex="1" parent="1">
          <mxGeometry x="775" y="1200" width="60" height="30" as="geometry" />
        </mxCell>
        <mxCell id="gEe7E2UOkijqN2wEes1F-9" value="Attacks" style="text;html=1;strokeColor=none;fillColor=none;align=center;verticalAlign=middle;whiteSpace=wrap;rounded=0;" vertex="1" parent="1">
          <mxGeometry x="587" y="1200" width="60" height="30" as="geometry" />
        </mxCell>
        <mxCell id="gEe7E2UOkijqN2wEes1F-10" value="" style="line;strokeWidth=2;direction=south;html=1;" vertex="1" parent="1">
          <mxGeometry x="800" y="1250" width="10" height="160" as="geometry" />
        </mxCell>
      </root>
    </mxGraphModel>
  </diagram>
</mxfile>
